<?xml version="1.0" encoding="utf-8"?>
<!-- Generator: Adobe Illustrator 27.0.0, SVG Export Plug-In . SVG Version: 6.00 Build 0)  -->
<svg version="1.1" id="Layer_1" xmlns="http://www.w3.org/2000/svg" xmlns:xlink="http://www.w3.org/1999/xlink" x="0px" y="0px"
	 viewBox="0 0 1000 1000" style="enable-background:new 0 0 1000 1000;" xml:space="preserve">
<g>
	<rect x="506.3668" y="143.1692" width="14.4" height="14.4"/>
	<rect x="391.1668" y="157.5692" width="14.4" height="14.4"/>
	<rect x="506.3668" y="157.5692" width="14.4" height="14.4"/>
	<rect x="621.5668" y="157.5692" width="14.4" height="14.4"/>
	<rect x="391.1668" y="171.9692" width="14.4" height="14.4"/>
	<rect x="491.9668" y="171.9692" width="14.4" height="14.4"/>
	<rect x="506.3668" y="171.9692" width="14.4" height="14.4"/>
	<rect x="621.5668" y="171.9692" width="14.4" height="14.4"/>
	<rect x="391.1668" y="186.3692" width="14.4" height="14.4"/>
	<rect x="405.5668" y="186.3692" width="14.4" height="14.4"/>
	<rect x="491.9668" y="186.3692" width="14.4" height="14.4"/>
	<rect x="520.7668" y="186.3692" width="14.4" height="14.4"/>
	<rect x="607.1667" y="186.3692" width="14.4" height="14.4"/>
	<rect x="621.5668" y="186.3692" width="14.4" height="14.4"/>
	<rect x="391.1668" y="200.7692" width="14.4" height="14.4"/>
	<rect x="405.5668" y="200.7692" width="14.4" height="14.4"/>
	<rect x="491.9668" y="200.7692" width="14.4" height="14.4"/>
	<rect x="520.7668" y="200.7692" width="14.4" height="14.4"/>
	<rect x="592.7668" y="200.7692" width="14.4" height="14.4"/>
	<rect x="621.5668" y="200.7692" width="14.4" height="14.4"/>
	<rect x="275.9668" y="215.1692" width="14.4" height="14.4"/>
	<rect x="290.3668" y="215.1692" width="14.4" height="14.4"/>
	<rect x="391.1668" y="215.1692" width="14.4" height="14.4"/>
	<rect x="419.9668" y="215.1692" width="14.4" height="14.4"/>
	<rect x="491.9668" y="215.1692" width="14.4" height="14.4"/>
	<rect x="520.7668" y="215.1692" width="14.4" height="14.4"/>
	<rect x="592.7668" y="215.1692" width="14.4" height="14.4"/>
	<rect x="621.5668" y="215.1692" width="14.4" height="14.4"/>
	<rect x="275.9668" y="229.5692" width="14.4" height="14.4"/>
	<rect x="304.7668" y="229.5692" width="14.4" height="14.4"/>
	<rect x="391.1668" y="229.5692" width="14.4" height="14.4"/>
	<rect x="434.3668" y="229.5692" width="14.4" height="14.4"/>
	<rect x="491.9668" y="229.5692" width="14.4" height="14.4"/>
	<rect x="520.7668" y="229.5692" width="14.4" height="14.4"/>
	<rect x="578.3668" y="229.5692" width="14.4" height="14.4"/>
	<rect x="621.5668" y="229.5692" width="14.4" height="14.4"/>
	<rect x="722.3668" y="229.5692" width="14.4" height="14.4"/>
	<rect x="736.7668" y="229.5692" width="14.4" height="14.4"/>
	<rect x="290.3668" y="243.9692" width="14.4" height="14.4"/>
	<rect x="319.1668" y="243.9692" width="14.4" height="14.4"/>
	<rect x="391.1668" y="243.9692" width="14.4" height="14.4"/>
	<rect x="434.3668" y="243.9692" width="14.4" height="14.4"/>
	<rect x="477.5668" y="243.9692" width="14.4" height="14.4"/>
	<rect x="520.7668" y="243.9692" width="14.4" height="14.4"/>
	<rect x="578.3668" y="243.9692" width="14.4" height="14.4"/>
	<rect x="607.1667" y="243.9692" width="14.4" height="14.4"/>
	<rect x="707.9668" y="243.9692" width="14.4" height="14.4"/>
	<rect x="722.3668" y="243.9692" width="14.4" height="14.4"/>
	<rect x="290.3668" y="258.3692" width="14.4" height="14.4"/>
	<rect x="333.5668" y="258.3692" width="14.4" height="14.4"/>
	<rect x="391.1668" y="258.3692" width="14.4" height="14.4"/>
	<rect x="448.7668" y="258.3692" width="14.4" height="14.4"/>
	<rect x="477.5668" y="258.3692" width="14.4" height="14.4"/>
	<rect x="520.7668" y="258.3692" width="14.4" height="14.4"/>
	<rect x="563.9668" y="258.3692" width="14.4" height="14.4"/>
	<rect x="607.1667" y="258.3692" width="14.4" height="14.4"/>
	<rect x="679.1667" y="258.3692" width="14.4" height="14.4"/>
	<rect x="693.5668" y="258.3692" width="14.4" height="14.4"/>
	<rect x="722.3668" y="258.3692" width="14.4" height="14.4"/>
	<rect x="304.7668" y="272.7692" width="14.4" height="14.4"/>
	<rect x="347.9668" y="272.7692" width="14.4" height="14.4"/>
	<rect x="405.5668" y="272.7692" width="14.4" height="14.4"/>
	<rect x="448.7668" y="272.7692" width="14.4" height="14.4"/>
	<rect x="477.5668" y="272.7692" width="14.4" height="14.4"/>
	<rect x="520.7668" y="272.7692" width="14.4" height="14.4"/>
	<rect x="549.5668" y="272.7692" width="14.4" height="14.4"/>
	<rect x="607.1667" y="272.7692" width="14.4" height="14.4"/>
	<rect x="664.7668" y="272.7692" width="14.4" height="14.4"/>
	<rect x="707.9668" y="272.7692" width="14.4" height="14.4"/>
	<rect x="304.7668" y="287.1692" width="14.4" height="14.4"/>
	<rect x="362.3668" y="287.1692" width="14.4" height="14.4"/>
	<rect x="405.5668" y="287.1692" width="14.4" height="14.4"/>
	<rect x="463.1668" y="287.1692" width="14.4" height="14.4"/>
	<rect x="477.5668" y="287.1692" width="14.4" height="14.4"/>
	<rect x="520.7668" y="287.1692" width="14.4" height="14.4"/>
	<rect x="549.5668" y="287.1692" width="14.4" height="14.4"/>
	<rect x="607.1667" y="287.1692" width="14.4" height="14.4"/>
	<rect x="650.3668" y="287.1692" width="14.4" height="14.4"/>
	<rect x="693.5668" y="287.1692" width="14.4" height="14.4"/>
	<rect x="189.5668" y="301.5692" width="14.4" height="14.4"/>
	<rect x="203.9668" y="301.5692" width="14.4" height="14.4"/>
	<rect x="319.1668" y="301.5692" width="14.4" height="14.4"/>
	<rect x="376.7668" y="301.5692" width="14.4" height="14.4"/>
	<rect x="405.5668" y="301.5692" width="14.4" height="14.4"/>
	<rect x="463.1668" y="301.5692" width="14.4" height="14.4"/>
	<rect x="477.5668" y="301.5692" width="14.4" height="14.4"/>
	<rect x="535.1667" y="301.5692" width="14.4" height="14.4"/>
	<rect x="592.7668" y="301.5692" width="14.4" height="14.4"/>
	<rect x="635.9668" y="301.5692" width="14.4" height="14.4"/>
	<rect x="693.5668" y="301.5692" width="14.4" height="14.4"/>
	<rect x="203.9668" y="315.9692" width="14.4" height="14.4"/>
	<rect x="218.3668" y="315.9692" width="14.4" height="14.4"/>
	<rect x="232.7668" y="315.9692" width="14.4" height="14.4"/>
	<rect x="247.1668" y="315.9692" width="14.4" height="14.4"/>
	<rect x="333.5668" y="315.9692" width="14.4" height="14.4"/>
	<rect x="391.1668" y="315.9692" width="14.4" height="14.4"/>
	<rect x="405.5668" y="315.9692" width="14.4" height="14.4"/>
	<rect x="463.1668" y="315.9692" width="14.4" height="14.4"/>
	<rect x="477.5668" y="315.9692" width="14.4" height="14.4"/>
	<rect x="535.1667" y="315.9692" width="14.4" height="14.4"/>
	<rect x="592.7668" y="315.9692" width="14.4" height="14.4"/>
	<rect x="607.1667" y="315.9692" width="14.4" height="14.4"/>
	<rect x="621.5668" y="315.9692" width="14.4" height="14.4"/>
	<rect x="679.1667" y="315.9692" width="14.4" height="14.4"/>
	<rect x="218.3668" y="330.3692" width="14.4" height="14.4"/>
	<rect x="261.5668" y="330.3692" width="14.4" height="14.4"/>
	<rect x="275.9668" y="330.3692" width="14.4" height="14.4"/>
	<rect x="333.5668" y="330.3692" width="14.4" height="14.4"/>
	<rect x="391.1668" y="330.3692" width="14.4" height="14.4"/>
	<rect x="405.5668" y="330.3692" width="14.4" height="14.4"/>
	<rect x="592.7668" y="330.3692" width="14.4" height="14.4"/>
	<rect x="679.1667" y="330.3692" width="14.4" height="14.4"/>
	<rect x="779.9668" y="330.3692" width="14.4" height="14.4"/>
	<rect x="794.3668" y="330.3692" width="14.4" height="14.4"/>
	<rect x="808.7668" y="330.3692" width="14.4" height="14.4"/>
	<rect x="232.7668" y="344.7692" width="14.4" height="14.4"/>
	<rect x="290.3668" y="344.7692" width="14.4" height="14.4"/>
	<rect x="304.7668" y="344.7692" width="14.4" height="14.4"/>
	<rect x="347.9668" y="344.7692" width="14.4" height="14.4"/>
	<rect x="592.7668" y="344.7692" width="14.4" height="14.4"/>
	<rect x="664.7668" y="344.7692" width="14.4" height="14.4"/>
	<rect x="736.7668" y="344.7692" width="14.4" height="14.4"/>
	<rect x="751.1667" y="344.7692" width="14.4" height="14.4"/>
	<rect x="765.5668" y="344.7692" width="14.4" height="14.4"/>
	<rect x="794.3668" y="344.7692" width="14.4" height="14.4"/>
	<rect x="247.1668" y="359.1692" width="14.4" height="14.4"/>
	<rect x="319.1668" y="359.1692" width="14.4" height="14.4"/>
	<rect x="333.5668" y="359.1692" width="14.4" height="14.4"/>
	<rect x="347.9668" y="359.1692" width="14.4" height="14.4"/>
	<rect x="650.3668" y="359.1692" width="14.4" height="14.4"/>
	<rect x="693.5668" y="359.1692" width="14.4" height="14.4"/>
	<rect x="707.9668" y="359.1692" width="14.4" height="14.4"/>
	<rect x="722.3668" y="359.1692" width="14.4" height="14.4"/>
	<rect x="765.5668" y="359.1692" width="14.4" height="14.4"/>
	<rect x="779.9668" y="359.1692" width="14.4" height="14.4"/>
	<rect x="261.5668" y="373.5692" width="14.4" height="14.4"/>
	<rect x="347.9668" y="373.5692" width="14.4" height="14.4"/>
	<rect x="362.3668" y="373.5692" width="14.4" height="14.4"/>
	<rect x="650.3668" y="373.5692" width="14.4" height="14.4"/>
	<rect x="664.7668" y="373.5692" width="14.4" height="14.4"/>
	<rect x="679.1667" y="373.5692" width="14.4" height="14.4"/>
	<rect x="751.1667" y="373.5692" width="14.4" height="14.4"/>
	<rect x="275.9668" y="387.9692" width="14.4" height="14.4"/>
	<rect x="635.9668" y="387.9692" width="14.4" height="14.4"/>
	<rect x="736.7668" y="387.9692" width="14.4" height="14.4"/>
	<rect x="290.3668" y="402.3692" width="14.4" height="14.4"/>
	<rect x="707.9668" y="402.3692" width="14.4" height="14.4"/>
	<rect x="722.3668" y="402.3692" width="14.4" height="14.4"/>
	<rect x="146.3668" y="416.7692" width="14.4" height="14.4"/>
	<rect x="160.7668" y="416.7692" width="14.4" height="14.4"/>
	<rect x="175.1668" y="416.7692" width="14.4" height="14.4"/>
	<rect x="189.5668" y="416.7692" width="14.4" height="14.4"/>
	<rect x="203.9668" y="416.7692" width="14.4" height="14.4"/>
	<rect x="218.3668" y="416.7692" width="14.4" height="14.4"/>
	<rect x="232.7668" y="416.7692" width="14.4" height="14.4"/>
	<rect x="247.1668" y="416.7692" width="14.4" height="14.4"/>
	<rect x="261.5668" y="416.7692" width="14.4" height="14.4"/>
	<rect x="275.9668" y="416.7692" width="14.4" height="14.4"/>
	<rect x="290.3668" y="416.7692" width="14.4" height="14.4"/>
	<rect x="304.7668" y="416.7692" width="14.4" height="14.4"/>
	<rect x="319.1668" y="416.7692" width="14.4" height="14.4"/>
	<rect x="693.5668" y="416.7692" width="14.4" height="14.4"/>
	<rect x="160.7668" y="431.1692" width="14.4" height="14.4"/>
	<rect x="175.1668" y="431.1692" width="14.4" height="14.4"/>
	<rect x="189.5668" y="431.1692" width="14.4" height="14.4"/>
	<rect x="304.7668" y="431.1692" width="14.4" height="14.4"/>
	<rect x="319.1668" y="431.1692" width="14.4" height="14.4"/>
	<rect x="333.5668" y="431.1692" width="14.4" height="14.4"/>
	<rect x="679.1667" y="431.1692" width="14.4" height="14.4"/>
	<rect x="203.9668" y="445.5692" width="14.4" height="14.4"/>
	<rect x="218.3668" y="445.5692" width="14.4" height="14.4"/>
	<rect x="664.7668" y="445.5692" width="14.4" height="14.4"/>
	<rect x="679.1667" y="445.5692" width="14.4" height="14.4"/>
	<rect x="693.5668" y="445.5692" width="14.4" height="14.4"/>
	<rect x="707.9668" y="445.5692" width="14.4" height="14.4"/>
	<rect x="722.3668" y="445.5692" width="14.4" height="14.4"/>
	<rect x="736.7668" y="445.5692" width="14.4" height="14.4"/>
	<rect x="751.1667" y="445.5692" width="14.4" height="14.4"/>
	<rect x="765.5668" y="445.5692" width="14.4" height="14.4"/>
	<rect x="779.9668" y="445.5692" width="14.4" height="14.4"/>
	<rect x="794.3668" y="445.5692" width="14.4" height="14.4"/>
	<rect x="808.7668" y="445.5692" width="14.4" height="14.4"/>
	<rect x="823.1667" y="445.5692" width="14.4" height="14.4"/>
	<rect x="837.5668" y="445.5692" width="14.4" height="14.4"/>
	<rect x="851.9668" y="445.5692" width="14.4" height="14.4"/>
	<rect x="232.7668" y="459.9692" width="14.4" height="14.4"/>
	<rect x="247.1668" y="459.9692" width="14.4" height="14.4"/>
	<rect x="794.3668" y="459.9692" width="14.4" height="14.4"/>
	<rect x="808.7668" y="459.9692" width="14.4" height="14.4"/>
	<rect x="823.1667" y="459.9692" width="14.4" height="14.4"/>
	<rect x="261.5668" y="474.3692" width="14.4" height="14.4"/>
	<rect x="275.9668" y="474.3692" width="14.4" height="14.4"/>
	<rect x="290.3668" y="474.3692" width="14.4" height="14.4"/>
	<rect x="736.7668" y="474.3692" width="14.4" height="14.4"/>
	<rect x="751.1667" y="474.3692" width="14.4" height="14.4"/>
	<rect x="765.5668" y="474.3692" width="14.4" height="14.4"/>
	<rect x="779.9668" y="474.3692" width="14.4" height="14.4"/>
	<rect x="275.9668" y="488.7692" width="14.4" height="14.4"/>
	<rect x="290.3668" y="488.7692" width="14.4" height="14.4"/>
	<rect x="304.7668" y="488.7692" width="14.4" height="14.4"/>
	<rect x="319.1668" y="488.7692" width="14.4" height="14.4"/>
	<rect x="693.5668" y="488.7692" width="14.4" height="14.4"/>
	<rect x="707.9668" y="488.7692" width="14.4" height="14.4"/>
	<rect x="722.3668" y="488.7692" width="14.4" height="14.4"/>
	<rect x="232.7668" y="503.1692" width="14.4" height="14.4"/>
	<rect x="247.1668" y="503.1692" width="14.4" height="14.4"/>
	<rect x="261.5668" y="503.1692" width="14.4" height="14.4"/>
	<rect x="664.7668" y="503.1692" width="14.4" height="14.4"/>
	<rect x="679.1667" y="503.1692" width="14.4" height="14.4"/>
	<rect x="693.5668" y="503.1692" width="14.4" height="14.4"/>
	<rect x="189.5668" y="517.5692" width="14.4" height="14.4"/>
	<rect x="203.9668" y="517.5692" width="14.4" height="14.4"/>
	<rect x="218.3668" y="517.5692" width="14.4" height="14.4"/>
	<rect x="707.9668" y="517.5692" width="14.4" height="14.4"/>
	<rect x="722.3668" y="517.5692" width="14.4" height="14.4"/>
	<rect x="736.7668" y="517.5692" width="14.4" height="14.4"/>
	<rect x="146.3668" y="531.9692" width="14.4" height="14.4"/>
	<rect x="160.7668" y="531.9692" width="14.4" height="14.4"/>
	<rect x="175.1668" y="531.9692" width="14.4" height="14.4"/>
	<rect x="751.1667" y="531.9692" width="14.4" height="14.4"/>
	<rect x="765.5668" y="531.9692" width="14.4" height="14.4"/>
	<rect x="146.3668" y="546.3692" width="14.4" height="14.4"/>
	<rect x="160.7668" y="546.3692" width="14.4" height="14.4"/>
	<rect x="175.1668" y="546.3692" width="14.4" height="14.4"/>
	<rect x="189.5668" y="546.3692" width="14.4" height="14.4"/>
	<rect x="203.9668" y="546.3692" width="14.4" height="14.4"/>
	<rect x="218.3668" y="546.3692" width="14.4" height="14.4"/>
	<rect x="232.7668" y="546.3692" width="14.4" height="14.4"/>
	<rect x="247.1668" y="546.3692" width="14.4" height="14.4"/>
	<rect x="261.5668" y="546.3692" width="14.4" height="14.4"/>
	<rect x="275.9668" y="546.3692" width="14.4" height="14.4"/>
	<rect x="290.3668" y="546.3692" width="14.4" height="14.4"/>
	<rect x="304.7668" y="546.3692" width="14.4" height="14.4"/>
	<rect x="319.1668" y="546.3692" width="14.4" height="14.4"/>
	<rect x="779.9668" y="546.3692" width="14.4" height="14.4"/>
	<rect x="794.3668" y="546.3692" width="14.4" height="14.4"/>
	<rect x="808.7668" y="546.3692" width="14.4" height="14.4"/>
	<rect x="290.3668" y="560.7692" width="14.4" height="14.4"/>
	<rect x="304.7668" y="560.7692" width="14.4" height="14.4"/>
	<rect x="664.7668" y="560.7692" width="14.4" height="14.4"/>
	<rect x="679.1667" y="560.7692" width="14.4" height="14.4"/>
	<rect x="693.5668" y="560.7692" width="14.4" height="14.4"/>
	<rect x="707.9668" y="560.7692" width="14.4" height="14.4"/>
	<rect x="722.3668" y="560.7692" width="14.4" height="14.4"/>
	<rect x="736.7668" y="560.7692" width="14.4" height="14.4"/>
	<rect x="751.1667" y="560.7692" width="14.4" height="14.4"/>
	<rect x="765.5668" y="560.7692" width="14.4" height="14.4"/>
	<rect x="779.9668" y="560.7692" width="14.4" height="14.4"/>
	<rect x="794.3668" y="560.7692" width="14.4" height="14.4"/>
	<rect x="808.7668" y="560.7692" width="14.4" height="14.4"/>
	<rect x="823.1667" y="560.7692" width="14.4" height="14.4"/>
	<rect x="837.5668" y="560.7692" width="14.4" height="14.4"/>
	<rect x="275.9668" y="575.1692" width="14.4" height="14.4"/>
	<rect x="679.1667" y="575.1692" width="14.4" height="14.4"/>
	<rect x="823.1667" y="575.1692" width="14.4" height="14.4"/>
	<rect x="837.5668" y="575.1692" width="14.4" height="14.4"/>
	<rect x="261.5668" y="589.5692" width="14.4" height="14.4"/>
	<rect x="693.5668" y="589.5692" width="14.4" height="14.4"/>
	<rect x="232.7668" y="603.9692" width="14.4" height="14.4"/>
	<rect x="247.1668" y="603.9692" width="14.4" height="14.4"/>
	<rect x="319.1668" y="603.9692" width="14.4" height="14.4"/>
	<rect x="333.5668" y="603.9692" width="14.4" height="14.4"/>
	<rect x="347.9668" y="603.9692" width="14.4" height="14.4"/>
	<rect x="707.9668" y="603.9692" width="14.4" height="14.4"/>
	<rect x="218.3668" y="618.3692" width="14.4" height="14.4"/>
	<rect x="290.3668" y="618.3692" width="14.4" height="14.4"/>
	<rect x="304.7668" y="618.3692" width="14.4" height="14.4"/>
	<rect x="319.1668" y="618.3692" width="14.4" height="14.4"/>
	<rect x="333.5668" y="618.3692" width="14.4" height="14.4"/>
	<rect x="621.5668" y="618.3692" width="14.4" height="14.4"/>
	<rect x="635.9668" y="618.3692" width="14.4" height="14.4"/>
	<rect x="650.3668" y="618.3692" width="14.4" height="14.4"/>
	<rect x="722.3668" y="618.3692" width="14.4" height="14.4"/>
	<rect x="736.7668" y="618.3692" width="14.4" height="14.4"/>
	<rect x="203.9668" y="632.7692" width="14.4" height="14.4"/>
	<rect x="247.1668" y="632.7692" width="14.4" height="14.4"/>
	<rect x="261.5668" y="632.7692" width="14.4" height="14.4"/>
	<rect x="275.9668" y="632.7692" width="14.4" height="14.4"/>
	<rect x="333.5668" y="632.7692" width="14.4" height="14.4"/>
	<rect x="635.9668" y="632.7692" width="14.4" height="14.4"/>
	<rect x="650.3668" y="632.7692" width="14.4" height="14.4"/>
	<rect x="664.7668" y="632.7692" width="14.4" height="14.4"/>
	<rect x="679.1667" y="632.7692" width="14.4" height="14.4"/>
	<rect x="751.1667" y="632.7692" width="14.4" height="14.4"/>
	<rect x="189.5668" y="647.1692" width="14.4" height="14.4"/>
	<rect x="203.9668" y="647.1692" width="14.4" height="14.4"/>
	<rect x="218.3668" y="647.1692" width="14.4" height="14.4"/>
	<rect x="232.7668" y="647.1692" width="14.4" height="14.4"/>
	<rect x="319.1668" y="647.1692" width="14.4" height="14.4"/>
	<rect x="376.7668" y="647.1692" width="14.4" height="14.4"/>
	<rect x="391.1668" y="647.1692" width="14.4" height="14.4"/>
	<rect x="578.3668" y="647.1692" width="14.4" height="14.4"/>
	<rect x="650.3668" y="647.1692" width="14.4" height="14.4"/>
	<rect x="693.5668" y="647.1692" width="14.4" height="14.4"/>
	<rect x="707.9668" y="647.1692" width="14.4" height="14.4"/>
	<rect x="765.5668" y="647.1692" width="14.4" height="14.4"/>
	<rect x="175.1668" y="661.5692" width="14.4" height="14.4"/>
	<rect x="189.5668" y="661.5692" width="14.4" height="14.4"/>
	<rect x="304.7668" y="661.5692" width="14.4" height="14.4"/>
	<rect x="376.7668" y="661.5692" width="14.4" height="14.4"/>
	<rect x="391.1668" y="661.5692" width="14.4" height="14.4"/>
	<rect x="448.7668" y="661.5692" width="14.4" height="14.4"/>
	<rect x="578.3668" y="661.5692" width="14.4" height="14.4"/>
	<rect x="650.3668" y="661.5692" width="14.4" height="14.4"/>
	<rect x="722.3668" y="661.5692" width="14.4" height="14.4"/>
	<rect x="736.7668" y="661.5692" width="14.4" height="14.4"/>
	<rect x="751.1667" y="661.5692" width="14.4" height="14.4"/>
	<rect x="779.9668" y="661.5692" width="14.4" height="14.4"/>
	<rect x="304.7668" y="675.9692" width="14.4" height="14.4"/>
	<rect x="362.3668" y="675.9692" width="14.4" height="14.4"/>
	<rect x="391.1668" y="675.9692" width="14.4" height="14.4"/>
	<rect x="448.7668" y="675.9692" width="14.4" height="14.4"/>
	<rect x="520.7668" y="675.9692" width="14.4" height="14.4"/>
	<rect x="578.3668" y="675.9692" width="14.4" height="14.4"/>
	<rect x="592.7668" y="675.9692" width="14.4" height="14.4"/>
	<rect x="664.7668" y="675.9692" width="14.4" height="14.4"/>
	<rect x="765.5668" y="675.9692" width="14.4" height="14.4"/>
	<rect x="779.9668" y="675.9692" width="14.4" height="14.4"/>
	<rect x="794.3668" y="675.9692" width="14.4" height="14.4"/>
	<rect x="290.3668" y="690.3692" width="14.4" height="14.4"/>
	<rect x="347.9668" y="690.3692" width="14.4" height="14.4"/>
	<rect x="391.1668" y="690.3692" width="14.4" height="14.4"/>
	<rect x="448.7668" y="690.3692" width="14.4" height="14.4"/>
	<rect x="463.1668" y="690.3692" width="14.4" height="14.4"/>
	<rect x="520.7668" y="690.3692" width="14.4" height="14.4"/>
	<rect x="578.3668" y="690.3692" width="14.4" height="14.4"/>
	<rect x="607.1667" y="690.3692" width="14.4" height="14.4"/>
	<rect x="664.7668" y="690.3692" width="14.4" height="14.4"/>
	<rect x="794.3668" y="690.3692" width="14.4" height="14.4"/>
	<rect x="275.9668" y="704.7692" width="14.4" height="14.4"/>
	<rect x="319.1668" y="704.7692" width="14.4" height="14.4"/>
	<rect x="333.5668" y="704.7692" width="14.4" height="14.4"/>
	<rect x="376.7668" y="704.7692" width="14.4" height="14.4"/>
	<rect x="434.3668" y="704.7692" width="14.4" height="14.4"/>
	<rect x="463.1668" y="704.7692" width="14.4" height="14.4"/>
	<rect x="506.3668" y="704.7692" width="14.4" height="14.4"/>
	<rect x="535.1667" y="704.7692" width="14.4" height="14.4"/>
	<rect x="578.3668" y="704.7692" width="14.4" height="14.4"/>
	<rect x="621.5668" y="704.7692" width="14.4" height="14.4"/>
	<rect x="679.1667" y="704.7692" width="14.4" height="14.4"/>
	<rect x="275.9668" y="719.1692" width="14.4" height="14.4"/>
	<rect x="304.7668" y="719.1692" width="14.4" height="14.4"/>
	<rect x="376.7668" y="719.1692" width="14.4" height="14.4"/>
	<rect x="419.9668" y="719.1692" width="14.4" height="14.4"/>
	<rect x="463.1668" y="719.1692" width="14.4" height="14.4"/>
	<rect x="506.3668" y="719.1692" width="14.4" height="14.4"/>
	<rect x="535.1667" y="719.1692" width="14.4" height="14.4"/>
	<rect x="592.7668" y="719.1692" width="14.4" height="14.4"/>
	<rect x="635.9668" y="719.1692" width="14.4" height="14.4"/>
	<rect x="650.3668" y="719.1692" width="14.4" height="14.4"/>
	<rect x="679.1667" y="719.1692" width="14.4" height="14.4"/>
	<rect x="261.5668" y="733.5692" width="14.4" height="14.4"/>
	<rect x="290.3668" y="733.5692" width="14.4" height="14.4"/>
	<rect x="376.7668" y="733.5692" width="14.4" height="14.4"/>
	<rect x="419.9668" y="733.5692" width="14.4" height="14.4"/>
	<rect x="463.1668" y="733.5692" width="14.4" height="14.4"/>
	<rect x="506.3668" y="733.5692" width="14.4" height="14.4"/>
	<rect x="549.5668" y="733.5692" width="14.4" height="14.4"/>
	<rect x="592.7668" y="733.5692" width="14.4" height="14.4"/>
	<rect x="664.7668" y="733.5692" width="14.4" height="14.4"/>
	<rect x="693.5668" y="733.5692" width="14.4" height="14.4"/>
	<rect x="247.1668" y="747.9692" width="14.4" height="14.4"/>
	<rect x="275.9668" y="747.9692" width="14.4" height="14.4"/>
	<rect x="376.7668" y="747.9692" width="14.4" height="14.4"/>
	<rect x="405.5668" y="747.9692" width="14.4" height="14.4"/>
	<rect x="463.1668" y="747.9692" width="14.4" height="14.4"/>
	<rect x="506.3668" y="747.9692" width="14.4" height="14.4"/>
	<rect x="549.5668" y="747.9692" width="14.4" height="14.4"/>
	<rect x="592.7668" y="747.9692" width="14.4" height="14.4"/>
	<rect x="679.1667" y="747.9692" width="14.4" height="14.4"/>
	<rect x="693.5668" y="747.9692" width="14.4" height="14.4"/>
	<rect x="247.1668" y="762.3692" width="14.4" height="14.4"/>
	<rect x="261.5668" y="762.3692" width="14.4" height="14.4"/>
	<rect x="362.3668" y="762.3692" width="14.4" height="14.4"/>
	<rect x="405.5668" y="762.3692" width="14.4" height="14.4"/>
	<rect x="463.1668" y="762.3692" width="14.4" height="14.4"/>
	<rect x="491.9668" y="762.3692" width="14.4" height="14.4"/>
	<rect x="563.9668" y="762.3692" width="14.4" height="14.4"/>
	<rect x="592.7668" y="762.3692" width="14.4" height="14.4"/>
	<rect x="693.5668" y="762.3692" width="14.4" height="14.4"/>
	<rect x="707.9668" y="762.3692" width="14.4" height="14.4"/>
	<rect x="362.3668" y="776.7692" width="14.4" height="14.4"/>
	<rect x="391.1668" y="776.7692" width="14.4" height="14.4"/>
	<rect x="463.1668" y="776.7692" width="14.4" height="14.4"/>
	<rect x="491.9668" y="776.7692" width="14.4" height="14.4"/>
	<rect x="563.9668" y="776.7692" width="14.4" height="14.4"/>
	<rect x="592.7668" y="776.7692" width="14.4" height="14.4"/>
	<rect x="707.9668" y="776.7692" width="14.4" height="14.4"/>
	<rect x="362.3668" y="791.1692" width="14.4" height="14.4"/>
	<rect x="376.7668" y="791.1692" width="14.4" height="14.4"/>
	<rect x="463.1668" y="791.1692" width="14.4" height="14.4"/>
	<rect x="491.9668" y="791.1692" width="14.4" height="14.4"/>
	<rect x="578.3668" y="791.1692" width="14.4" height="14.4"/>
	<rect x="592.7668" y="791.1692" width="14.4" height="14.4"/>
	<rect x="362.3668" y="805.5692" width="14.4" height="14.4"/>
	<rect x="376.7668" y="805.5692" width="14.4" height="14.4"/>
	<rect x="477.5668" y="805.5692" width="14.4" height="14.4"/>
	<rect x="491.9668" y="805.5692" width="14.4" height="14.4"/>
	<rect x="578.3668" y="805.5692" width="14.4" height="14.4"/>
	<rect x="592.7668" y="805.5692" width="14.4" height="14.4"/>
	<rect x="362.3668" y="819.9692" width="14.4" height="14.4"/>
	<rect x="477.5668" y="819.9692" width="14.4" height="14.4"/>
	<rect x="491.9668" y="819.9692" width="14.4" height="14.4"/>
	<rect x="592.7668" y="819.9692" width="14.4" height="14.4"/>
	<rect x="607.1667" y="819.9692" width="14.4" height="14.4"/>
	<rect x="477.5668" y="834.3692" width="14.4" height="14.4"/>
	<rect x="592.7668" y="834.3692" width="14.4" height="14.4"/>
	<rect x="607.1667" y="834.3692" width="14.4" height="14.4"/>
	<rect x="477.5668" y="848.7692" width="14.4" height="14.4"/>
</g>
</svg>
