<?xml version="1.0" encoding="utf-8"?>
<!-- Generator: Adobe Illustrator 27.0.0, SVG Export Plug-In . SVG Version: 6.00 Build 0)  -->
<svg version="1.1" id="Layer_1" xmlns="http://www.w3.org/2000/svg" xmlns:xlink="http://www.w3.org/1999/xlink" x="0px" y="0px"
	 viewBox="0 0 1000 1000" style="enable-background:new 0 0 1000 1000;" xml:space="preserve">
<g>
	<rect x="621.7932" y="255.0073" width="12" height="12"/>
	<rect x="633.7932" y="255.0073" width="12" height="12"/>
	<rect x="645.7932" y="255.0073" width="12" height="12"/>
	<rect x="657.7932" y="255.0073" width="12" height="12"/>
	<rect x="669.7932" y="255.0073" width="12" height="12"/>
	<rect x="681.7932" y="255.0073" width="12" height="12"/>
	<rect x="693.7932" y="255.0073" width="12" height="12"/>
	<rect x="705.7932" y="255.0073" width="12" height="12"/>
	<rect x="717.7932" y="255.0073" width="12" height="12"/>
	<rect x="729.7932" y="255.0073" width="12" height="12"/>
	<rect x="741.7932" y="255.0073" width="12" height="12"/>
	<rect x="753.7932" y="255.0073" width="12" height="12"/>
	<rect x="765.7932" y="255.0073" width="12" height="12"/>
	<rect x="573.7932" y="267.0073" width="12" height="12"/>
	<rect x="585.7932" y="267.0073" width="12" height="12"/>
	<rect x="597.7932" y="267.0073" width="12" height="12"/>
	<rect x="609.7932" y="267.0073" width="12" height="12"/>
	<rect x="621.7932" y="267.0073" width="12" height="12"/>
	<rect x="633.7932" y="267.0073" width="12" height="12"/>
	<rect x="645.7932" y="267.0073" width="12" height="12"/>
	<rect x="657.7932" y="267.0073" width="12" height="12"/>
	<rect x="669.7932" y="267.0073" width="12" height="12"/>
	<rect x="681.7932" y="267.0073" width="12" height="12"/>
	<rect x="693.7932" y="267.0073" width="12" height="12"/>
	<rect x="705.7932" y="267.0073" width="12" height="12"/>
	<rect x="717.7932" y="267.0073" width="12" height="12"/>
	<rect x="729.7932" y="267.0073" width="12" height="12"/>
	<rect x="741.7932" y="267.0073" width="12" height="12"/>
	<rect x="753.7932" y="267.0073" width="12" height="12"/>
	<rect x="765.7932" y="267.0073" width="12" height="12"/>
	<rect x="777.7932" y="267.0073" width="12" height="12"/>
	<rect x="789.7932" y="267.0073" width="12" height="12"/>
	<rect x="537.7932" y="279.0073" width="12" height="12"/>
	<rect x="549.7932" y="279.0073" width="12" height="12"/>
	<rect x="561.7932" y="279.0073" width="12" height="12"/>
	<rect x="573.7932" y="279.0073" width="12" height="12"/>
	<rect x="585.7932" y="279.0073" width="12" height="12"/>
	<rect x="597.7932" y="279.0073" width="12" height="12"/>
	<rect x="609.7932" y="279.0073" width="12" height="12"/>
	<rect x="621.7932" y="279.0073" width="12" height="12"/>
	<rect x="765.7932" y="279.0073" width="12" height="12"/>
	<rect x="777.7932" y="279.0073" width="12" height="12"/>
	<rect x="789.7932" y="279.0073" width="12" height="12"/>
	<rect x="801.7932" y="279.0073" width="12" height="12"/>
	<rect x="501.7932" y="291.0073" width="12" height="12"/>
	<rect x="513.7932" y="291.0073" width="12" height="12"/>
	<rect x="525.7932" y="291.0073" width="12" height="12"/>
	<rect x="537.7932" y="291.0073" width="12" height="12"/>
	<rect x="549.7932" y="291.0073" width="12" height="12"/>
	<rect x="561.7932" y="291.0073" width="12" height="12"/>
	<rect x="573.7932" y="291.0073" width="12" height="12"/>
	<rect x="789.7932" y="291.0073" width="12" height="12"/>
	<rect x="801.7932" y="291.0073" width="12" height="12"/>
	<rect x="813.7932" y="291.0073" width="12" height="12"/>
	<rect x="477.7932" y="303.0073" width="12" height="12"/>
	<rect x="489.7932" y="303.0073" width="12" height="12"/>
	<rect x="501.7932" y="303.0073" width="12" height="12"/>
	<rect x="513.7932" y="303.0073" width="12" height="12"/>
	<rect x="525.7932" y="303.0073" width="12" height="12"/>
	<rect x="537.7932" y="303.0073" width="12" height="12"/>
	<rect x="801.7932" y="303.0073" width="12" height="12"/>
	<rect x="813.7932" y="303.0073" width="12" height="12"/>
	<rect x="825.7932" y="303.0073" width="12" height="12"/>
	<rect x="453.7932" y="315.0073" width="12" height="12"/>
	<rect x="465.7932" y="315.0073" width="12" height="12"/>
	<rect x="477.7932" y="315.0073" width="12" height="12"/>
	<rect x="489.7932" y="315.0073" width="12" height="12"/>
	<rect x="501.7932" y="315.0073" width="12" height="12"/>
	<rect x="813.7932" y="315.0073" width="12" height="12"/>
	<rect x="825.7932" y="315.0073" width="12" height="12"/>
	<rect x="429.7932" y="327.0073" width="12" height="12"/>
	<rect x="441.7932" y="327.0073" width="12" height="12"/>
	<rect x="453.7932" y="327.0073" width="12" height="12"/>
	<rect x="465.7932" y="327.0073" width="12" height="12"/>
	<rect x="477.7932" y="327.0073" width="12" height="12"/>
	<rect x="813.7932" y="327.0073" width="12" height="12"/>
	<rect x="825.7932" y="327.0073" width="12" height="12"/>
	<rect x="405.7932" y="339.0073" width="12" height="12"/>
	<rect x="417.7932" y="339.0073" width="12" height="12"/>
	<rect x="429.7932" y="339.0073" width="12" height="12"/>
	<rect x="441.7932" y="339.0073" width="12" height="12"/>
	<rect x="453.7932" y="339.0073" width="12" height="12"/>
	<rect x="813.7932" y="339.0073" width="12" height="12"/>
	<rect x="825.7932" y="339.0073" width="12" height="12"/>
	<rect x="381.7932" y="351.0073" width="12" height="12"/>
	<rect x="393.7932" y="351.0073" width="12" height="12"/>
	<rect x="405.7932" y="351.0073" width="12" height="12"/>
	<rect x="417.7932" y="351.0073" width="12" height="12"/>
	<rect x="429.7932" y="351.0073" width="12" height="12"/>
	<rect x="813.7932" y="351.0073" width="12" height="12"/>
	<rect x="825.7932" y="351.0073" width="12" height="12"/>
	<rect x="369.7932" y="363.0073" width="12" height="12"/>
	<rect x="381.7932" y="363.0073" width="12" height="12"/>
	<rect x="393.7932" y="363.0073" width="12" height="12"/>
	<rect x="405.7932" y="363.0073" width="12" height="12"/>
	<rect x="813.7932" y="363.0073" width="12" height="12"/>
	<rect x="825.7932" y="363.0073" width="12" height="12"/>
	<rect x="345.7932" y="375.0073" width="12" height="12"/>
	<rect x="357.7932" y="375.0073" width="12" height="12"/>
	<rect x="369.7932" y="375.0073" width="12" height="12"/>
	<rect x="381.7932" y="375.0073" width="12" height="12"/>
	<rect x="813.7932" y="375.0073" width="12" height="12"/>
	<rect x="825.7932" y="375.0073" width="12" height="12"/>
	<rect x="333.7932" y="387.0073" width="12" height="12"/>
	<rect x="345.7932" y="387.0073" width="12" height="12"/>
	<rect x="357.7932" y="387.0073" width="12" height="12"/>
	<rect x="369.7932" y="387.0073" width="12" height="12"/>
	<rect x="801.7932" y="387.0073" width="12" height="12"/>
	<rect x="813.7932" y="387.0073" width="12" height="12"/>
	<rect x="825.7932" y="387.0073" width="12" height="12"/>
	<rect x="309.7932" y="399.0073" width="12" height="12"/>
	<rect x="321.7932" y="399.0073" width="12" height="12"/>
	<rect x="333.7932" y="399.0073" width="12" height="12"/>
	<rect x="345.7932" y="399.0073" width="12" height="12"/>
	<rect x="801.7932" y="399.0073" width="12" height="12"/>
	<rect x="813.7932" y="399.0073" width="12" height="12"/>
	<rect x="825.7932" y="399.0073" width="12" height="12"/>
	<rect x="297.7932" y="411.0073" width="12" height="12"/>
	<rect x="309.7932" y="411.0073" width="12" height="12"/>
	<rect x="321.7932" y="411.0073" width="12" height="12"/>
	<rect x="333.7932" y="411.0073" width="12" height="12"/>
	<rect x="789.7932" y="411.0073" width="12" height="12"/>
	<rect x="801.7932" y="411.0073" width="12" height="12"/>
	<rect x="813.7932" y="411.0073" width="12" height="12"/>
	<rect x="285.7932" y="423.0073" width="12" height="12"/>
	<rect x="297.7932" y="423.0073" width="12" height="12"/>
	<rect x="309.7932" y="423.0073" width="12" height="12"/>
	<rect x="321.7932" y="423.0073" width="12" height="12"/>
	<rect x="789.7932" y="423.0073" width="12" height="12"/>
	<rect x="801.7932" y="423.0073" width="12" height="12"/>
	<rect x="813.7932" y="423.0073" width="12" height="12"/>
	<rect x="273.7932" y="435.0073" width="12" height="12"/>
	<rect x="285.7932" y="435.0073" width="12" height="12"/>
	<rect x="297.7932" y="435.0073" width="12" height="12"/>
	<rect x="777.7932" y="435.0073" width="12" height="12"/>
	<rect x="789.7932" y="435.0073" width="12" height="12"/>
	<rect x="801.7932" y="435.0073" width="12" height="12"/>
	<rect x="249.7932" y="447.0073" width="12" height="12"/>
	<rect x="261.7932" y="447.0073" width="12" height="12"/>
	<rect x="273.7932" y="447.0073" width="12" height="12"/>
	<rect x="285.7932" y="447.0073" width="12" height="12"/>
	<rect x="777.7932" y="447.0073" width="12" height="12"/>
	<rect x="789.7932" y="447.0073" width="12" height="12"/>
	<rect x="801.7932" y="447.0073" width="12" height="12"/>
	<rect x="237.7932" y="459.0073" width="12" height="12"/>
	<rect x="249.7932" y="459.0073" width="12" height="12"/>
	<rect x="261.7932" y="459.0073" width="12" height="12"/>
	<rect x="273.7932" y="459.0073" width="12" height="12"/>
	<rect x="765.7932" y="459.0073" width="12" height="12"/>
	<rect x="777.7932" y="459.0073" width="12" height="12"/>
	<rect x="789.7932" y="459.0073" width="12" height="12"/>
	<rect x="225.7932" y="471.0073" width="12" height="12"/>
	<rect x="237.7932" y="471.0073" width="12" height="12"/>
	<rect x="249.7932" y="471.0073" width="12" height="12"/>
	<rect x="261.7932" y="471.0073" width="12" height="12"/>
	<rect x="753.7932" y="471.0073" width="12" height="12"/>
	<rect x="765.7932" y="471.0073" width="12" height="12"/>
	<rect x="777.7932" y="471.0073" width="12" height="12"/>
	<rect x="213.7932" y="483.0073" width="12" height="12"/>
	<rect x="225.7932" y="483.0073" width="12" height="12"/>
	<rect x="237.7932" y="483.0073" width="12" height="12"/>
	<rect x="249.7932" y="483.0073" width="12" height="12"/>
	<rect x="741.7932" y="483.0073" width="12" height="12"/>
	<rect x="753.7932" y="483.0073" width="12" height="12"/>
	<rect x="765.7932" y="483.0073" width="12" height="12"/>
	<rect x="213.7932" y="495.0073" width="12" height="12"/>
	<rect x="225.7932" y="495.0073" width="12" height="12"/>
	<rect x="237.7932" y="495.0073" width="12" height="12"/>
	<rect x="729.7932" y="495.0073" width="12" height="12"/>
	<rect x="741.7932" y="495.0073" width="12" height="12"/>
	<rect x="753.7932" y="495.0073" width="12" height="12"/>
	<rect x="765.7932" y="495.0073" width="12" height="12"/>
	<rect x="201.7932" y="507.0073" width="12" height="12"/>
	<rect x="213.7932" y="507.0073" width="12" height="12"/>
	<rect x="225.7932" y="507.0073" width="12" height="12"/>
	<rect x="717.7932" y="507.0073" width="12" height="12"/>
	<rect x="729.7932" y="507.0073" width="12" height="12"/>
	<rect x="741.7932" y="507.0073" width="12" height="12"/>
	<rect x="753.7932" y="507.0073" width="12" height="12"/>
	<rect x="189.7932" y="519.0073" width="12" height="12"/>
	<rect x="201.7932" y="519.0073" width="12" height="12"/>
	<rect x="213.7932" y="519.0073" width="12" height="12"/>
	<rect x="705.7932" y="519.0073" width="12" height="12"/>
	<rect x="717.7932" y="519.0073" width="12" height="12"/>
	<rect x="729.7932" y="519.0073" width="12" height="12"/>
	<rect x="741.7932" y="519.0073" width="12" height="12"/>
	<rect x="177.7932" y="531.0073" width="12" height="12"/>
	<rect x="189.7932" y="531.0073" width="12" height="12"/>
	<rect x="201.7932" y="531.0073" width="12" height="12"/>
	<rect x="693.7932" y="531.0073" width="12" height="12"/>
	<rect x="705.7932" y="531.0073" width="12" height="12"/>
	<rect x="717.7932" y="531.0073" width="12" height="12"/>
	<rect x="729.7932" y="531.0073" width="12" height="12"/>
	<rect x="177.7932" y="543.0073" width="12" height="12"/>
	<rect x="189.7932" y="543.0073" width="12" height="12"/>
	<rect x="681.7932" y="543.0073" width="12" height="12"/>
	<rect x="693.7932" y="543.0073" width="12" height="12"/>
	<rect x="705.7932" y="543.0073" width="12" height="12"/>
	<rect x="717.7932" y="543.0073" width="12" height="12"/>
	<rect x="165.7932" y="555.0073" width="12" height="12"/>
	<rect x="177.7932" y="555.0073" width="12" height="12"/>
	<rect x="189.7932" y="555.0073" width="12" height="12"/>
	<rect x="669.7932" y="555.0073" width="12" height="12"/>
	<rect x="681.7932" y="555.0073" width="12" height="12"/>
	<rect x="693.7932" y="555.0073" width="12" height="12"/>
	<rect x="705.7932" y="555.0073" width="12" height="12"/>
	<rect x="153.7932" y="567.0073" width="12" height="12"/>
	<rect x="165.7932" y="567.0073" width="12" height="12"/>
	<rect x="177.7932" y="567.0073" width="12" height="12"/>
	<rect x="657.7932" y="567.0073" width="12" height="12"/>
	<rect x="669.7932" y="567.0073" width="12" height="12"/>
	<rect x="681.7932" y="567.0073" width="12" height="12"/>
	<rect x="153.7932" y="579.0073" width="12" height="12"/>
	<rect x="165.7932" y="579.0073" width="12" height="12"/>
	<rect x="177.7932" y="579.0073" width="12" height="12"/>
	<rect x="633.7932" y="579.0073" width="12" height="12"/>
	<rect x="645.7932" y="579.0073" width="12" height="12"/>
	<rect x="657.7932" y="579.0073" width="12" height="12"/>
	<rect x="669.7932" y="579.0073" width="12" height="12"/>
	<rect x="153.7932" y="591.0073" width="12" height="12"/>
	<rect x="165.7932" y="591.0073" width="12" height="12"/>
	<rect x="621.7932" y="591.0073" width="12" height="12"/>
	<rect x="633.7932" y="591.0073" width="12" height="12"/>
	<rect x="645.7932" y="591.0073" width="12" height="12"/>
	<rect x="657.7932" y="591.0073" width="12" height="12"/>
	<rect x="141.7932" y="603.0073" width="12" height="12"/>
	<rect x="153.7932" y="603.0073" width="12" height="12"/>
	<rect x="165.7932" y="603.0073" width="12" height="12"/>
	<rect x="597.7932" y="603.0073" width="12" height="12"/>
	<rect x="609.7932" y="603.0073" width="12" height="12"/>
	<rect x="621.7932" y="603.0073" width="12" height="12"/>
	<rect x="633.7932" y="603.0073" width="12" height="12"/>
	<rect x="141.7932" y="615.0073" width="12" height="12"/>
	<rect x="153.7932" y="615.0073" width="12" height="12"/>
	<rect x="585.7932" y="615.0073" width="12" height="12"/>
	<rect x="597.7932" y="615.0073" width="12" height="12"/>
	<rect x="609.7932" y="615.0073" width="12" height="12"/>
	<rect x="621.7932" y="615.0073" width="12" height="12"/>
	<rect x="141.7932" y="627.0073" width="12" height="12"/>
	<rect x="153.7932" y="627.0073" width="12" height="12"/>
	<rect x="561.7932" y="627.0073" width="12" height="12"/>
	<rect x="573.7932" y="627.0073" width="12" height="12"/>
	<rect x="585.7932" y="627.0073" width="12" height="12"/>
	<rect x="597.7932" y="627.0073" width="12" height="12"/>
	<rect x="141.7932" y="639.0073" width="12" height="12"/>
	<rect x="153.7932" y="639.0073" width="12" height="12"/>
	<rect x="537.7932" y="639.0073" width="12" height="12"/>
	<rect x="549.7932" y="639.0073" width="12" height="12"/>
	<rect x="561.7932" y="639.0073" width="12" height="12"/>
	<rect x="573.7932" y="639.0073" width="12" height="12"/>
	<rect x="585.7932" y="639.0073" width="12" height="12"/>
	<rect x="141.7932" y="651.0073" width="12" height="12"/>
	<rect x="153.7932" y="651.0073" width="12" height="12"/>
	<rect x="513.7932" y="651.0073" width="12" height="12"/>
	<rect x="525.7932" y="651.0073" width="12" height="12"/>
	<rect x="537.7932" y="651.0073" width="12" height="12"/>
	<rect x="549.7932" y="651.0073" width="12" height="12"/>
	<rect x="561.7932" y="651.0073" width="12" height="12"/>
	<rect x="141.7932" y="663.0073" width="12" height="12"/>
	<rect x="153.7932" y="663.0073" width="12" height="12"/>
	<rect x="489.7932" y="663.0073" width="12" height="12"/>
	<rect x="501.7932" y="663.0073" width="12" height="12"/>
	<rect x="513.7932" y="663.0073" width="12" height="12"/>
	<rect x="525.7932" y="663.0073" width="12" height="12"/>
	<rect x="537.7932" y="663.0073" width="12" height="12"/>
	<rect x="141.7932" y="675.0073" width="12" height="12"/>
	<rect x="153.7932" y="675.0073" width="12" height="12"/>
	<rect x="465.7932" y="675.0073" width="12" height="12"/>
	<rect x="477.7932" y="675.0073" width="12" height="12"/>
	<rect x="489.7932" y="675.0073" width="12" height="12"/>
	<rect x="501.7932" y="675.0073" width="12" height="12"/>
	<rect x="513.7932" y="675.0073" width="12" height="12"/>
	<rect x="141.7932" y="687.0073" width="12" height="12"/>
	<rect x="153.7932" y="687.0073" width="12" height="12"/>
	<rect x="165.7932" y="687.0073" width="12" height="12"/>
	<rect x="429.7932" y="687.0073" width="12" height="12"/>
	<rect x="441.7932" y="687.0073" width="12" height="12"/>
	<rect x="453.7932" y="687.0073" width="12" height="12"/>
	<rect x="465.7932" y="687.0073" width="12" height="12"/>
	<rect x="477.7932" y="687.0073" width="12" height="12"/>
	<rect x="489.7932" y="687.0073" width="12" height="12"/>
	<rect x="153.7932" y="699.0073" width="12" height="12"/>
	<rect x="165.7932" y="699.0073" width="12" height="12"/>
	<rect x="177.7932" y="699.0073" width="12" height="12"/>
	<rect x="393.7932" y="699.0073" width="12" height="12"/>
	<rect x="405.7932" y="699.0073" width="12" height="12"/>
	<rect x="417.7932" y="699.0073" width="12" height="12"/>
	<rect x="429.7932" y="699.0073" width="12" height="12"/>
	<rect x="441.7932" y="699.0073" width="12" height="12"/>
	<rect x="453.7932" y="699.0073" width="12" height="12"/>
	<rect x="465.7932" y="699.0073" width="12" height="12"/>
	<rect x="165.7932" y="711.0073" width="12" height="12"/>
	<rect x="177.7932" y="711.0073" width="12" height="12"/>
	<rect x="189.7932" y="711.0073" width="12" height="12"/>
	<rect x="201.7932" y="711.0073" width="12" height="12"/>
	<rect x="345.7932" y="711.0073" width="12" height="12"/>
	<rect x="357.7932" y="711.0073" width="12" height="12"/>
	<rect x="369.7932" y="711.0073" width="12" height="12"/>
	<rect x="381.7932" y="711.0073" width="12" height="12"/>
	<rect x="393.7932" y="711.0073" width="12" height="12"/>
	<rect x="405.7932" y="711.0073" width="12" height="12"/>
	<rect x="417.7932" y="711.0073" width="12" height="12"/>
	<rect x="429.7932" y="711.0073" width="12" height="12"/>
	<rect x="177.7932" y="723.0073" width="12" height="12"/>
	<rect x="189.7932" y="723.0073" width="12" height="12"/>
	<rect x="201.7932" y="723.0073" width="12" height="12"/>
	<rect x="213.7932" y="723.0073" width="12" height="12"/>
	<rect x="225.7932" y="723.0073" width="12" height="12"/>
	<rect x="237.7932" y="723.0073" width="12" height="12"/>
	<rect x="249.7932" y="723.0073" width="12" height="12"/>
	<rect x="261.7932" y="723.0073" width="12" height="12"/>
	<rect x="273.7932" y="723.0073" width="12" height="12"/>
	<rect x="285.7932" y="723.0073" width="12" height="12"/>
	<rect x="297.7932" y="723.0073" width="12" height="12"/>
	<rect x="309.7932" y="723.0073" width="12" height="12"/>
	<rect x="321.7932" y="723.0073" width="12" height="12"/>
	<rect x="333.7932" y="723.0073" width="12" height="12"/>
	<rect x="345.7932" y="723.0073" width="12" height="12"/>
	<rect x="357.7932" y="723.0073" width="12" height="12"/>
	<rect x="369.7932" y="723.0073" width="12" height="12"/>
	<rect x="381.7932" y="723.0073" width="12" height="12"/>
	<rect x="393.7932" y="723.0073" width="12" height="12"/>
	<rect x="201.7932" y="735.0073" width="12" height="12"/>
	<rect x="213.7932" y="735.0073" width="12" height="12"/>
	<rect x="225.7932" y="735.0073" width="12" height="12"/>
	<rect x="237.7932" y="735.0073" width="12" height="12"/>
	<rect x="249.7932" y="735.0073" width="12" height="12"/>
	<rect x="261.7932" y="735.0073" width="12" height="12"/>
	<rect x="273.7932" y="735.0073" width="12" height="12"/>
	<rect x="285.7932" y="735.0073" width="12" height="12"/>
	<rect x="297.7932" y="735.0073" width="12" height="12"/>
	<rect x="309.7932" y="735.0073" width="12" height="12"/>
	<rect x="321.7932" y="735.0073" width="12" height="12"/>
	<rect x="333.7932" y="735.0073" width="12" height="12"/>
	<rect x="345.7932" y="735.0073" width="12" height="12"/>
</g>
<g>
	<rect x="449.2069" y="112.1316" width="12" height="12"/>
	<rect x="461.2069" y="112.1316" width="12" height="12"/>
	<rect x="473.2069" y="112.1316" width="12" height="12"/>
	<rect x="485.2069" y="112.1316" width="12" height="12"/>
	<rect x="497.2069" y="112.1316" width="12" height="12"/>
	<rect x="509.2069" y="112.1316" width="12" height="12"/>
	<rect x="521.2069" y="112.1316" width="12" height="12"/>
	<rect x="425.2069" y="124.1316" width="12" height="12"/>
	<rect x="437.2069" y="124.1316" width="12" height="12"/>
	<rect x="449.2069" y="124.1316" width="12" height="12"/>
	<rect x="461.2069" y="124.1316" width="12" height="12"/>
	<rect x="473.2069" y="124.1316" width="12" height="12"/>
	<rect x="485.2069" y="124.1316" width="12" height="12"/>
	<rect x="497.2069" y="124.1316" width="12" height="12"/>
	<rect x="509.2069" y="124.1316" width="12" height="12"/>
	<rect x="521.2069" y="124.1316" width="12" height="12"/>
	<rect x="533.2069" y="124.1316" width="12" height="12"/>
	<rect x="545.2069" y="124.1316" width="12" height="12"/>
	<rect x="413.2069" y="136.1316" width="12" height="12"/>
	<rect x="425.2069" y="136.1316" width="12" height="12"/>
	<rect x="437.2069" y="136.1316" width="12" height="12"/>
	<rect x="449.2069" y="136.1316" width="12" height="12"/>
	<rect x="521.2069" y="136.1316" width="12" height="12"/>
	<rect x="533.2069" y="136.1316" width="12" height="12"/>
	<rect x="545.2069" y="136.1316" width="12" height="12"/>
	<rect x="557.2069" y="136.1316" width="12" height="12"/>
	<rect x="401.2069" y="148.1316" width="12" height="12"/>
	<rect x="413.2069" y="148.1316" width="12" height="12"/>
	<rect x="425.2069" y="148.1316" width="12" height="12"/>
	<rect x="437.2069" y="148.1316" width="12" height="12"/>
	<rect x="533.2069" y="148.1316" width="12" height="12"/>
	<rect x="545.2069" y="148.1316" width="12" height="12"/>
	<rect x="557.2069" y="148.1316" width="12" height="12"/>
	<rect x="569.2069" y="148.1316" width="12" height="12"/>
	<rect x="389.2069" y="160.1316" width="12" height="12"/>
	<rect x="401.2069" y="160.1316" width="12" height="12"/>
	<rect x="413.2069" y="160.1316" width="12" height="12"/>
	<rect x="425.2069" y="160.1316" width="12" height="12"/>
	<rect x="545.2069" y="160.1316" width="12" height="12"/>
	<rect x="557.2069" y="160.1316" width="12" height="12"/>
	<rect x="569.2069" y="160.1316" width="12" height="12"/>
	<rect x="389.2069" y="172.1316" width="12" height="12"/>
	<rect x="401.2069" y="172.1316" width="12" height="12"/>
	<rect x="413.2069" y="172.1316" width="12" height="12"/>
	<rect x="557.2069" y="172.1316" width="12" height="12"/>
	<rect x="569.2069" y="172.1316" width="12" height="12"/>
	<rect x="581.2069" y="172.1316" width="12" height="12"/>
	<rect x="377.2069" y="184.1316" width="12" height="12"/>
	<rect x="389.2069" y="184.1316" width="12" height="12"/>
	<rect x="401.2069" y="184.1316" width="12" height="12"/>
	<rect x="569.2069" y="184.1316" width="12" height="12"/>
	<rect x="581.2069" y="184.1316" width="12" height="12"/>
	<rect x="593.2069" y="184.1316" width="12" height="12"/>
	<rect x="377.2069" y="196.1316" width="12" height="12"/>
	<rect x="389.2069" y="196.1316" width="12" height="12"/>
	<rect x="569.2069" y="196.1316" width="12" height="12"/>
	<rect x="581.2069" y="196.1316" width="12" height="12"/>
	<rect x="593.2069" y="196.1316" width="12" height="12"/>
	<rect x="365.2069" y="208.1316" width="12" height="12"/>
	<rect x="377.2069" y="208.1316" width="12" height="12"/>
	<rect x="389.2069" y="208.1316" width="12" height="12"/>
	<rect x="581.2069" y="208.1316" width="12" height="12"/>
	<rect x="593.2069" y="208.1316" width="12" height="12"/>
	<rect x="605.2069" y="208.1316" width="12" height="12"/>
	<rect x="365.2069" y="220.1316" width="12" height="12"/>
	<rect x="377.2069" y="220.1316" width="12" height="12"/>
	<rect x="581.2069" y="220.1316" width="12" height="12"/>
	<rect x="593.2069" y="220.1316" width="12" height="12"/>
	<rect x="605.2069" y="220.1316" width="12" height="12"/>
	<rect x="353.2069" y="232.1316" width="12" height="12"/>
	<rect x="365.2069" y="232.1316" width="12" height="12"/>
	<rect x="377.2069" y="232.1316" width="12" height="12"/>
	<rect x="593.2069" y="232.1316" width="12" height="12"/>
	<rect x="605.2069" y="232.1316" width="12" height="12"/>
	<rect x="617.2069" y="232.1316" width="12" height="12"/>
	<rect x="353.2069" y="244.1316" width="12" height="12"/>
	<rect x="365.2069" y="244.1316" width="12" height="12"/>
	<rect x="593.2069" y="244.1316" width="12" height="12"/>
	<rect x="605.2069" y="244.1316" width="12" height="12"/>
	<rect x="617.2069" y="244.1316" width="12" height="12"/>
	<rect x="353.2069" y="256.1316" width="12" height="12"/>
	<rect x="365.2069" y="256.1316" width="12" height="12"/>
	<rect x="605.2069" y="256.1316" width="12" height="12"/>
	<rect x="617.2069" y="256.1316" width="12" height="12"/>
	<rect x="341.2069" y="268.1316" width="12" height="12"/>
	<rect x="353.2069" y="268.1316" width="12" height="12"/>
	<rect x="365.2069" y="268.1316" width="12" height="12"/>
	<rect x="605.2069" y="268.1316" width="12" height="12"/>
	<rect x="617.2069" y="268.1316" width="12" height="12"/>
	<rect x="629.2069" y="268.1316" width="12" height="12"/>
	<rect x="341.2069" y="280.1316" width="12" height="12"/>
	<rect x="353.2069" y="280.1316" width="12" height="12"/>
	<rect x="605.2069" y="280.1316" width="12" height="12"/>
	<rect x="617.2069" y="280.1316" width="12" height="12"/>
	<rect x="629.2069" y="280.1316" width="12" height="12"/>
	<rect x="341.2069" y="292.1316" width="12" height="12"/>
	<rect x="353.2069" y="292.1316" width="12" height="12"/>
	<rect x="617.2069" y="292.1316" width="12" height="12"/>
	<rect x="629.2069" y="292.1316" width="12" height="12"/>
	<rect x="329.2069" y="304.1316" width="12" height="12"/>
	<rect x="341.2069" y="304.1316" width="12" height="12"/>
	<rect x="353.2069" y="304.1316" width="12" height="12"/>
	<rect x="617.2069" y="304.1316" width="12" height="12"/>
	<rect x="629.2069" y="304.1316" width="12" height="12"/>
	<rect x="329.2069" y="316.1316" width="12" height="12"/>
	<rect x="341.2069" y="316.1316" width="12" height="12"/>
	<rect x="353.2069" y="316.1316" width="12" height="12"/>
	<rect x="617.2069" y="316.1316" width="12" height="12"/>
	<rect x="629.2069" y="316.1316" width="12" height="12"/>
	<rect x="641.2069" y="316.1316" width="12" height="12"/>
	<rect x="329.2069" y="328.1316" width="12" height="12"/>
	<rect x="341.2069" y="328.1316" width="12" height="12"/>
	<rect x="629.2069" y="328.1316" width="12" height="12"/>
	<rect x="641.2069" y="328.1316" width="12" height="12"/>
	<rect x="329.2069" y="340.1316" width="12" height="12"/>
	<rect x="341.2069" y="340.1316" width="12" height="12"/>
	<rect x="629.2069" y="340.1316" width="12" height="12"/>
	<rect x="641.2069" y="340.1316" width="12" height="12"/>
	<rect x="329.2069" y="352.1316" width="12" height="12"/>
	<rect x="341.2069" y="352.1316" width="12" height="12"/>
	<rect x="629.2069" y="352.1316" width="12" height="12"/>
	<rect x="641.2069" y="352.1316" width="12" height="12"/>
	<rect x="329.2069" y="364.1316" width="12" height="12"/>
	<rect x="341.2069" y="364.1316" width="12" height="12"/>
	<rect x="629.2069" y="364.1316" width="12" height="12"/>
	<rect x="641.2069" y="364.1316" width="12" height="12"/>
	<rect x="317.2069" y="376.1316" width="12" height="12"/>
	<rect x="329.2069" y="376.1316" width="12" height="12"/>
	<rect x="341.2069" y="376.1316" width="12" height="12"/>
	<rect x="629.2069" y="376.1316" width="12" height="12"/>
	<rect x="641.2069" y="376.1316" width="12" height="12"/>
	<rect x="317.2069" y="388.1316" width="12" height="12"/>
	<rect x="329.2069" y="388.1316" width="12" height="12"/>
	<rect x="629.2069" y="388.1316" width="12" height="12"/>
	<rect x="641.2069" y="388.1316" width="12" height="12"/>
	<rect x="653.2069" y="388.1316" width="12" height="12"/>
	<rect x="317.2069" y="400.1316" width="12" height="12"/>
	<rect x="329.2069" y="400.1316" width="12" height="12"/>
	<rect x="641.2069" y="400.1316" width="12" height="12"/>
	<rect x="653.2069" y="400.1316" width="12" height="12"/>
	<rect x="317.2069" y="412.1316" width="12" height="12"/>
	<rect x="329.2069" y="412.1316" width="12" height="12"/>
	<rect x="641.2069" y="412.1316" width="12" height="12"/>
	<rect x="653.2069" y="412.1316" width="12" height="12"/>
	<rect x="317.2069" y="424.1316" width="12" height="12"/>
	<rect x="329.2069" y="424.1316" width="12" height="12"/>
	<rect x="641.2069" y="424.1316" width="12" height="12"/>
	<rect x="653.2069" y="424.1316" width="12" height="12"/>
	<rect x="317.2069" y="436.1316" width="12" height="12"/>
	<rect x="329.2069" y="436.1316" width="12" height="12"/>
	<rect x="641.2069" y="436.1316" width="12" height="12"/>
	<rect x="653.2069" y="436.1316" width="12" height="12"/>
	<rect x="317.2069" y="448.1316" width="12" height="12"/>
	<rect x="329.2069" y="448.1316" width="12" height="12"/>
	<rect x="641.2069" y="448.1316" width="12" height="12"/>
	<rect x="653.2069" y="448.1316" width="12" height="12"/>
	<rect x="317.2069" y="460.1316" width="12" height="12"/>
	<rect x="329.2069" y="460.1316" width="12" height="12"/>
	<rect x="641.2069" y="460.1316" width="12" height="12"/>
	<rect x="653.2069" y="460.1316" width="12" height="12"/>
	<rect x="317.2069" y="472.1316" width="12" height="12"/>
	<rect x="329.2069" y="472.1316" width="12" height="12"/>
	<rect x="641.2069" y="472.1316" width="12" height="12"/>
	<rect x="653.2069" y="472.1316" width="12" height="12"/>
	<rect x="317.2069" y="484.1316" width="12" height="12"/>
	<rect x="329.2069" y="484.1316" width="12" height="12"/>
	<rect x="641.2069" y="484.1316" width="12" height="12"/>
	<rect x="653.2069" y="484.1316" width="12" height="12"/>
	<rect x="317.2069" y="496.1316" width="12" height="12"/>
	<rect x="329.2069" y="496.1316" width="12" height="12"/>
	<rect x="641.2069" y="496.1316" width="12" height="12"/>
	<rect x="653.2069" y="496.1316" width="12" height="12"/>
	<rect x="317.2069" y="508.1316" width="12" height="12"/>
	<rect x="329.2069" y="508.1316" width="12" height="12"/>
	<rect x="641.2069" y="508.1316" width="12" height="12"/>
	<rect x="653.2069" y="508.1316" width="12" height="12"/>
	<rect x="317.2069" y="520.1316" width="12" height="12"/>
	<rect x="329.2069" y="520.1316" width="12" height="12"/>
	<rect x="641.2069" y="520.1316" width="12" height="12"/>
	<rect x="653.2069" y="520.1316" width="12" height="12"/>
	<rect x="317.2069" y="532.1316" width="12" height="12"/>
	<rect x="329.2069" y="532.1316" width="12" height="12"/>
	<rect x="641.2069" y="532.1316" width="12" height="12"/>
	<rect x="653.2069" y="532.1316" width="12" height="12"/>
	<rect x="317.2069" y="544.1316" width="12" height="12"/>
	<rect x="329.2069" y="544.1316" width="12" height="12"/>
	<rect x="641.2069" y="544.1316" width="12" height="12"/>
	<rect x="653.2069" y="544.1316" width="12" height="12"/>
	<rect x="317.2069" y="556.1316" width="12" height="12"/>
	<rect x="329.2069" y="556.1316" width="12" height="12"/>
	<rect x="641.2069" y="556.1316" width="12" height="12"/>
	<rect x="653.2069" y="556.1316" width="12" height="12"/>
	<rect x="317.2069" y="568.1316" width="12" height="12"/>
	<rect x="329.2069" y="568.1316" width="12" height="12"/>
	<rect x="641.2069" y="568.1316" width="12" height="12"/>
	<rect x="653.2069" y="568.1316" width="12" height="12"/>
	<rect x="317.2069" y="580.1316" width="12" height="12"/>
	<rect x="329.2069" y="580.1316" width="12" height="12"/>
	<rect x="641.2069" y="580.1316" width="12" height="12"/>
	<rect x="653.2069" y="580.1316" width="12" height="12"/>
	<rect x="317.2069" y="592.1316" width="12" height="12"/>
	<rect x="329.2069" y="592.1316" width="12" height="12"/>
	<rect x="641.2069" y="592.1316" width="12" height="12"/>
	<rect x="653.2069" y="592.1316" width="12" height="12"/>
	<rect x="317.2069" y="604.1316" width="12" height="12"/>
	<rect x="329.2069" y="604.1316" width="12" height="12"/>
	<rect x="629.2069" y="604.1316" width="12" height="12"/>
	<rect x="641.2069" y="604.1316" width="12" height="12"/>
	<rect x="653.2069" y="604.1316" width="12" height="12"/>
	<rect x="317.2069" y="616.1316" width="12" height="12"/>
	<rect x="329.2069" y="616.1316" width="12" height="12"/>
	<rect x="341.2069" y="616.1316" width="12" height="12"/>
	<rect x="629.2069" y="616.1316" width="12" height="12"/>
	<rect x="641.2069" y="616.1316" width="12" height="12"/>
	<rect x="329.2069" y="628.1316" width="12" height="12"/>
	<rect x="341.2069" y="628.1316" width="12" height="12"/>
	<rect x="629.2069" y="628.1316" width="12" height="12"/>
	<rect x="641.2069" y="628.1316" width="12" height="12"/>
	<rect x="329.2069" y="640.1316" width="12" height="12"/>
	<rect x="341.2069" y="640.1316" width="12" height="12"/>
	<rect x="629.2069" y="640.1316" width="12" height="12"/>
	<rect x="641.2069" y="640.1316" width="12" height="12"/>
	<rect x="329.2069" y="652.1316" width="12" height="12"/>
	<rect x="341.2069" y="652.1316" width="12" height="12"/>
	<rect x="629.2069" y="652.1316" width="12" height="12"/>
	<rect x="641.2069" y="652.1316" width="12" height="12"/>
	<rect x="329.2069" y="664.1316" width="12" height="12"/>
	<rect x="341.2069" y="664.1316" width="12" height="12"/>
	<rect x="617.2069" y="664.1316" width="12" height="12"/>
	<rect x="629.2069" y="664.1316" width="12" height="12"/>
	<rect x="641.2069" y="664.1316" width="12" height="12"/>
	<rect x="329.2069" y="676.1316" width="12" height="12"/>
	<rect x="341.2069" y="676.1316" width="12" height="12"/>
	<rect x="353.2069" y="676.1316" width="12" height="12"/>
	<rect x="617.2069" y="676.1316" width="12" height="12"/>
	<rect x="629.2069" y="676.1316" width="12" height="12"/>
	<rect x="641.2069" y="676.1316" width="12" height="12"/>
	<rect x="341.2069" y="688.1316" width="12" height="12"/>
	<rect x="353.2069" y="688.1316" width="12" height="12"/>
	<rect x="617.2069" y="688.1316" width="12" height="12"/>
	<rect x="629.2069" y="688.1316" width="12" height="12"/>
	<rect x="341.2069" y="700.1316" width="12" height="12"/>
	<rect x="353.2069" y="700.1316" width="12" height="12"/>
	<rect x="617.2069" y="700.1316" width="12" height="12"/>
	<rect x="629.2069" y="700.1316" width="12" height="12"/>
	<rect x="341.2069" y="712.1316" width="12" height="12"/>
	<rect x="353.2069" y="712.1316" width="12" height="12"/>
	<rect x="605.2069" y="712.1316" width="12" height="12"/>
	<rect x="617.2069" y="712.1316" width="12" height="12"/>
	<rect x="629.2069" y="712.1316" width="12" height="12"/>
	<rect x="341.2069" y="724.1316" width="12" height="12"/>
	<rect x="353.2069" y="724.1316" width="12" height="12"/>
	<rect x="365.2069" y="724.1316" width="12" height="12"/>
	<rect x="605.2069" y="724.1316" width="12" height="12"/>
	<rect x="617.2069" y="724.1316" width="12" height="12"/>
	<rect x="353.2069" y="736.1316" width="12" height="12"/>
	<rect x="365.2069" y="736.1316" width="12" height="12"/>
	<rect x="605.2069" y="736.1316" width="12" height="12"/>
	<rect x="617.2069" y="736.1316" width="12" height="12"/>
	<rect x="353.2069" y="748.1316" width="12" height="12"/>
	<rect x="365.2069" y="748.1316" width="12" height="12"/>
	<rect x="377.2069" y="748.1316" width="12" height="12"/>
	<rect x="593.2069" y="748.1316" width="12" height="12"/>
	<rect x="605.2069" y="748.1316" width="12" height="12"/>
	<rect x="617.2069" y="748.1316" width="12" height="12"/>
	<rect x="353.2069" y="760.1316" width="12" height="12"/>
	<rect x="365.2069" y="760.1316" width="12" height="12"/>
	<rect x="377.2069" y="760.1316" width="12" height="12"/>
	<rect x="593.2069" y="760.1316" width="12" height="12"/>
	<rect x="605.2069" y="760.1316" width="12" height="12"/>
	<rect x="365.2069" y="772.1316" width="12" height="12"/>
	<rect x="377.2069" y="772.1316" width="12" height="12"/>
	<rect x="581.2069" y="772.1316" width="12" height="12"/>
	<rect x="593.2069" y="772.1316" width="12" height="12"/>
	<rect x="605.2069" y="772.1316" width="12" height="12"/>
	<rect x="365.2069" y="784.1316" width="12" height="12"/>
	<rect x="377.2069" y="784.1316" width="12" height="12"/>
	<rect x="389.2069" y="784.1316" width="12" height="12"/>
	<rect x="581.2069" y="784.1316" width="12" height="12"/>
	<rect x="593.2069" y="784.1316" width="12" height="12"/>
	<rect x="605.2069" y="784.1316" width="12" height="12"/>
	<rect x="377.2069" y="796.1316" width="12" height="12"/>
	<rect x="389.2069" y="796.1316" width="12" height="12"/>
	<rect x="401.2069" y="796.1316" width="12" height="12"/>
	<rect x="569.2069" y="796.1316" width="12" height="12"/>
	<rect x="581.2069" y="796.1316" width="12" height="12"/>
	<rect x="593.2069" y="796.1316" width="12" height="12"/>
	<rect x="377.2069" y="808.1316" width="12" height="12"/>
	<rect x="389.2069" y="808.1316" width="12" height="12"/>
	<rect x="401.2069" y="808.1316" width="12" height="12"/>
	<rect x="569.2069" y="808.1316" width="12" height="12"/>
	<rect x="581.2069" y="808.1316" width="12" height="12"/>
	<rect x="593.2069" y="808.1316" width="12" height="12"/>
	<rect x="389.2069" y="820.1316" width="12" height="12"/>
	<rect x="401.2069" y="820.1316" width="12" height="12"/>
	<rect x="413.2069" y="820.1316" width="12" height="12"/>
	<rect x="557.2069" y="820.1316" width="12" height="12"/>
	<rect x="569.2069" y="820.1316" width="12" height="12"/>
	<rect x="581.2069" y="820.1316" width="12" height="12"/>
	<rect x="401.2069" y="832.1316" width="12" height="12"/>
	<rect x="413.2069" y="832.1316" width="12" height="12"/>
	<rect x="425.2069" y="832.1316" width="12" height="12"/>
	<rect x="545.2069" y="832.1316" width="12" height="12"/>
	<rect x="557.2069" y="832.1316" width="12" height="12"/>
	<rect x="569.2069" y="832.1316" width="12" height="12"/>
	<rect x="401.2069" y="844.1316" width="12" height="12"/>
	<rect x="413.2069" y="844.1316" width="12" height="12"/>
	<rect x="425.2069" y="844.1316" width="12" height="12"/>
	<rect x="437.2069" y="844.1316" width="12" height="12"/>
	<rect x="533.2069" y="844.1316" width="12" height="12"/>
	<rect x="545.2069" y="844.1316" width="12" height="12"/>
	<rect x="557.2069" y="844.1316" width="12" height="12"/>
	<rect x="413.2069" y="856.1316" width="12" height="12"/>
	<rect x="425.2069" y="856.1316" width="12" height="12"/>
	<rect x="437.2069" y="856.1316" width="12" height="12"/>
	<rect x="449.2069" y="856.1316" width="12" height="12"/>
	<rect x="509.2069" y="856.1316" width="12" height="12"/>
	<rect x="521.2069" y="856.1316" width="12" height="12"/>
	<rect x="533.2069" y="856.1316" width="12" height="12"/>
	<rect x="545.2069" y="856.1316" width="12" height="12"/>
	<rect x="425.2069" y="868.1316" width="12" height="12"/>
	<rect x="437.2069" y="868.1316" width="12" height="12"/>
	<rect x="449.2069" y="868.1316" width="12" height="12"/>
	<rect x="461.2069" y="868.1316" width="12" height="12"/>
	<rect x="473.2069" y="868.1316" width="12" height="12"/>
	<rect x="485.2069" y="868.1316" width="12" height="12"/>
	<rect x="497.2069" y="868.1316" width="12" height="12"/>
	<rect x="509.2069" y="868.1316" width="12" height="12"/>
	<rect x="521.2069" y="868.1316" width="12" height="12"/>
	<rect x="533.2069" y="868.1316" width="12" height="12"/>
	<rect x="449.2069" y="880.1316" width="12" height="12"/>
	<rect x="461.2069" y="880.1316" width="12" height="12"/>
	<rect x="473.2069" y="880.1316" width="12" height="12"/>
	<rect x="485.2069" y="880.1316" width="12" height="12"/>
	<rect x="497.2069" y="880.1316" width="12" height="12"/>
	<rect x="509.2069" y="880.1316" width="12" height="12"/>
	<rect x="521.2069" y="880.1316" width="12" height="12"/>
</g>
<g>
	<rect x="201.7932" y="255.0073" width="12" height="12"/>
	<rect x="213.7932" y="255.0073" width="12" height="12"/>
	<rect x="225.7932" y="255.0073" width="12" height="12"/>
	<rect x="237.7932" y="255.0073" width="12" height="12"/>
	<rect x="249.7932" y="255.0073" width="12" height="12"/>
	<rect x="261.7932" y="255.0073" width="12" height="12"/>
	<rect x="273.7932" y="255.0073" width="12" height="12"/>
	<rect x="285.7932" y="255.0073" width="12" height="12"/>
	<rect x="297.7932" y="255.0073" width="12" height="12"/>
	<rect x="309.7932" y="255.0073" width="12" height="12"/>
	<rect x="321.7932" y="255.0073" width="12" height="12"/>
	<rect x="333.7932" y="255.0073" width="12" height="12"/>
	<rect x="345.7932" y="255.0073" width="12" height="12"/>
	<rect x="177.7932" y="267.0073" width="12" height="12"/>
	<rect x="189.7932" y="267.0073" width="12" height="12"/>
	<rect x="201.7932" y="267.0073" width="12" height="12"/>
	<rect x="213.7932" y="267.0073" width="12" height="12"/>
	<rect x="225.7932" y="267.0073" width="12" height="12"/>
	<rect x="237.7932" y="267.0073" width="12" height="12"/>
	<rect x="249.7932" y="267.0073" width="12" height="12"/>
	<rect x="261.7932" y="267.0073" width="12" height="12"/>
	<rect x="273.7932" y="267.0073" width="12" height="12"/>
	<rect x="285.7932" y="267.0073" width="12" height="12"/>
	<rect x="297.7932" y="267.0073" width="12" height="12"/>
	<rect x="309.7932" y="267.0073" width="12" height="12"/>
	<rect x="321.7932" y="267.0073" width="12" height="12"/>
	<rect x="333.7932" y="267.0073" width="12" height="12"/>
	<rect x="345.7932" y="267.0073" width="12" height="12"/>
	<rect x="357.7932" y="267.0073" width="12" height="12"/>
	<rect x="369.7932" y="267.0073" width="12" height="12"/>
	<rect x="381.7932" y="267.0073" width="12" height="12"/>
	<rect x="393.7932" y="267.0073" width="12" height="12"/>
	<rect x="165.7932" y="279.0073" width="12" height="12"/>
	<rect x="177.7932" y="279.0073" width="12" height="12"/>
	<rect x="189.7932" y="279.0073" width="12" height="12"/>
	<rect x="201.7932" y="279.0073" width="12" height="12"/>
	<rect x="345.7932" y="279.0073" width="12" height="12"/>
	<rect x="357.7932" y="279.0073" width="12" height="12"/>
	<rect x="369.7932" y="279.0073" width="12" height="12"/>
	<rect x="381.7932" y="279.0073" width="12" height="12"/>
	<rect x="393.7932" y="279.0073" width="12" height="12"/>
	<rect x="405.7932" y="279.0073" width="12" height="12"/>
	<rect x="417.7932" y="279.0073" width="12" height="12"/>
	<rect x="429.7932" y="279.0073" width="12" height="12"/>
	<rect x="153.7932" y="291.0073" width="12" height="12"/>
	<rect x="165.7932" y="291.0073" width="12" height="12"/>
	<rect x="177.7932" y="291.0073" width="12" height="12"/>
	<rect x="393.7932" y="291.0073" width="12" height="12"/>
	<rect x="405.7932" y="291.0073" width="12" height="12"/>
	<rect x="417.7932" y="291.0073" width="12" height="12"/>
	<rect x="429.7932" y="291.0073" width="12" height="12"/>
	<rect x="441.7932" y="291.0073" width="12" height="12"/>
	<rect x="453.7932" y="291.0073" width="12" height="12"/>
	<rect x="465.7932" y="291.0073" width="12" height="12"/>
	<rect x="141.7932" y="303.0073" width="12" height="12"/>
	<rect x="153.7932" y="303.0073" width="12" height="12"/>
	<rect x="165.7932" y="303.0073" width="12" height="12"/>
	<rect x="429.7932" y="303.0073" width="12" height="12"/>
	<rect x="441.7932" y="303.0073" width="12" height="12"/>
	<rect x="453.7932" y="303.0073" width="12" height="12"/>
	<rect x="465.7932" y="303.0073" width="12" height="12"/>
	<rect x="477.7932" y="303.0073" width="12" height="12"/>
	<rect x="489.7932" y="303.0073" width="12" height="12"/>
	<rect x="141.7932" y="315.0073" width="12" height="12"/>
	<rect x="153.7932" y="315.0073" width="12" height="12"/>
	<rect x="465.7932" y="315.0073" width="12" height="12"/>
	<rect x="477.7932" y="315.0073" width="12" height="12"/>
	<rect x="489.7932" y="315.0073" width="12" height="12"/>
	<rect x="501.7932" y="315.0073" width="12" height="12"/>
	<rect x="513.7932" y="315.0073" width="12" height="12"/>
	<rect x="141.7932" y="327.0073" width="12" height="12"/>
	<rect x="153.7932" y="327.0073" width="12" height="12"/>
	<rect x="489.7932" y="327.0073" width="12" height="12"/>
	<rect x="501.7932" y="327.0073" width="12" height="12"/>
	<rect x="513.7932" y="327.0073" width="12" height="12"/>
	<rect x="525.7932" y="327.0073" width="12" height="12"/>
	<rect x="537.7932" y="327.0073" width="12" height="12"/>
	<rect x="141.7932" y="339.0073" width="12" height="12"/>
	<rect x="153.7932" y="339.0073" width="12" height="12"/>
	<rect x="513.7932" y="339.0073" width="12" height="12"/>
	<rect x="525.7932" y="339.0073" width="12" height="12"/>
	<rect x="537.7932" y="339.0073" width="12" height="12"/>
	<rect x="549.7932" y="339.0073" width="12" height="12"/>
	<rect x="561.7932" y="339.0073" width="12" height="12"/>
	<rect x="141.7932" y="351.0073" width="12" height="12"/>
	<rect x="153.7932" y="351.0073" width="12" height="12"/>
	<rect x="537.7932" y="351.0073" width="12" height="12"/>
	<rect x="549.7932" y="351.0073" width="12" height="12"/>
	<rect x="561.7932" y="351.0073" width="12" height="12"/>
	<rect x="573.7932" y="351.0073" width="12" height="12"/>
	<rect x="585.7932" y="351.0073" width="12" height="12"/>
	<rect x="141.7932" y="363.0073" width="12" height="12"/>
	<rect x="153.7932" y="363.0073" width="12" height="12"/>
	<rect x="561.7932" y="363.0073" width="12" height="12"/>
	<rect x="573.7932" y="363.0073" width="12" height="12"/>
	<rect x="585.7932" y="363.0073" width="12" height="12"/>
	<rect x="597.7932" y="363.0073" width="12" height="12"/>
	<rect x="141.7932" y="375.0073" width="12" height="12"/>
	<rect x="153.7932" y="375.0073" width="12" height="12"/>
	<rect x="585.7932" y="375.0073" width="12" height="12"/>
	<rect x="597.7932" y="375.0073" width="12" height="12"/>
	<rect x="609.7932" y="375.0073" width="12" height="12"/>
	<rect x="621.7932" y="375.0073" width="12" height="12"/>
	<rect x="141.7932" y="387.0073" width="12" height="12"/>
	<rect x="153.7932" y="387.0073" width="12" height="12"/>
	<rect x="165.7932" y="387.0073" width="12" height="12"/>
	<rect x="597.7932" y="387.0073" width="12" height="12"/>
	<rect x="609.7932" y="387.0073" width="12" height="12"/>
	<rect x="621.7932" y="387.0073" width="12" height="12"/>
	<rect x="633.7932" y="387.0073" width="12" height="12"/>
	<rect x="153.7932" y="399.0073" width="12" height="12"/>
	<rect x="165.7932" y="399.0073" width="12" height="12"/>
	<rect x="621.7932" y="399.0073" width="12" height="12"/>
	<rect x="633.7932" y="399.0073" width="12" height="12"/>
	<rect x="645.7932" y="399.0073" width="12" height="12"/>
	<rect x="657.7932" y="399.0073" width="12" height="12"/>
	<rect x="153.7932" y="411.0073" width="12" height="12"/>
	<rect x="165.7932" y="411.0073" width="12" height="12"/>
	<rect x="177.7932" y="411.0073" width="12" height="12"/>
	<rect x="633.7932" y="411.0073" width="12" height="12"/>
	<rect x="645.7932" y="411.0073" width="12" height="12"/>
	<rect x="657.7932" y="411.0073" width="12" height="12"/>
	<rect x="669.7932" y="411.0073" width="12" height="12"/>
	<rect x="153.7932" y="423.0073" width="12" height="12"/>
	<rect x="165.7932" y="423.0073" width="12" height="12"/>
	<rect x="177.7932" y="423.0073" width="12" height="12"/>
	<rect x="645.7932" y="423.0073" width="12" height="12"/>
	<rect x="657.7932" y="423.0073" width="12" height="12"/>
	<rect x="669.7932" y="423.0073" width="12" height="12"/>
	<rect x="681.7932" y="423.0073" width="12" height="12"/>
	<rect x="165.7932" y="435.0073" width="12" height="12"/>
	<rect x="177.7932" y="435.0073" width="12" height="12"/>
	<rect x="189.7932" y="435.0073" width="12" height="12"/>
	<rect x="669.7932" y="435.0073" width="12" height="12"/>
	<rect x="681.7932" y="435.0073" width="12" height="12"/>
	<rect x="693.7932" y="435.0073" width="12" height="12"/>
	<rect x="177.7932" y="447.0073" width="12" height="12"/>
	<rect x="189.7932" y="447.0073" width="12" height="12"/>
	<rect x="681.7932" y="447.0073" width="12" height="12"/>
	<rect x="693.7932" y="447.0073" width="12" height="12"/>
	<rect x="705.7932" y="447.0073" width="12" height="12"/>
	<rect x="717.7932" y="447.0073" width="12" height="12"/>
	<rect x="177.7932" y="459.0073" width="12" height="12"/>
	<rect x="189.7932" y="459.0073" width="12" height="12"/>
	<rect x="201.7932" y="459.0073" width="12" height="12"/>
	<rect x="693.7932" y="459.0073" width="12" height="12"/>
	<rect x="705.7932" y="459.0073" width="12" height="12"/>
	<rect x="717.7932" y="459.0073" width="12" height="12"/>
	<rect x="729.7932" y="459.0073" width="12" height="12"/>
	<rect x="189.7932" y="471.0073" width="12" height="12"/>
	<rect x="201.7932" y="471.0073" width="12" height="12"/>
	<rect x="213.7932" y="471.0073" width="12" height="12"/>
	<rect x="705.7932" y="471.0073" width="12" height="12"/>
	<rect x="717.7932" y="471.0073" width="12" height="12"/>
	<rect x="729.7932" y="471.0073" width="12" height="12"/>
	<rect x="741.7932" y="471.0073" width="12" height="12"/>
	<rect x="201.7932" y="483.0073" width="12" height="12"/>
	<rect x="213.7932" y="483.0073" width="12" height="12"/>
	<rect x="225.7932" y="483.0073" width="12" height="12"/>
	<rect x="717.7932" y="483.0073" width="12" height="12"/>
	<rect x="729.7932" y="483.0073" width="12" height="12"/>
	<rect x="741.7932" y="483.0073" width="12" height="12"/>
	<rect x="753.7932" y="483.0073" width="12" height="12"/>
	<rect x="213.7932" y="495.0073" width="12" height="12"/>
	<rect x="225.7932" y="495.0073" width="12" height="12"/>
	<rect x="237.7932" y="495.0073" width="12" height="12"/>
	<rect x="729.7932" y="495.0073" width="12" height="12"/>
	<rect x="741.7932" y="495.0073" width="12" height="12"/>
	<rect x="753.7932" y="495.0073" width="12" height="12"/>
	<rect x="213.7932" y="507.0073" width="12" height="12"/>
	<rect x="225.7932" y="507.0073" width="12" height="12"/>
	<rect x="237.7932" y="507.0073" width="12" height="12"/>
	<rect x="249.7932" y="507.0073" width="12" height="12"/>
	<rect x="741.7932" y="507.0073" width="12" height="12"/>
	<rect x="753.7932" y="507.0073" width="12" height="12"/>
	<rect x="765.7932" y="507.0073" width="12" height="12"/>
	<rect x="225.7932" y="519.0073" width="12" height="12"/>
	<rect x="237.7932" y="519.0073" width="12" height="12"/>
	<rect x="249.7932" y="519.0073" width="12" height="12"/>
	<rect x="261.7932" y="519.0073" width="12" height="12"/>
	<rect x="753.7932" y="519.0073" width="12" height="12"/>
	<rect x="765.7932" y="519.0073" width="12" height="12"/>
	<rect x="777.7932" y="519.0073" width="12" height="12"/>
	<rect x="237.7932" y="531.0073" width="12" height="12"/>
	<rect x="249.7932" y="531.0073" width="12" height="12"/>
	<rect x="261.7932" y="531.0073" width="12" height="12"/>
	<rect x="273.7932" y="531.0073" width="12" height="12"/>
	<rect x="765.7932" y="531.0073" width="12" height="12"/>
	<rect x="777.7932" y="531.0073" width="12" height="12"/>
	<rect x="789.7932" y="531.0073" width="12" height="12"/>
	<rect x="249.7932" y="543.0073" width="12" height="12"/>
	<rect x="261.7932" y="543.0073" width="12" height="12"/>
	<rect x="273.7932" y="543.0073" width="12" height="12"/>
	<rect x="285.7932" y="543.0073" width="12" height="12"/>
	<rect x="777.7932" y="543.0073" width="12" height="12"/>
	<rect x="789.7932" y="543.0073" width="12" height="12"/>
	<rect x="273.7932" y="555.0073" width="12" height="12"/>
	<rect x="285.7932" y="555.0073" width="12" height="12"/>
	<rect x="297.7932" y="555.0073" width="12" height="12"/>
	<rect x="777.7932" y="555.0073" width="12" height="12"/>
	<rect x="789.7932" y="555.0073" width="12" height="12"/>
	<rect x="801.7932" y="555.0073" width="12" height="12"/>
	<rect x="285.7932" y="567.0073" width="12" height="12"/>
	<rect x="297.7932" y="567.0073" width="12" height="12"/>
	<rect x="309.7932" y="567.0073" width="12" height="12"/>
	<rect x="321.7932" y="567.0073" width="12" height="12"/>
	<rect x="789.7932" y="567.0073" width="12" height="12"/>
	<rect x="801.7932" y="567.0073" width="12" height="12"/>
	<rect x="813.7932" y="567.0073" width="12" height="12"/>
	<rect x="297.7932" y="579.0073" width="12" height="12"/>
	<rect x="309.7932" y="579.0073" width="12" height="12"/>
	<rect x="321.7932" y="579.0073" width="12" height="12"/>
	<rect x="333.7932" y="579.0073" width="12" height="12"/>
	<rect x="789.7932" y="579.0073" width="12" height="12"/>
	<rect x="801.7932" y="579.0073" width="12" height="12"/>
	<rect x="813.7932" y="579.0073" width="12" height="12"/>
	<rect x="309.7932" y="591.0073" width="12" height="12"/>
	<rect x="321.7932" y="591.0073" width="12" height="12"/>
	<rect x="333.7932" y="591.0073" width="12" height="12"/>
	<rect x="345.7932" y="591.0073" width="12" height="12"/>
	<rect x="801.7932" y="591.0073" width="12" height="12"/>
	<rect x="813.7932" y="591.0073" width="12" height="12"/>
	<rect x="333.7932" y="603.0073" width="12" height="12"/>
	<rect x="345.7932" y="603.0073" width="12" height="12"/>
	<rect x="357.7932" y="603.0073" width="12" height="12"/>
	<rect x="369.7932" y="603.0073" width="12" height="12"/>
	<rect x="801.7932" y="603.0073" width="12" height="12"/>
	<rect x="813.7932" y="603.0073" width="12" height="12"/>
	<rect x="825.7932" y="603.0073" width="12" height="12"/>
	<rect x="345.7932" y="615.0073" width="12" height="12"/>
	<rect x="357.7932" y="615.0073" width="12" height="12"/>
	<rect x="369.7932" y="615.0073" width="12" height="12"/>
	<rect x="381.7932" y="615.0073" width="12" height="12"/>
	<rect x="813.7932" y="615.0073" width="12" height="12"/>
	<rect x="825.7932" y="615.0073" width="12" height="12"/>
	<rect x="369.7932" y="627.0073" width="12" height="12"/>
	<rect x="381.7932" y="627.0073" width="12" height="12"/>
	<rect x="393.7932" y="627.0073" width="12" height="12"/>
	<rect x="405.7932" y="627.0073" width="12" height="12"/>
	<rect x="813.7932" y="627.0073" width="12" height="12"/>
	<rect x="825.7932" y="627.0073" width="12" height="12"/>
	<rect x="381.7932" y="639.0073" width="12" height="12"/>
	<rect x="393.7932" y="639.0073" width="12" height="12"/>
	<rect x="405.7932" y="639.0073" width="12" height="12"/>
	<rect x="417.7932" y="639.0073" width="12" height="12"/>
	<rect x="429.7932" y="639.0073" width="12" height="12"/>
	<rect x="813.7932" y="639.0073" width="12" height="12"/>
	<rect x="825.7932" y="639.0073" width="12" height="12"/>
	<rect x="405.7932" y="651.0073" width="12" height="12"/>
	<rect x="417.7932" y="651.0073" width="12" height="12"/>
	<rect x="429.7932" y="651.0073" width="12" height="12"/>
	<rect x="441.7932" y="651.0073" width="12" height="12"/>
	<rect x="453.7932" y="651.0073" width="12" height="12"/>
	<rect x="813.7932" y="651.0073" width="12" height="12"/>
	<rect x="825.7932" y="651.0073" width="12" height="12"/>
	<rect x="429.7932" y="663.0073" width="12" height="12"/>
	<rect x="441.7932" y="663.0073" width="12" height="12"/>
	<rect x="453.7932" y="663.0073" width="12" height="12"/>
	<rect x="465.7932" y="663.0073" width="12" height="12"/>
	<rect x="477.7932" y="663.0073" width="12" height="12"/>
	<rect x="813.7932" y="663.0073" width="12" height="12"/>
	<rect x="825.7932" y="663.0073" width="12" height="12"/>
	<rect x="453.7932" y="675.0073" width="12" height="12"/>
	<rect x="465.7932" y="675.0073" width="12" height="12"/>
	<rect x="477.7932" y="675.0073" width="12" height="12"/>
	<rect x="489.7932" y="675.0073" width="12" height="12"/>
	<rect x="501.7932" y="675.0073" width="12" height="12"/>
	<rect x="813.7932" y="675.0073" width="12" height="12"/>
	<rect x="825.7932" y="675.0073" width="12" height="12"/>
	<rect x="477.7932" y="687.0073" width="12" height="12"/>
	<rect x="489.7932" y="687.0073" width="12" height="12"/>
	<rect x="501.7932" y="687.0073" width="12" height="12"/>
	<rect x="513.7932" y="687.0073" width="12" height="12"/>
	<rect x="525.7932" y="687.0073" width="12" height="12"/>
	<rect x="537.7932" y="687.0073" width="12" height="12"/>
	<rect x="801.7932" y="687.0073" width="12" height="12"/>
	<rect x="813.7932" y="687.0073" width="12" height="12"/>
	<rect x="825.7932" y="687.0073" width="12" height="12"/>
	<rect x="501.7932" y="699.0073" width="12" height="12"/>
	<rect x="513.7932" y="699.0073" width="12" height="12"/>
	<rect x="525.7932" y="699.0073" width="12" height="12"/>
	<rect x="537.7932" y="699.0073" width="12" height="12"/>
	<rect x="549.7932" y="699.0073" width="12" height="12"/>
	<rect x="561.7932" y="699.0073" width="12" height="12"/>
	<rect x="573.7932" y="699.0073" width="12" height="12"/>
	<rect x="789.7932" y="699.0073" width="12" height="12"/>
	<rect x="801.7932" y="699.0073" width="12" height="12"/>
	<rect x="813.7932" y="699.0073" width="12" height="12"/>
	<rect x="537.7932" y="711.0073" width="12" height="12"/>
	<rect x="549.7932" y="711.0073" width="12" height="12"/>
	<rect x="561.7932" y="711.0073" width="12" height="12"/>
	<rect x="573.7932" y="711.0073" width="12" height="12"/>
	<rect x="585.7932" y="711.0073" width="12" height="12"/>
	<rect x="597.7932" y="711.0073" width="12" height="12"/>
	<rect x="609.7932" y="711.0073" width="12" height="12"/>
	<rect x="621.7932" y="711.0073" width="12" height="12"/>
	<rect x="765.7932" y="711.0073" width="12" height="12"/>
	<rect x="777.7932" y="711.0073" width="12" height="12"/>
	<rect x="789.7932" y="711.0073" width="12" height="12"/>
	<rect x="801.7932" y="711.0073" width="12" height="12"/>
	<rect x="573.7932" y="723.0073" width="12" height="12"/>
	<rect x="585.7932" y="723.0073" width="12" height="12"/>
	<rect x="597.7932" y="723.0073" width="12" height="12"/>
	<rect x="609.7932" y="723.0073" width="12" height="12"/>
	<rect x="621.7932" y="723.0073" width="12" height="12"/>
	<rect x="633.7932" y="723.0073" width="12" height="12"/>
	<rect x="645.7932" y="723.0073" width="12" height="12"/>
	<rect x="657.7932" y="723.0073" width="12" height="12"/>
	<rect x="669.7932" y="723.0073" width="12" height="12"/>
	<rect x="681.7932" y="723.0073" width="12" height="12"/>
	<rect x="693.7932" y="723.0073" width="12" height="12"/>
	<rect x="705.7932" y="723.0073" width="12" height="12"/>
	<rect x="717.7932" y="723.0073" width="12" height="12"/>
	<rect x="729.7932" y="723.0073" width="12" height="12"/>
	<rect x="741.7932" y="723.0073" width="12" height="12"/>
	<rect x="753.7932" y="723.0073" width="12" height="12"/>
	<rect x="765.7932" y="723.0073" width="12" height="12"/>
	<rect x="777.7932" y="723.0073" width="12" height="12"/>
	<rect x="789.7932" y="723.0073" width="12" height="12"/>
	<rect x="621.7932" y="735.0073" width="12" height="12"/>
	<rect x="633.7932" y="735.0073" width="12" height="12"/>
	<rect x="645.7932" y="735.0073" width="12" height="12"/>
	<rect x="657.7932" y="735.0073" width="12" height="12"/>
	<rect x="669.7932" y="735.0073" width="12" height="12"/>
	<rect x="681.7932" y="735.0073" width="12" height="12"/>
	<rect x="693.7932" y="735.0073" width="12" height="12"/>
	<rect x="705.7932" y="735.0073" width="12" height="12"/>
	<rect x="717.7932" y="735.0073" width="12" height="12"/>
	<rect x="729.7932" y="735.0073" width="12" height="12"/>
	<rect x="741.7932" y="735.0073" width="12" height="12"/>
	<rect x="753.7932" y="735.0073" width="12" height="12"/>
	<rect x="765.7932" y="735.0073" width="12" height="12"/>
</g>
</svg>
