<?xml version="1.0" encoding="utf-8"?>
<!-- Generator: Adobe Illustrator 27.0.0, SVG Export Plug-In . SVG Version: 6.00 Build 0)  -->
<svg version="1.1" id="Layer_1" xmlns="http://www.w3.org/2000/svg" xmlns:xlink="http://www.w3.org/1999/xlink" x="0px" y="0px"
	 viewBox="0 0 1000 1000" style="enable-background:new 0 0 1000 1000;" xml:space="preserve">
<g>
	<rect x="377.0219" y="189.5" width="14.4" height="14.4"/>
	<rect x="391.4219" y="189.5" width="14.4" height="14.4"/>
	<rect x="405.8219" y="189.5" width="14.4" height="14.4"/>
	<rect x="420.2219" y="189.5" width="14.4" height="14.4"/>
	<rect x="434.6219" y="189.5" width="14.4" height="14.4"/>
	<rect x="449.0219" y="189.5" width="14.4" height="14.4"/>
	<rect x="463.4219" y="189.5" width="14.4" height="14.4"/>
	<rect x="477.8219" y="189.5" width="14.4" height="14.4"/>
	<rect x="492.2219" y="189.5" width="14.4" height="14.4"/>
	<rect x="506.6219" y="189.5" width="14.4" height="14.4"/>
	<rect x="521.0219" y="189.5" width="14.4" height="14.4"/>
	<rect x="535.4219" y="189.5" width="14.4" height="14.4"/>
	<rect x="549.8219" y="189.5" width="14.4" height="14.4"/>
	<rect x="564.2219" y="189.5" width="14.4" height="14.4"/>
	<rect x="578.6219" y="189.5" width="14.4" height="14.4"/>
	<rect x="593.0219" y="189.5" width="14.4" height="14.4"/>
	<rect x="607.4219" y="189.5" width="14.4" height="14.4"/>
	<rect x="362.6219" y="203.9" width="14.4" height="14.4"/>
	<rect x="377.0219" y="203.9" width="14.4" height="14.4"/>
	<rect x="607.4219" y="203.9" width="14.4" height="14.4"/>
	<rect x="621.8219" y="203.9" width="14.4" height="14.4"/>
	<rect x="333.8219" y="218.3" width="14.4" height="14.4"/>
	<rect x="348.2219" y="218.3" width="14.4" height="14.4"/>
	<rect x="362.6219" y="218.3" width="14.4" height="14.4"/>
	<rect x="621.8219" y="218.3" width="14.4" height="14.4"/>
	<rect x="636.2219" y="218.3" width="14.4" height="14.4"/>
	<rect x="650.6219" y="218.3" width="14.4" height="14.4"/>
	<rect x="305.0219" y="232.7" width="14.4" height="14.4"/>
	<rect x="319.4219" y="232.7" width="14.4" height="14.4"/>
	<rect x="333.8219" y="232.7" width="14.4" height="14.4"/>
	<rect x="650.6219" y="232.7" width="14.4" height="14.4"/>
	<rect x="665.0219" y="232.7" width="14.4" height="14.4"/>
	<rect x="679.4219" y="232.7" width="14.4" height="14.4"/>
	<rect x="290.6219" y="247.1" width="14.4" height="14.4"/>
	<rect x="305.0219" y="247.1" width="14.4" height="14.4"/>
	<rect x="679.4219" y="247.1" width="14.4" height="14.4"/>
	<rect x="693.8219" y="247.1" width="14.4" height="14.4"/>
	<rect x="708.2219" y="247.1" width="14.4" height="14.4"/>
	<rect x="276.2219" y="261.5" width="14.4" height="14.4"/>
	<rect x="290.6219" y="261.5" width="14.4" height="14.4"/>
	<rect x="305.0219" y="261.5" width="14.4" height="14.4"/>
	<rect x="319.4219" y="261.5" width="14.4" height="14.4"/>
	<rect x="333.8219" y="261.5" width="14.4" height="14.4"/>
	<rect x="348.2219" y="261.5" width="14.4" height="14.4"/>
	<rect x="362.6219" y="261.5" width="14.4" height="14.4"/>
	<rect x="621.8219" y="261.5" width="14.4" height="14.4"/>
	<rect x="636.2219" y="261.5" width="14.4" height="14.4"/>
	<rect x="650.6219" y="261.5" width="14.4" height="14.4"/>
	<rect x="665.0219" y="261.5" width="14.4" height="14.4"/>
	<rect x="679.4219" y="261.5" width="14.4" height="14.4"/>
	<rect x="693.8219" y="261.5" width="14.4" height="14.4"/>
	<rect x="708.2219" y="261.5" width="14.4" height="14.4"/>
	<rect x="261.8219" y="275.9" width="14.4" height="14.4"/>
	<rect x="276.2219" y="275.9" width="14.4" height="14.4"/>
	<rect x="362.6219" y="275.9" width="14.4" height="14.4"/>
	<rect x="377.0219" y="275.9" width="14.4" height="14.4"/>
	<rect x="391.4219" y="275.9" width="14.4" height="14.4"/>
	<rect x="405.8219" y="275.9" width="14.4" height="14.4"/>
	<rect x="420.2219" y="275.9" width="14.4" height="14.4"/>
	<rect x="434.6219" y="275.9" width="14.4" height="14.4"/>
	<rect x="449.0219" y="275.9" width="14.4" height="14.4"/>
	<rect x="549.8219" y="275.9" width="14.4" height="14.4"/>
	<rect x="564.2219" y="275.9" width="14.4" height="14.4"/>
	<rect x="578.6219" y="275.9" width="14.4" height="14.4"/>
	<rect x="593.0219" y="275.9" width="14.4" height="14.4"/>
	<rect x="607.4219" y="275.9" width="14.4" height="14.4"/>
	<rect x="621.8219" y="275.9" width="14.4" height="14.4"/>
	<rect x="708.2219" y="275.9" width="14.4" height="14.4"/>
	<rect x="722.6219" y="275.9" width="14.4" height="14.4"/>
	<rect x="261.8219" y="290.3" width="14.4" height="14.4"/>
	<rect x="449.0219" y="290.3" width="14.4" height="14.4"/>
	<rect x="463.4219" y="290.3" width="14.4" height="14.4"/>
	<rect x="477.8219" y="290.3" width="14.4" height="14.4"/>
	<rect x="492.2219" y="290.3" width="14.4" height="14.4"/>
	<rect x="506.6219" y="290.3" width="14.4" height="14.4"/>
	<rect x="521.0219" y="290.3" width="14.4" height="14.4"/>
	<rect x="535.4219" y="290.3" width="14.4" height="14.4"/>
	<rect x="549.8219" y="290.3" width="14.4" height="14.4"/>
	<rect x="722.6219" y="290.3" width="14.4" height="14.4"/>
	<rect x="247.4219" y="304.7" width="14.4" height="14.4"/>
	<rect x="261.8219" y="304.7" width="14.4" height="14.4"/>
	<rect x="492.2219" y="304.7" width="14.4" height="14.4"/>
	<rect x="722.6219" y="304.7" width="14.4" height="14.4"/>
	<rect x="737.0219" y="304.7" width="14.4" height="14.4"/>
	<rect x="247.4219" y="319.1" width="14.4" height="14.4"/>
	<rect x="492.2219" y="319.1" width="14.4" height="14.4"/>
	<rect x="737.0219" y="319.1" width="14.4" height="14.4"/>
	<rect x="233.0219" y="333.5" width="14.4" height="14.4"/>
	<rect x="247.4219" y="333.5" width="14.4" height="14.4"/>
	<rect x="492.2219" y="333.5" width="14.4" height="14.4"/>
	<rect x="737.0219" y="333.5" width="14.4" height="14.4"/>
	<rect x="751.4219" y="333.5" width="14.4" height="14.4"/>
	<rect x="233.0219" y="347.9" width="14.4" height="14.4"/>
	<rect x="492.2219" y="347.9" width="14.4" height="14.4"/>
	<rect x="751.4219" y="347.9" width="14.4" height="14.4"/>
	<rect x="765.8219" y="347.9" width="14.4" height="14.4"/>
	<rect x="218.6219" y="362.3" width="14.4" height="14.4"/>
	<rect x="233.0219" y="362.3" width="14.4" height="14.4"/>
	<rect x="492.2219" y="362.3" width="14.4" height="14.4"/>
	<rect x="765.8219" y="362.3" width="14.4" height="14.4"/>
	<rect x="204.2219" y="376.7" width="14.4" height="14.4"/>
	<rect x="218.6219" y="376.7" width="14.4" height="14.4"/>
	<rect x="492.2219" y="376.7" width="14.4" height="14.4"/>
	<rect x="765.8219" y="376.7" width="14.4" height="14.4"/>
	<rect x="780.2219" y="376.7" width="14.4" height="14.4"/>
	<rect x="204.2219" y="391.1" width="14.4" height="14.4"/>
	<rect x="492.2219" y="391.1" width="14.4" height="14.4"/>
	<rect x="780.2219" y="391.1" width="14.4" height="14.4"/>
	<rect x="189.8219" y="405.5" width="14.4" height="14.4"/>
	<rect x="204.2219" y="405.5" width="14.4" height="14.4"/>
	<rect x="492.2219" y="405.5" width="14.4" height="14.4"/>
	<rect x="780.2219" y="405.5" width="14.4" height="14.4"/>
	<rect x="794.6219" y="405.5" width="14.4" height="14.4"/>
	<rect x="189.8219" y="419.9" width="14.4" height="14.4"/>
	<rect x="492.2219" y="419.9" width="14.4" height="14.4"/>
	<rect x="794.6219" y="419.9" width="14.4" height="14.4"/>
	<rect x="175.4219" y="434.3" width="14.4" height="14.4"/>
	<rect x="189.8219" y="434.3" width="14.4" height="14.4"/>
	<rect x="492.2219" y="434.3" width="14.4" height="14.4"/>
	<rect x="794.6219" y="434.3" width="14.4" height="14.4"/>
	<rect x="809.0219" y="434.3" width="14.4" height="14.4"/>
	<rect x="175.4219" y="448.7" width="14.4" height="14.4"/>
	<rect x="189.8219" y="448.7" width="14.4" height="14.4"/>
	<rect x="204.2219" y="448.7" width="14.4" height="14.4"/>
	<rect x="492.2219" y="448.7" width="14.4" height="14.4"/>
	<rect x="780.2219" y="448.7" width="14.4" height="14.4"/>
	<rect x="794.6219" y="448.7" width="14.4" height="14.4"/>
	<rect x="809.0219" y="448.7" width="14.4" height="14.4"/>
	<rect x="175.4219" y="463.1" width="14.4" height="14.4"/>
	<rect x="204.2219" y="463.1" width="14.4" height="14.4"/>
	<rect x="218.6219" y="463.1" width="14.4" height="14.4"/>
	<rect x="492.2219" y="463.1" width="14.4" height="14.4"/>
	<rect x="765.8219" y="463.1" width="14.4" height="14.4"/>
	<rect x="780.2219" y="463.1" width="14.4" height="14.4"/>
	<rect x="809.0219" y="463.1" width="14.4" height="14.4"/>
	<rect x="175.4219" y="477.5" width="14.4" height="14.4"/>
	<rect x="218.6219" y="477.5" width="14.4" height="14.4"/>
	<rect x="233.0219" y="477.5" width="14.4" height="14.4"/>
	<rect x="492.2219" y="477.5" width="14.4" height="14.4"/>
	<rect x="765.8219" y="477.5" width="14.4" height="14.4"/>
	<rect x="809.0219" y="477.5" width="14.4" height="14.4"/>
	<rect x="175.4219" y="491.9" width="14.4" height="14.4"/>
	<rect x="233.0219" y="491.9" width="14.4" height="14.4"/>
	<rect x="477.8219" y="491.9" width="14.4" height="14.4"/>
	<rect x="492.2219" y="491.9" width="14.4" height="14.4"/>
	<rect x="506.6219" y="491.9" width="14.4" height="14.4"/>
	<rect x="751.4219" y="491.9" width="14.4" height="14.4"/>
	<rect x="765.8219" y="491.9" width="14.4" height="14.4"/>
	<rect x="809.0219" y="491.9" width="14.4" height="14.4"/>
	<rect x="175.4219" y="506.3" width="14.4" height="14.4"/>
	<rect x="233.0219" y="506.3" width="14.4" height="14.4"/>
	<rect x="247.4219" y="506.3" width="14.4" height="14.4"/>
	<rect x="463.4219" y="506.3" width="14.4" height="14.4"/>
	<rect x="477.8219" y="506.3" width="14.4" height="14.4"/>
	<rect x="506.6219" y="506.3" width="14.4" height="14.4"/>
	<rect x="521.0219" y="506.3" width="14.4" height="14.4"/>
	<rect x="535.4219" y="506.3" width="14.4" height="14.4"/>
	<rect x="737.0219" y="506.3" width="14.4" height="14.4"/>
	<rect x="751.4219" y="506.3" width="14.4" height="14.4"/>
	<rect x="809.0219" y="506.3" width="14.4" height="14.4"/>
	<rect x="175.4219" y="520.7" width="14.4" height="14.4"/>
	<rect x="247.4219" y="520.7" width="14.4" height="14.4"/>
	<rect x="261.8219" y="520.7" width="14.4" height="14.4"/>
	<rect x="434.6219" y="520.7" width="14.4" height="14.4"/>
	<rect x="449.0219" y="520.7" width="14.4" height="14.4"/>
	<rect x="463.4219" y="520.7" width="14.4" height="14.4"/>
	<rect x="535.4219" y="520.7" width="14.4" height="14.4"/>
	<rect x="549.8219" y="520.7" width="14.4" height="14.4"/>
	<rect x="722.6219" y="520.7" width="14.4" height="14.4"/>
	<rect x="737.0219" y="520.7" width="14.4" height="14.4"/>
	<rect x="809.0219" y="520.7" width="14.4" height="14.4"/>
	<rect x="175.4219" y="535.1" width="14.4" height="14.4"/>
	<rect x="261.8219" y="535.1" width="14.4" height="14.4"/>
	<rect x="276.2219" y="535.1" width="14.4" height="14.4"/>
	<rect x="405.8219" y="535.1" width="14.4" height="14.4"/>
	<rect x="420.2219" y="535.1" width="14.4" height="14.4"/>
	<rect x="434.6219" y="535.1" width="14.4" height="14.4"/>
	<rect x="549.8219" y="535.1" width="14.4" height="14.4"/>
	<rect x="564.2219" y="535.1" width="14.4" height="14.4"/>
	<rect x="578.6219" y="535.1" width="14.4" height="14.4"/>
	<rect x="708.2219" y="535.1" width="14.4" height="14.4"/>
	<rect x="722.6219" y="535.1" width="14.4" height="14.4"/>
	<rect x="809.0219" y="535.1" width="14.4" height="14.4"/>
	<rect x="175.4219" y="549.5" width="14.4" height="14.4"/>
	<rect x="189.8219" y="549.5" width="14.4" height="14.4"/>
	<rect x="276.2219" y="549.5" width="14.4" height="14.4"/>
	<rect x="290.6219" y="549.5" width="14.4" height="14.4"/>
	<rect x="377.0219" y="549.5" width="14.4" height="14.4"/>
	<rect x="391.4219" y="549.5" width="14.4" height="14.4"/>
	<rect x="405.8219" y="549.5" width="14.4" height="14.4"/>
	<rect x="578.6219" y="549.5" width="14.4" height="14.4"/>
	<rect x="593.0219" y="549.5" width="14.4" height="14.4"/>
	<rect x="607.4219" y="549.5" width="14.4" height="14.4"/>
	<rect x="693.8219" y="549.5" width="14.4" height="14.4"/>
	<rect x="708.2219" y="549.5" width="14.4" height="14.4"/>
	<rect x="809.0219" y="549.5" width="14.4" height="14.4"/>
	<rect x="189.8219" y="563.9" width="14.4" height="14.4"/>
	<rect x="290.6219" y="563.9" width="14.4" height="14.4"/>
	<rect x="305.0219" y="563.9" width="14.4" height="14.4"/>
	<rect x="362.6219" y="563.9" width="14.4" height="14.4"/>
	<rect x="377.0219" y="563.9" width="14.4" height="14.4"/>
	<rect x="607.4219" y="563.9" width="14.4" height="14.4"/>
	<rect x="621.8219" y="563.9" width="14.4" height="14.4"/>
	<rect x="679.4219" y="563.9" width="14.4" height="14.4"/>
	<rect x="693.8219" y="563.9" width="14.4" height="14.4"/>
	<rect x="794.6219" y="563.9" width="14.4" height="14.4"/>
	<rect x="809.0219" y="563.9" width="14.4" height="14.4"/>
	<rect x="189.8219" y="578.3" width="14.4" height="14.4"/>
	<rect x="204.2219" y="578.3" width="14.4" height="14.4"/>
	<rect x="305.0219" y="578.3" width="14.4" height="14.4"/>
	<rect x="319.4219" y="578.3" width="14.4" height="14.4"/>
	<rect x="333.8219" y="578.3" width="14.4" height="14.4"/>
	<rect x="348.2219" y="578.3" width="14.4" height="14.4"/>
	<rect x="362.6219" y="578.3" width="14.4" height="14.4"/>
	<rect x="621.8219" y="578.3" width="14.4" height="14.4"/>
	<rect x="636.2219" y="578.3" width="14.4" height="14.4"/>
	<rect x="650.6219" y="578.3" width="14.4" height="14.4"/>
	<rect x="679.4219" y="578.3" width="14.4" height="14.4"/>
	<rect x="780.2219" y="578.3" width="14.4" height="14.4"/>
	<rect x="794.6219" y="578.3" width="14.4" height="14.4"/>
	<rect x="204.2219" y="592.7" width="14.4" height="14.4"/>
	<rect x="319.4219" y="592.7" width="14.4" height="14.4"/>
	<rect x="333.8219" y="592.7" width="14.4" height="14.4"/>
	<rect x="650.6219" y="592.7" width="14.4" height="14.4"/>
	<rect x="665.0219" y="592.7" width="14.4" height="14.4"/>
	<rect x="679.4219" y="592.7" width="14.4" height="14.4"/>
	<rect x="780.2219" y="592.7" width="14.4" height="14.4"/>
	<rect x="204.2219" y="607.1" width="14.4" height="14.4"/>
	<rect x="218.6219" y="607.1" width="14.4" height="14.4"/>
	<rect x="319.4219" y="607.1" width="14.4" height="14.4"/>
	<rect x="333.8219" y="607.1" width="14.4" height="14.4"/>
	<rect x="665.0219" y="607.1" width="14.4" height="14.4"/>
	<rect x="765.8219" y="607.1" width="14.4" height="14.4"/>
	<rect x="780.2219" y="607.1" width="14.4" height="14.4"/>
	<rect x="218.6219" y="621.5" width="14.4" height="14.4"/>
	<rect x="333.8219" y="621.5" width="14.4" height="14.4"/>
	<rect x="650.6219" y="621.5" width="14.4" height="14.4"/>
	<rect x="665.0219" y="621.5" width="14.4" height="14.4"/>
	<rect x="765.8219" y="621.5" width="14.4" height="14.4"/>
	<rect x="218.6219" y="635.9" width="14.4" height="14.4"/>
	<rect x="233.0219" y="635.9" width="14.4" height="14.4"/>
	<rect x="333.8219" y="635.9" width="14.4" height="14.4"/>
	<rect x="650.6219" y="635.9" width="14.4" height="14.4"/>
	<rect x="751.4219" y="635.9" width="14.4" height="14.4"/>
	<rect x="765.8219" y="635.9" width="14.4" height="14.4"/>
	<rect x="233.0219" y="650.3" width="14.4" height="14.4"/>
	<rect x="247.4219" y="650.3" width="14.4" height="14.4"/>
	<rect x="333.8219" y="650.3" width="14.4" height="14.4"/>
	<rect x="348.2219" y="650.3" width="14.4" height="14.4"/>
	<rect x="650.6219" y="650.3" width="14.4" height="14.4"/>
	<rect x="751.4219" y="650.3" width="14.4" height="14.4"/>
	<rect x="247.4219" y="664.7" width="14.4" height="14.4"/>
	<rect x="348.2219" y="664.7" width="14.4" height="14.4"/>
	<rect x="636.2219" y="664.7" width="14.4" height="14.4"/>
	<rect x="650.6219" y="664.7" width="14.4" height="14.4"/>
	<rect x="737.0219" y="664.7" width="14.4" height="14.4"/>
	<rect x="751.4219" y="664.7" width="14.4" height="14.4"/>
	<rect x="247.4219" y="679.1" width="14.4" height="14.4"/>
	<rect x="261.8219" y="679.1" width="14.4" height="14.4"/>
	<rect x="348.2219" y="679.1" width="14.4" height="14.4"/>
	<rect x="636.2219" y="679.1" width="14.4" height="14.4"/>
	<rect x="722.6219" y="679.1" width="14.4" height="14.4"/>
	<rect x="737.0219" y="679.1" width="14.4" height="14.4"/>
	<rect x="261.8219" y="693.5" width="14.4" height="14.4"/>
	<rect x="348.2219" y="693.5" width="14.4" height="14.4"/>
	<rect x="362.6219" y="693.5" width="14.4" height="14.4"/>
	<rect x="621.8219" y="693.5" width="14.4" height="14.4"/>
	<rect x="636.2219" y="693.5" width="14.4" height="14.4"/>
	<rect x="722.6219" y="693.5" width="14.4" height="14.4"/>
	<rect x="261.8219" y="707.9" width="14.4" height="14.4"/>
	<rect x="276.2219" y="707.9" width="14.4" height="14.4"/>
	<rect x="362.6219" y="707.9" width="14.4" height="14.4"/>
	<rect x="621.8219" y="707.9" width="14.4" height="14.4"/>
	<rect x="708.2219" y="707.9" width="14.4" height="14.4"/>
	<rect x="722.6219" y="707.9" width="14.4" height="14.4"/>
	<rect x="276.2219" y="722.3" width="14.4" height="14.4"/>
	<rect x="362.6219" y="722.3" width="14.4" height="14.4"/>
	<rect x="621.8219" y="722.3" width="14.4" height="14.4"/>
	<rect x="708.2219" y="722.3" width="14.4" height="14.4"/>
	<rect x="276.2219" y="736.7" width="14.4" height="14.4"/>
	<rect x="290.6219" y="736.7" width="14.4" height="14.4"/>
	<rect x="305.0219" y="736.7" width="14.4" height="14.4"/>
	<rect x="362.6219" y="736.7" width="14.4" height="14.4"/>
	<rect x="377.0219" y="736.7" width="14.4" height="14.4"/>
	<rect x="607.4219" y="736.7" width="14.4" height="14.4"/>
	<rect x="621.8219" y="736.7" width="14.4" height="14.4"/>
	<rect x="679.4219" y="736.7" width="14.4" height="14.4"/>
	<rect x="693.8219" y="736.7" width="14.4" height="14.4"/>
	<rect x="708.2219" y="736.7" width="14.4" height="14.4"/>
	<rect x="305.0219" y="751.1" width="14.4" height="14.4"/>
	<rect x="319.4219" y="751.1" width="14.4" height="14.4"/>
	<rect x="333.8219" y="751.1" width="14.4" height="14.4"/>
	<rect x="377.0219" y="751.1" width="14.4" height="14.4"/>
	<rect x="607.4219" y="751.1" width="14.4" height="14.4"/>
	<rect x="650.6219" y="751.1" width="14.4" height="14.4"/>
	<rect x="665.0219" y="751.1" width="14.4" height="14.4"/>
	<rect x="679.4219" y="751.1" width="14.4" height="14.4"/>
	<rect x="333.8219" y="765.5" width="14.4" height="14.4"/>
	<rect x="348.2219" y="765.5" width="14.4" height="14.4"/>
	<rect x="377.0219" y="765.5" width="14.4" height="14.4"/>
	<rect x="607.4219" y="765.5" width="14.4" height="14.4"/>
	<rect x="636.2219" y="765.5" width="14.4" height="14.4"/>
	<rect x="650.6219" y="765.5" width="14.4" height="14.4"/>
	<rect x="348.2219" y="779.9" width="14.4" height="14.4"/>
	<rect x="362.6219" y="779.9" width="14.4" height="14.4"/>
	<rect x="377.0219" y="779.9" width="14.4" height="14.4"/>
	<rect x="391.4219" y="779.9" width="14.4" height="14.4"/>
	<rect x="593.0219" y="779.9" width="14.4" height="14.4"/>
	<rect x="607.4219" y="779.9" width="14.4" height="14.4"/>
	<rect x="621.8219" y="779.9" width="14.4" height="14.4"/>
	<rect x="636.2219" y="779.9" width="14.4" height="14.4"/>
	<rect x="377.0219" y="794.3" width="14.4" height="14.4"/>
	<rect x="391.4219" y="794.3" width="14.4" height="14.4"/>
	<rect x="405.8219" y="794.3" width="14.4" height="14.4"/>
	<rect x="420.2219" y="794.3" width="14.4" height="14.4"/>
	<rect x="434.6219" y="794.3" width="14.4" height="14.4"/>
	<rect x="449.0219" y="794.3" width="14.4" height="14.4"/>
	<rect x="463.4219" y="794.3" width="14.4" height="14.4"/>
	<rect x="477.8219" y="794.3" width="14.4" height="14.4"/>
	<rect x="492.2219" y="794.3" width="14.4" height="14.4"/>
	<rect x="506.6219" y="794.3" width="14.4" height="14.4"/>
	<rect x="521.0219" y="794.3" width="14.4" height="14.4"/>
	<rect x="535.4219" y="794.3" width="14.4" height="14.4"/>
	<rect x="549.8219" y="794.3" width="14.4" height="14.4"/>
	<rect x="564.2219" y="794.3" width="14.4" height="14.4"/>
	<rect x="578.6219" y="794.3" width="14.4" height="14.4"/>
	<rect x="593.0219" y="794.3" width="14.4" height="14.4"/>
	<rect x="607.4219" y="794.3" width="14.4" height="14.4"/>
</g>
</svg>
