<?xml version="1.0" encoding="utf-8"?>
<!-- Generator: Adobe Illustrator 27.0.0, SVG Export Plug-In . SVG Version: 6.00 Build 0)  -->
<svg version="1.1" id="Layer_1" xmlns="http://www.w3.org/2000/svg" xmlns:xlink="http://www.w3.org/1999/xlink" x="0px" y="0px"
	 viewBox="0 0 1000 1000" style="enable-background:new 0 0 1000 1000;" xml:space="preserve">
<g>
	<rect x="440" y="176" width="12" height="12"/>
	<rect x="452" y="176" width="12" height="12"/>
	<rect x="464" y="176" width="12" height="12"/>
	<rect x="476" y="176" width="12" height="12"/>
	<rect x="488" y="176" width="12" height="12"/>
	<rect x="500" y="176" width="12" height="12"/>
	<rect x="512" y="176" width="12" height="12"/>
	<rect x="524" y="176" width="12" height="12"/>
	<rect x="536" y="176" width="12" height="12"/>
	<rect x="548" y="176" width="12" height="12"/>
	<rect x="392" y="188" width="12" height="12"/>
	<rect x="404" y="188" width="12" height="12"/>
	<rect x="416" y="188" width="12" height="12"/>
	<rect x="428" y="188" width="12" height="12"/>
	<rect x="440" y="188" width="12" height="12"/>
	<rect x="452" y="188" width="12" height="12"/>
	<rect x="464" y="188" width="12" height="12"/>
	<rect x="476" y="188" width="12" height="12"/>
	<rect x="488" y="188" width="12" height="12"/>
	<rect x="500" y="188" width="12" height="12"/>
	<rect x="512" y="188" width="12" height="12"/>
	<rect x="524" y="188" width="12" height="12"/>
	<rect x="536" y="188" width="12" height="12"/>
	<rect x="548" y="188" width="12" height="12"/>
	<rect x="560" y="188" width="12" height="12"/>
	<rect x="572" y="188" width="12" height="12"/>
	<rect x="584" y="188" width="12" height="12"/>
	<rect x="596" y="188" width="12" height="12"/>
	<rect x="368" y="200" width="12" height="12"/>
	<rect x="380" y="200" width="12" height="12"/>
	<rect x="392" y="200" width="12" height="12"/>
	<rect x="404" y="200" width="12" height="12"/>
	<rect x="416" y="200" width="12" height="12"/>
	<rect x="428" y="200" width="12" height="12"/>
	<rect x="440" y="200" width="12" height="12"/>
	<rect x="452" y="200" width="12" height="12"/>
	<rect x="464" y="200" width="12" height="12"/>
	<rect x="476" y="200" width="12" height="12"/>
	<rect x="512" y="200" width="12" height="12"/>
	<rect x="524" y="200" width="12" height="12"/>
	<rect x="536" y="200" width="12" height="12"/>
	<rect x="548" y="200" width="12" height="12"/>
	<rect x="560" y="200" width="12" height="12"/>
	<rect x="572" y="200" width="12" height="12"/>
	<rect x="584" y="200" width="12" height="12"/>
	<rect x="596" y="200" width="12" height="12"/>
	<rect x="608" y="200" width="12" height="12"/>
	<rect x="620" y="200" width="12" height="12"/>
	<rect x="344" y="212" width="12" height="12"/>
	<rect x="356" y="212" width="12" height="12"/>
	<rect x="368" y="212" width="12" height="12"/>
	<rect x="380" y="212" width="12" height="12"/>
	<rect x="392" y="212" width="12" height="12"/>
	<rect x="404" y="212" width="12" height="12"/>
	<rect x="416" y="212" width="12" height="12"/>
	<rect x="428" y="212" width="12" height="12"/>
	<rect x="452" y="212" width="12" height="12"/>
	<rect x="464" y="212" width="12" height="12"/>
	<rect x="524" y="212" width="12" height="12"/>
	<rect x="536" y="212" width="12" height="12"/>
	<rect x="560" y="212" width="12" height="12"/>
	<rect x="572" y="212" width="12" height="12"/>
	<rect x="584" y="212" width="12" height="12"/>
	<rect x="596" y="212" width="12" height="12"/>
	<rect x="608" y="212" width="12" height="12"/>
	<rect x="620" y="212" width="12" height="12"/>
	<rect x="632" y="212" width="12" height="12"/>
	<rect x="644" y="212" width="12" height="12"/>
	<rect x="320" y="224" width="12" height="12"/>
	<rect x="332" y="224" width="12" height="12"/>
	<rect x="344" y="224" width="12" height="12"/>
	<rect x="356" y="224" width="12" height="12"/>
	<rect x="380" y="224" width="12" height="12"/>
	<rect x="392" y="224" width="12" height="12"/>
	<rect x="404" y="224" width="12" height="12"/>
	<rect x="452" y="224" width="12" height="12"/>
	<rect x="464" y="224" width="12" height="12"/>
	<rect x="524" y="224" width="12" height="12"/>
	<rect x="536" y="224" width="12" height="12"/>
	<rect x="584" y="224" width="12" height="12"/>
	<rect x="596" y="224" width="12" height="12"/>
	<rect x="608" y="224" width="12" height="12"/>
	<rect x="632" y="224" width="12" height="12"/>
	<rect x="644" y="224" width="12" height="12"/>
	<rect x="656" y="224" width="12" height="12"/>
	<rect x="668" y="224" width="12" height="12"/>
	<rect x="308" y="236" width="12" height="12"/>
	<rect x="320" y="236" width="12" height="12"/>
	<rect x="332" y="236" width="12" height="12"/>
	<rect x="368" y="236" width="12" height="12"/>
	<rect x="380" y="236" width="12" height="12"/>
	<rect x="392" y="236" width="12" height="12"/>
	<rect x="440" y="236" width="12" height="12"/>
	<rect x="452" y="236" width="12" height="12"/>
	<rect x="536" y="236" width="12" height="12"/>
	<rect x="548" y="236" width="12" height="12"/>
	<rect x="596" y="236" width="12" height="12"/>
	<rect x="608" y="236" width="12" height="12"/>
	<rect x="620" y="236" width="12" height="12"/>
	<rect x="656" y="236" width="12" height="12"/>
	<rect x="668" y="236" width="12" height="12"/>
	<rect x="680" y="236" width="12" height="12"/>
	<rect x="284" y="248" width="12" height="12"/>
	<rect x="296" y="248" width="12" height="12"/>
	<rect x="308" y="248" width="12" height="12"/>
	<rect x="320" y="248" width="12" height="12"/>
	<rect x="356" y="248" width="12" height="12"/>
	<rect x="368" y="248" width="12" height="12"/>
	<rect x="380" y="248" width="12" height="12"/>
	<rect x="440" y="248" width="12" height="12"/>
	<rect x="452" y="248" width="12" height="12"/>
	<rect x="536" y="248" width="12" height="12"/>
	<rect x="548" y="248" width="12" height="12"/>
	<rect x="608" y="248" width="12" height="12"/>
	<rect x="620" y="248" width="12" height="12"/>
	<rect x="632" y="248" width="12" height="12"/>
	<rect x="668" y="248" width="12" height="12"/>
	<rect x="680" y="248" width="12" height="12"/>
	<rect x="692" y="248" width="12" height="12"/>
	<rect x="704" y="248" width="12" height="12"/>
	<rect x="272" y="260" width="12" height="12"/>
	<rect x="284" y="260" width="12" height="12"/>
	<rect x="296" y="260" width="12" height="12"/>
	<rect x="308" y="260" width="12" height="12"/>
	<rect x="356" y="260" width="12" height="12"/>
	<rect x="368" y="260" width="12" height="12"/>
	<rect x="440" y="260" width="12" height="12"/>
	<rect x="452" y="260" width="12" height="12"/>
	<rect x="536" y="260" width="12" height="12"/>
	<rect x="548" y="260" width="12" height="12"/>
	<rect x="620" y="260" width="12" height="12"/>
	<rect x="632" y="260" width="12" height="12"/>
	<rect x="680" y="260" width="12" height="12"/>
	<rect x="692" y="260" width="12" height="12"/>
	<rect x="704" y="260" width="12" height="12"/>
	<rect x="716" y="260" width="12" height="12"/>
	<rect x="260" y="272" width="12" height="12"/>
	<rect x="272" y="272" width="12" height="12"/>
	<rect x="284" y="272" width="12" height="12"/>
	<rect x="344" y="272" width="12" height="12"/>
	<rect x="356" y="272" width="12" height="12"/>
	<rect x="368" y="272" width="12" height="12"/>
	<rect x="428" y="272" width="12" height="12"/>
	<rect x="440" y="272" width="12" height="12"/>
	<rect x="548" y="272" width="12" height="12"/>
	<rect x="560" y="272" width="12" height="12"/>
	<rect x="620" y="272" width="12" height="12"/>
	<rect x="632" y="272" width="12" height="12"/>
	<rect x="644" y="272" width="12" height="12"/>
	<rect x="704" y="272" width="12" height="12"/>
	<rect x="716" y="272" width="12" height="12"/>
	<rect x="728" y="272" width="12" height="12"/>
	<rect x="248" y="284" width="12" height="12"/>
	<rect x="260" y="284" width="12" height="12"/>
	<rect x="272" y="284" width="12" height="12"/>
	<rect x="332" y="284" width="12" height="12"/>
	<rect x="344" y="284" width="12" height="12"/>
	<rect x="356" y="284" width="12" height="12"/>
	<rect x="428" y="284" width="12" height="12"/>
	<rect x="440" y="284" width="12" height="12"/>
	<rect x="548" y="284" width="12" height="12"/>
	<rect x="560" y="284" width="12" height="12"/>
	<rect x="632" y="284" width="12" height="12"/>
	<rect x="644" y="284" width="12" height="12"/>
	<rect x="656" y="284" width="12" height="12"/>
	<rect x="716" y="284" width="12" height="12"/>
	<rect x="728" y="284" width="12" height="12"/>
	<rect x="740" y="284" width="12" height="12"/>
	<rect x="248" y="296" width="12" height="12"/>
	<rect x="260" y="296" width="12" height="12"/>
	<rect x="272" y="296" width="12" height="12"/>
	<rect x="332" y="296" width="12" height="12"/>
	<rect x="344" y="296" width="12" height="12"/>
	<rect x="428" y="296" width="12" height="12"/>
	<rect x="440" y="296" width="12" height="12"/>
	<rect x="548" y="296" width="12" height="12"/>
	<rect x="560" y="296" width="12" height="12"/>
	<rect x="644" y="296" width="12" height="12"/>
	<rect x="656" y="296" width="12" height="12"/>
	<rect x="716" y="296" width="12" height="12"/>
	<rect x="728" y="296" width="12" height="12"/>
	<rect x="740" y="296" width="12" height="12"/>
	<rect x="236" y="308" width="12" height="12"/>
	<rect x="248" y="308" width="12" height="12"/>
	<rect x="260" y="308" width="12" height="12"/>
	<rect x="272" y="308" width="12" height="12"/>
	<rect x="284" y="308" width="12" height="12"/>
	<rect x="296" y="308" width="12" height="12"/>
	<rect x="320" y="308" width="12" height="12"/>
	<rect x="332" y="308" width="12" height="12"/>
	<rect x="344" y="308" width="12" height="12"/>
	<rect x="428" y="308" width="12" height="12"/>
	<rect x="440" y="308" width="12" height="12"/>
	<rect x="548" y="308" width="12" height="12"/>
	<rect x="560" y="308" width="12" height="12"/>
	<rect x="644" y="308" width="12" height="12"/>
	<rect x="656" y="308" width="12" height="12"/>
	<rect x="668" y="308" width="12" height="12"/>
	<rect x="692" y="308" width="12" height="12"/>
	<rect x="704" y="308" width="12" height="12"/>
	<rect x="716" y="308" width="12" height="12"/>
	<rect x="728" y="308" width="12" height="12"/>
	<rect x="740" y="308" width="12" height="12"/>
	<rect x="752" y="308" width="12" height="12"/>
	<rect x="224" y="320" width="12" height="12"/>
	<rect x="236" y="320" width="12" height="12"/>
	<rect x="248" y="320" width="12" height="12"/>
	<rect x="272" y="320" width="12" height="12"/>
	<rect x="284" y="320" width="12" height="12"/>
	<rect x="296" y="320" width="12" height="12"/>
	<rect x="308" y="320" width="12" height="12"/>
	<rect x="320" y="320" width="12" height="12"/>
	<rect x="332" y="320" width="12" height="12"/>
	<rect x="416" y="320" width="12" height="12"/>
	<rect x="428" y="320" width="12" height="12"/>
	<rect x="440" y="320" width="12" height="12"/>
	<rect x="548" y="320" width="12" height="12"/>
	<rect x="560" y="320" width="12" height="12"/>
	<rect x="572" y="320" width="12" height="12"/>
	<rect x="656" y="320" width="12" height="12"/>
	<rect x="668" y="320" width="12" height="12"/>
	<rect x="680" y="320" width="12" height="12"/>
	<rect x="692" y="320" width="12" height="12"/>
	<rect x="704" y="320" width="12" height="12"/>
	<rect x="716" y="320" width="12" height="12"/>
	<rect x="740" y="320" width="12" height="12"/>
	<rect x="752" y="320" width="12" height="12"/>
	<rect x="764" y="320" width="12" height="12"/>
	<rect x="224" y="332" width="12" height="12"/>
	<rect x="236" y="332" width="12" height="12"/>
	<rect x="296" y="332" width="12" height="12"/>
	<rect x="308" y="332" width="12" height="12"/>
	<rect x="320" y="332" width="12" height="12"/>
	<rect x="332" y="332" width="12" height="12"/>
	<rect x="344" y="332" width="12" height="12"/>
	<rect x="356" y="332" width="12" height="12"/>
	<rect x="368" y="332" width="12" height="12"/>
	<rect x="380" y="332" width="12" height="12"/>
	<rect x="416" y="332" width="12" height="12"/>
	<rect x="428" y="332" width="12" height="12"/>
	<rect x="560" y="332" width="12" height="12"/>
	<rect x="572" y="332" width="12" height="12"/>
	<rect x="608" y="332" width="12" height="12"/>
	<rect x="620" y="332" width="12" height="12"/>
	<rect x="632" y="332" width="12" height="12"/>
	<rect x="644" y="332" width="12" height="12"/>
	<rect x="656" y="332" width="12" height="12"/>
	<rect x="668" y="332" width="12" height="12"/>
	<rect x="680" y="332" width="12" height="12"/>
	<rect x="692" y="332" width="12" height="12"/>
	<rect x="752" y="332" width="12" height="12"/>
	<rect x="764" y="332" width="12" height="12"/>
	<rect x="212" y="344" width="12" height="12"/>
	<rect x="224" y="344" width="12" height="12"/>
	<rect x="308" y="344" width="12" height="12"/>
	<rect x="320" y="344" width="12" height="12"/>
	<rect x="332" y="344" width="12" height="12"/>
	<rect x="344" y="344" width="12" height="12"/>
	<rect x="356" y="344" width="12" height="12"/>
	<rect x="368" y="344" width="12" height="12"/>
	<rect x="380" y="344" width="12" height="12"/>
	<rect x="392" y="344" width="12" height="12"/>
	<rect x="404" y="344" width="12" height="12"/>
	<rect x="416" y="344" width="12" height="12"/>
	<rect x="428" y="344" width="12" height="12"/>
	<rect x="440" y="344" width="12" height="12"/>
	<rect x="452" y="344" width="12" height="12"/>
	<rect x="464" y="344" width="12" height="12"/>
	<rect x="476" y="344" width="12" height="12"/>
	<rect x="488" y="344" width="12" height="12"/>
	<rect x="500" y="344" width="12" height="12"/>
	<rect x="512" y="344" width="12" height="12"/>
	<rect x="524" y="344" width="12" height="12"/>
	<rect x="536" y="344" width="12" height="12"/>
	<rect x="548" y="344" width="12" height="12"/>
	<rect x="560" y="344" width="12" height="12"/>
	<rect x="572" y="344" width="12" height="12"/>
	<rect x="584" y="344" width="12" height="12"/>
	<rect x="596" y="344" width="12" height="12"/>
	<rect x="608" y="344" width="12" height="12"/>
	<rect x="620" y="344" width="12" height="12"/>
	<rect x="632" y="344" width="12" height="12"/>
	<rect x="644" y="344" width="12" height="12"/>
	<rect x="656" y="344" width="12" height="12"/>
	<rect x="668" y="344" width="12" height="12"/>
	<rect x="680" y="344" width="12" height="12"/>
	<rect x="764" y="344" width="12" height="12"/>
	<rect x="776" y="344" width="12" height="12"/>
	<rect x="212" y="356" width="12" height="12"/>
	<rect x="224" y="356" width="12" height="12"/>
	<rect x="308" y="356" width="12" height="12"/>
	<rect x="320" y="356" width="12" height="12"/>
	<rect x="380" y="356" width="12" height="12"/>
	<rect x="392" y="356" width="12" height="12"/>
	<rect x="404" y="356" width="12" height="12"/>
	<rect x="416" y="356" width="12" height="12"/>
	<rect x="428" y="356" width="12" height="12"/>
	<rect x="440" y="356" width="12" height="12"/>
	<rect x="452" y="356" width="12" height="12"/>
	<rect x="464" y="356" width="12" height="12"/>
	<rect x="476" y="356" width="12" height="12"/>
	<rect x="488" y="356" width="12" height="12"/>
	<rect x="500" y="356" width="12" height="12"/>
	<rect x="512" y="356" width="12" height="12"/>
	<rect x="524" y="356" width="12" height="12"/>
	<rect x="536" y="356" width="12" height="12"/>
	<rect x="548" y="356" width="12" height="12"/>
	<rect x="560" y="356" width="12" height="12"/>
	<rect x="572" y="356" width="12" height="12"/>
	<rect x="584" y="356" width="12" height="12"/>
	<rect x="596" y="356" width="12" height="12"/>
	<rect x="608" y="356" width="12" height="12"/>
	<rect x="668" y="356" width="12" height="12"/>
	<rect x="680" y="356" width="12" height="12"/>
	<rect x="764" y="356" width="12" height="12"/>
	<rect x="776" y="356" width="12" height="12"/>
	<rect x="200" y="368" width="12" height="12"/>
	<rect x="212" y="368" width="12" height="12"/>
	<rect x="308" y="368" width="12" height="12"/>
	<rect x="320" y="368" width="12" height="12"/>
	<rect x="416" y="368" width="12" height="12"/>
	<rect x="428" y="368" width="12" height="12"/>
	<rect x="464" y="368" width="12" height="12"/>
	<rect x="476" y="368" width="12" height="12"/>
	<rect x="488" y="368" width="12" height="12"/>
	<rect x="500" y="368" width="12" height="12"/>
	<rect x="512" y="368" width="12" height="12"/>
	<rect x="524" y="368" width="12" height="12"/>
	<rect x="560" y="368" width="12" height="12"/>
	<rect x="572" y="368" width="12" height="12"/>
	<rect x="668" y="368" width="12" height="12"/>
	<rect x="680" y="368" width="12" height="12"/>
	<rect x="776" y="368" width="12" height="12"/>
	<rect x="788" y="368" width="12" height="12"/>
	<rect x="200" y="380" width="12" height="12"/>
	<rect x="212" y="380" width="12" height="12"/>
	<rect x="296" y="380" width="12" height="12"/>
	<rect x="308" y="380" width="12" height="12"/>
	<rect x="320" y="380" width="12" height="12"/>
	<rect x="416" y="380" width="12" height="12"/>
	<rect x="428" y="380" width="12" height="12"/>
	<rect x="560" y="380" width="12" height="12"/>
	<rect x="572" y="380" width="12" height="12"/>
	<rect x="668" y="380" width="12" height="12"/>
	<rect x="680" y="380" width="12" height="12"/>
	<rect x="692" y="380" width="12" height="12"/>
	<rect x="776" y="380" width="12" height="12"/>
	<rect x="788" y="380" width="12" height="12"/>
	<rect x="188" y="392" width="12" height="12"/>
	<rect x="200" y="392" width="12" height="12"/>
	<rect x="212" y="392" width="12" height="12"/>
	<rect x="296" y="392" width="12" height="12"/>
	<rect x="308" y="392" width="12" height="12"/>
	<rect x="416" y="392" width="12" height="12"/>
	<rect x="428" y="392" width="12" height="12"/>
	<rect x="560" y="392" width="12" height="12"/>
	<rect x="572" y="392" width="12" height="12"/>
	<rect x="680" y="392" width="12" height="12"/>
	<rect x="692" y="392" width="12" height="12"/>
	<rect x="776" y="392" width="12" height="12"/>
	<rect x="788" y="392" width="12" height="12"/>
	<rect x="800" y="392" width="12" height="12"/>
	<rect x="188" y="404" width="12" height="12"/>
	<rect x="200" y="404" width="12" height="12"/>
	<rect x="296" y="404" width="12" height="12"/>
	<rect x="308" y="404" width="12" height="12"/>
	<rect x="416" y="404" width="12" height="12"/>
	<rect x="428" y="404" width="12" height="12"/>
	<rect x="560" y="404" width="12" height="12"/>
	<rect x="572" y="404" width="12" height="12"/>
	<rect x="680" y="404" width="12" height="12"/>
	<rect x="692" y="404" width="12" height="12"/>
	<rect x="788" y="404" width="12" height="12"/>
	<rect x="800" y="404" width="12" height="12"/>
	<rect x="188" y="416" width="12" height="12"/>
	<rect x="200" y="416" width="12" height="12"/>
	<rect x="296" y="416" width="12" height="12"/>
	<rect x="308" y="416" width="12" height="12"/>
	<rect x="416" y="416" width="12" height="12"/>
	<rect x="428" y="416" width="12" height="12"/>
	<rect x="560" y="416" width="12" height="12"/>
	<rect x="572" y="416" width="12" height="12"/>
	<rect x="680" y="416" width="12" height="12"/>
	<rect x="692" y="416" width="12" height="12"/>
	<rect x="788" y="416" width="12" height="12"/>
	<rect x="800" y="416" width="12" height="12"/>
	<rect x="188" y="428" width="12" height="12"/>
	<rect x="200" y="428" width="12" height="12"/>
	<rect x="296" y="428" width="12" height="12"/>
	<rect x="308" y="428" width="12" height="12"/>
	<rect x="404" y="428" width="12" height="12"/>
	<rect x="416" y="428" width="12" height="12"/>
	<rect x="428" y="428" width="12" height="12"/>
	<rect x="560" y="428" width="12" height="12"/>
	<rect x="572" y="428" width="12" height="12"/>
	<rect x="584" y="428" width="12" height="12"/>
	<rect x="680" y="428" width="12" height="12"/>
	<rect x="692" y="428" width="12" height="12"/>
	<rect x="788" y="428" width="12" height="12"/>
	<rect x="800" y="428" width="12" height="12"/>
	<rect x="176" y="440" width="12" height="12"/>
	<rect x="188" y="440" width="12" height="12"/>
	<rect x="200" y="440" width="12" height="12"/>
	<rect x="284" y="440" width="12" height="12"/>
	<rect x="296" y="440" width="12" height="12"/>
	<rect x="308" y="440" width="12" height="12"/>
	<rect x="404" y="440" width="12" height="12"/>
	<rect x="416" y="440" width="12" height="12"/>
	<rect x="428" y="440" width="12" height="12"/>
	<rect x="560" y="440" width="12" height="12"/>
	<rect x="572" y="440" width="12" height="12"/>
	<rect x="584" y="440" width="12" height="12"/>
	<rect x="680" y="440" width="12" height="12"/>
	<rect x="692" y="440" width="12" height="12"/>
	<rect x="704" y="440" width="12" height="12"/>
	<rect x="788" y="440" width="12" height="12"/>
	<rect x="800" y="440" width="12" height="12"/>
	<rect x="812" y="440" width="12" height="12"/>
	<rect x="176" y="452" width="12" height="12"/>
	<rect x="188" y="452" width="12" height="12"/>
	<rect x="284" y="452" width="12" height="12"/>
	<rect x="296" y="452" width="12" height="12"/>
	<rect x="308" y="452" width="12" height="12"/>
	<rect x="404" y="452" width="12" height="12"/>
	<rect x="416" y="452" width="12" height="12"/>
	<rect x="428" y="452" width="12" height="12"/>
	<rect x="560" y="452" width="12" height="12"/>
	<rect x="572" y="452" width="12" height="12"/>
	<rect x="584" y="452" width="12" height="12"/>
	<rect x="680" y="452" width="12" height="12"/>
	<rect x="692" y="452" width="12" height="12"/>
	<rect x="704" y="452" width="12" height="12"/>
	<rect x="800" y="452" width="12" height="12"/>
	<rect x="812" y="452" width="12" height="12"/>
	<rect x="176" y="464" width="12" height="12"/>
	<rect x="188" y="464" width="12" height="12"/>
	<rect x="284" y="464" width="12" height="12"/>
	<rect x="296" y="464" width="12" height="12"/>
	<rect x="404" y="464" width="12" height="12"/>
	<rect x="416" y="464" width="12" height="12"/>
	<rect x="572" y="464" width="12" height="12"/>
	<rect x="584" y="464" width="12" height="12"/>
	<rect x="692" y="464" width="12" height="12"/>
	<rect x="704" y="464" width="12" height="12"/>
	<rect x="800" y="464" width="12" height="12"/>
	<rect x="812" y="464" width="12" height="12"/>
	<rect x="176" y="476" width="12" height="12"/>
	<rect x="188" y="476" width="12" height="12"/>
	<rect x="284" y="476" width="12" height="12"/>
	<rect x="296" y="476" width="12" height="12"/>
	<rect x="404" y="476" width="12" height="12"/>
	<rect x="416" y="476" width="12" height="12"/>
	<rect x="572" y="476" width="12" height="12"/>
	<rect x="584" y="476" width="12" height="12"/>
	<rect x="692" y="476" width="12" height="12"/>
	<rect x="704" y="476" width="12" height="12"/>
	<rect x="800" y="476" width="12" height="12"/>
	<rect x="812" y="476" width="12" height="12"/>
	<rect x="176" y="488" width="12" height="12"/>
	<rect x="188" y="488" width="12" height="12"/>
	<rect x="200" y="488" width="12" height="12"/>
	<rect x="212" y="488" width="12" height="12"/>
	<rect x="224" y="488" width="12" height="12"/>
	<rect x="236" y="488" width="12" height="12"/>
	<rect x="248" y="488" width="12" height="12"/>
	<rect x="260" y="488" width="12" height="12"/>
	<rect x="272" y="488" width="12" height="12"/>
	<rect x="284" y="488" width="12" height="12"/>
	<rect x="296" y="488" width="12" height="12"/>
	<rect x="308" y="488" width="12" height="12"/>
	<rect x="320" y="488" width="12" height="12"/>
	<rect x="332" y="488" width="12" height="12"/>
	<rect x="344" y="488" width="12" height="12"/>
	<rect x="356" y="488" width="12" height="12"/>
	<rect x="368" y="488" width="12" height="12"/>
	<rect x="380" y="488" width="12" height="12"/>
	<rect x="392" y="488" width="12" height="12"/>
	<rect x="404" y="488" width="12" height="12"/>
	<rect x="416" y="488" width="12" height="12"/>
	<rect x="428" y="488" width="12" height="12"/>
	<rect x="440" y="488" width="12" height="12"/>
	<rect x="452" y="488" width="12" height="12"/>
	<rect x="464" y="488" width="12" height="12"/>
	<rect x="476" y="488" width="12" height="12"/>
	<rect x="488" y="488" width="12" height="12"/>
	<rect x="500" y="488" width="12" height="12"/>
	<rect x="512" y="488" width="12" height="12"/>
	<rect x="524" y="488" width="12" height="12"/>
	<rect x="536" y="488" width="12" height="12"/>
	<rect x="548" y="488" width="12" height="12"/>
	<rect x="560" y="488" width="12" height="12"/>
	<rect x="572" y="488" width="12" height="12"/>
	<rect x="584" y="488" width="12" height="12"/>
	<rect x="596" y="488" width="12" height="12"/>
	<rect x="608" y="488" width="12" height="12"/>
	<rect x="620" y="488" width="12" height="12"/>
	<rect x="632" y="488" width="12" height="12"/>
	<rect x="644" y="488" width="12" height="12"/>
	<rect x="656" y="488" width="12" height="12"/>
	<rect x="668" y="488" width="12" height="12"/>
	<rect x="680" y="488" width="12" height="12"/>
	<rect x="692" y="488" width="12" height="12"/>
	<rect x="704" y="488" width="12" height="12"/>
	<rect x="716" y="488" width="12" height="12"/>
	<rect x="728" y="488" width="12" height="12"/>
	<rect x="740" y="488" width="12" height="12"/>
	<rect x="752" y="488" width="12" height="12"/>
	<rect x="764" y="488" width="12" height="12"/>
	<rect x="776" y="488" width="12" height="12"/>
	<rect x="788" y="488" width="12" height="12"/>
	<rect x="800" y="488" width="12" height="12"/>
	<rect x="812" y="488" width="12" height="12"/>
	<rect x="176" y="500" width="12" height="12"/>
	<rect x="188" y="500" width="12" height="12"/>
	<rect x="200" y="500" width="12" height="12"/>
	<rect x="212" y="500" width="12" height="12"/>
	<rect x="224" y="500" width="12" height="12"/>
	<rect x="236" y="500" width="12" height="12"/>
	<rect x="248" y="500" width="12" height="12"/>
	<rect x="260" y="500" width="12" height="12"/>
	<rect x="272" y="500" width="12" height="12"/>
	<rect x="284" y="500" width="12" height="12"/>
	<rect x="296" y="500" width="12" height="12"/>
	<rect x="308" y="500" width="12" height="12"/>
	<rect x="320" y="500" width="12" height="12"/>
	<rect x="332" y="500" width="12" height="12"/>
	<rect x="344" y="500" width="12" height="12"/>
	<rect x="356" y="500" width="12" height="12"/>
	<rect x="368" y="500" width="12" height="12"/>
	<rect x="380" y="500" width="12" height="12"/>
	<rect x="392" y="500" width="12" height="12"/>
	<rect x="404" y="500" width="12" height="12"/>
	<rect x="416" y="500" width="12" height="12"/>
	<rect x="428" y="500" width="12" height="12"/>
	<rect x="440" y="500" width="12" height="12"/>
	<rect x="452" y="500" width="12" height="12"/>
	<rect x="464" y="500" width="12" height="12"/>
	<rect x="476" y="500" width="12" height="12"/>
	<rect x="488" y="500" width="12" height="12"/>
	<rect x="500" y="500" width="12" height="12"/>
	<rect x="512" y="500" width="12" height="12"/>
	<rect x="524" y="500" width="12" height="12"/>
	<rect x="536" y="500" width="12" height="12"/>
	<rect x="548" y="500" width="12" height="12"/>
	<rect x="560" y="500" width="12" height="12"/>
	<rect x="572" y="500" width="12" height="12"/>
	<rect x="584" y="500" width="12" height="12"/>
	<rect x="596" y="500" width="12" height="12"/>
	<rect x="608" y="500" width="12" height="12"/>
	<rect x="620" y="500" width="12" height="12"/>
	<rect x="632" y="500" width="12" height="12"/>
	<rect x="644" y="500" width="12" height="12"/>
	<rect x="656" y="500" width="12" height="12"/>
	<rect x="668" y="500" width="12" height="12"/>
	<rect x="680" y="500" width="12" height="12"/>
	<rect x="692" y="500" width="12" height="12"/>
	<rect x="704" y="500" width="12" height="12"/>
	<rect x="716" y="500" width="12" height="12"/>
	<rect x="728" y="500" width="12" height="12"/>
	<rect x="740" y="500" width="12" height="12"/>
	<rect x="752" y="500" width="12" height="12"/>
	<rect x="764" y="500" width="12" height="12"/>
	<rect x="776" y="500" width="12" height="12"/>
	<rect x="788" y="500" width="12" height="12"/>
	<rect x="800" y="500" width="12" height="12"/>
	<rect x="812" y="500" width="12" height="12"/>
	<rect x="176" y="512" width="12" height="12"/>
	<rect x="188" y="512" width="12" height="12"/>
	<rect x="284" y="512" width="12" height="12"/>
	<rect x="296" y="512" width="12" height="12"/>
	<rect x="404" y="512" width="12" height="12"/>
	<rect x="416" y="512" width="12" height="12"/>
	<rect x="572" y="512" width="12" height="12"/>
	<rect x="584" y="512" width="12" height="12"/>
	<rect x="692" y="512" width="12" height="12"/>
	<rect x="704" y="512" width="12" height="12"/>
	<rect x="800" y="512" width="12" height="12"/>
	<rect x="812" y="512" width="12" height="12"/>
	<rect x="176" y="524" width="12" height="12"/>
	<rect x="188" y="524" width="12" height="12"/>
	<rect x="284" y="524" width="12" height="12"/>
	<rect x="296" y="524" width="12" height="12"/>
	<rect x="404" y="524" width="12" height="12"/>
	<rect x="416" y="524" width="12" height="12"/>
	<rect x="572" y="524" width="12" height="12"/>
	<rect x="584" y="524" width="12" height="12"/>
	<rect x="692" y="524" width="12" height="12"/>
	<rect x="704" y="524" width="12" height="12"/>
	<rect x="800" y="524" width="12" height="12"/>
	<rect x="812" y="524" width="12" height="12"/>
	<rect x="176" y="536" width="12" height="12"/>
	<rect x="188" y="536" width="12" height="12"/>
	<rect x="284" y="536" width="12" height="12"/>
	<rect x="296" y="536" width="12" height="12"/>
	<rect x="308" y="536" width="12" height="12"/>
	<rect x="404" y="536" width="12" height="12"/>
	<rect x="416" y="536" width="12" height="12"/>
	<rect x="428" y="536" width="12" height="12"/>
	<rect x="560" y="536" width="12" height="12"/>
	<rect x="572" y="536" width="12" height="12"/>
	<rect x="584" y="536" width="12" height="12"/>
	<rect x="680" y="536" width="12" height="12"/>
	<rect x="692" y="536" width="12" height="12"/>
	<rect x="704" y="536" width="12" height="12"/>
	<rect x="800" y="536" width="12" height="12"/>
	<rect x="812" y="536" width="12" height="12"/>
	<rect x="176" y="548" width="12" height="12"/>
	<rect x="188" y="548" width="12" height="12"/>
	<rect x="200" y="548" width="12" height="12"/>
	<rect x="284" y="548" width="12" height="12"/>
	<rect x="296" y="548" width="12" height="12"/>
	<rect x="308" y="548" width="12" height="12"/>
	<rect x="404" y="548" width="12" height="12"/>
	<rect x="416" y="548" width="12" height="12"/>
	<rect x="428" y="548" width="12" height="12"/>
	<rect x="560" y="548" width="12" height="12"/>
	<rect x="572" y="548" width="12" height="12"/>
	<rect x="584" y="548" width="12" height="12"/>
	<rect x="680" y="548" width="12" height="12"/>
	<rect x="692" y="548" width="12" height="12"/>
	<rect x="704" y="548" width="12" height="12"/>
	<rect x="788" y="548" width="12" height="12"/>
	<rect x="800" y="548" width="12" height="12"/>
	<rect x="812" y="548" width="12" height="12"/>
	<rect x="188" y="560" width="12" height="12"/>
	<rect x="200" y="560" width="12" height="12"/>
	<rect x="296" y="560" width="12" height="12"/>
	<rect x="308" y="560" width="12" height="12"/>
	<rect x="404" y="560" width="12" height="12"/>
	<rect x="416" y="560" width="12" height="12"/>
	<rect x="428" y="560" width="12" height="12"/>
	<rect x="560" y="560" width="12" height="12"/>
	<rect x="572" y="560" width="12" height="12"/>
	<rect x="584" y="560" width="12" height="12"/>
	<rect x="680" y="560" width="12" height="12"/>
	<rect x="692" y="560" width="12" height="12"/>
	<rect x="788" y="560" width="12" height="12"/>
	<rect x="800" y="560" width="12" height="12"/>
	<rect x="188" y="572" width="12" height="12"/>
	<rect x="200" y="572" width="12" height="12"/>
	<rect x="296" y="572" width="12" height="12"/>
	<rect x="308" y="572" width="12" height="12"/>
	<rect x="416" y="572" width="12" height="12"/>
	<rect x="428" y="572" width="12" height="12"/>
	<rect x="560" y="572" width="12" height="12"/>
	<rect x="572" y="572" width="12" height="12"/>
	<rect x="680" y="572" width="12" height="12"/>
	<rect x="692" y="572" width="12" height="12"/>
	<rect x="788" y="572" width="12" height="12"/>
	<rect x="800" y="572" width="12" height="12"/>
	<rect x="188" y="584" width="12" height="12"/>
	<rect x="200" y="584" width="12" height="12"/>
	<rect x="296" y="584" width="12" height="12"/>
	<rect x="308" y="584" width="12" height="12"/>
	<rect x="416" y="584" width="12" height="12"/>
	<rect x="428" y="584" width="12" height="12"/>
	<rect x="560" y="584" width="12" height="12"/>
	<rect x="572" y="584" width="12" height="12"/>
	<rect x="680" y="584" width="12" height="12"/>
	<rect x="692" y="584" width="12" height="12"/>
	<rect x="788" y="584" width="12" height="12"/>
	<rect x="800" y="584" width="12" height="12"/>
	<rect x="188" y="596" width="12" height="12"/>
	<rect x="200" y="596" width="12" height="12"/>
	<rect x="212" y="596" width="12" height="12"/>
	<rect x="296" y="596" width="12" height="12"/>
	<rect x="308" y="596" width="12" height="12"/>
	<rect x="416" y="596" width="12" height="12"/>
	<rect x="428" y="596" width="12" height="12"/>
	<rect x="560" y="596" width="12" height="12"/>
	<rect x="572" y="596" width="12" height="12"/>
	<rect x="680" y="596" width="12" height="12"/>
	<rect x="692" y="596" width="12" height="12"/>
	<rect x="776" y="596" width="12" height="12"/>
	<rect x="788" y="596" width="12" height="12"/>
	<rect x="800" y="596" width="12" height="12"/>
	<rect x="200" y="608" width="12" height="12"/>
	<rect x="212" y="608" width="12" height="12"/>
	<rect x="296" y="608" width="12" height="12"/>
	<rect x="308" y="608" width="12" height="12"/>
	<rect x="320" y="608" width="12" height="12"/>
	<rect x="416" y="608" width="12" height="12"/>
	<rect x="428" y="608" width="12" height="12"/>
	<rect x="560" y="608" width="12" height="12"/>
	<rect x="572" y="608" width="12" height="12"/>
	<rect x="668" y="608" width="12" height="12"/>
	<rect x="680" y="608" width="12" height="12"/>
	<rect x="692" y="608" width="12" height="12"/>
	<rect x="776" y="608" width="12" height="12"/>
	<rect x="788" y="608" width="12" height="12"/>
	<rect x="200" y="620" width="12" height="12"/>
	<rect x="212" y="620" width="12" height="12"/>
	<rect x="308" y="620" width="12" height="12"/>
	<rect x="320" y="620" width="12" height="12"/>
	<rect x="416" y="620" width="12" height="12"/>
	<rect x="428" y="620" width="12" height="12"/>
	<rect x="464" y="620" width="12" height="12"/>
	<rect x="476" y="620" width="12" height="12"/>
	<rect x="488" y="620" width="12" height="12"/>
	<rect x="500" y="620" width="12" height="12"/>
	<rect x="512" y="620" width="12" height="12"/>
	<rect x="524" y="620" width="12" height="12"/>
	<rect x="560" y="620" width="12" height="12"/>
	<rect x="572" y="620" width="12" height="12"/>
	<rect x="668" y="620" width="12" height="12"/>
	<rect x="680" y="620" width="12" height="12"/>
	<rect x="776" y="620" width="12" height="12"/>
	<rect x="788" y="620" width="12" height="12"/>
	<rect x="212" y="632" width="12" height="12"/>
	<rect x="224" y="632" width="12" height="12"/>
	<rect x="308" y="632" width="12" height="12"/>
	<rect x="320" y="632" width="12" height="12"/>
	<rect x="380" y="632" width="12" height="12"/>
	<rect x="392" y="632" width="12" height="12"/>
	<rect x="404" y="632" width="12" height="12"/>
	<rect x="416" y="632" width="12" height="12"/>
	<rect x="428" y="632" width="12" height="12"/>
	<rect x="440" y="632" width="12" height="12"/>
	<rect x="452" y="632" width="12" height="12"/>
	<rect x="464" y="632" width="12" height="12"/>
	<rect x="476" y="632" width="12" height="12"/>
	<rect x="488" y="632" width="12" height="12"/>
	<rect x="500" y="632" width="12" height="12"/>
	<rect x="512" y="632" width="12" height="12"/>
	<rect x="524" y="632" width="12" height="12"/>
	<rect x="536" y="632" width="12" height="12"/>
	<rect x="548" y="632" width="12" height="12"/>
	<rect x="560" y="632" width="12" height="12"/>
	<rect x="572" y="632" width="12" height="12"/>
	<rect x="584" y="632" width="12" height="12"/>
	<rect x="596" y="632" width="12" height="12"/>
	<rect x="608" y="632" width="12" height="12"/>
	<rect x="668" y="632" width="12" height="12"/>
	<rect x="680" y="632" width="12" height="12"/>
	<rect x="764" y="632" width="12" height="12"/>
	<rect x="776" y="632" width="12" height="12"/>
	<rect x="212" y="644" width="12" height="12"/>
	<rect x="224" y="644" width="12" height="12"/>
	<rect x="308" y="644" width="12" height="12"/>
	<rect x="320" y="644" width="12" height="12"/>
	<rect x="332" y="644" width="12" height="12"/>
	<rect x="344" y="644" width="12" height="12"/>
	<rect x="356" y="644" width="12" height="12"/>
	<rect x="368" y="644" width="12" height="12"/>
	<rect x="380" y="644" width="12" height="12"/>
	<rect x="392" y="644" width="12" height="12"/>
	<rect x="404" y="644" width="12" height="12"/>
	<rect x="416" y="644" width="12" height="12"/>
	<rect x="428" y="644" width="12" height="12"/>
	<rect x="440" y="644" width="12" height="12"/>
	<rect x="452" y="644" width="12" height="12"/>
	<rect x="464" y="644" width="12" height="12"/>
	<rect x="476" y="644" width="12" height="12"/>
	<rect x="488" y="644" width="12" height="12"/>
	<rect x="500" y="644" width="12" height="12"/>
	<rect x="512" y="644" width="12" height="12"/>
	<rect x="524" y="644" width="12" height="12"/>
	<rect x="536" y="644" width="12" height="12"/>
	<rect x="548" y="644" width="12" height="12"/>
	<rect x="560" y="644" width="12" height="12"/>
	<rect x="572" y="644" width="12" height="12"/>
	<rect x="584" y="644" width="12" height="12"/>
	<rect x="596" y="644" width="12" height="12"/>
	<rect x="608" y="644" width="12" height="12"/>
	<rect x="620" y="644" width="12" height="12"/>
	<rect x="632" y="644" width="12" height="12"/>
	<rect x="644" y="644" width="12" height="12"/>
	<rect x="656" y="644" width="12" height="12"/>
	<rect x="668" y="644" width="12" height="12"/>
	<rect x="680" y="644" width="12" height="12"/>
	<rect x="764" y="644" width="12" height="12"/>
	<rect x="776" y="644" width="12" height="12"/>
	<rect x="224" y="656" width="12" height="12"/>
	<rect x="236" y="656" width="12" height="12"/>
	<rect x="296" y="656" width="12" height="12"/>
	<rect x="308" y="656" width="12" height="12"/>
	<rect x="320" y="656" width="12" height="12"/>
	<rect x="332" y="656" width="12" height="12"/>
	<rect x="344" y="656" width="12" height="12"/>
	<rect x="356" y="656" width="12" height="12"/>
	<rect x="368" y="656" width="12" height="12"/>
	<rect x="380" y="656" width="12" height="12"/>
	<rect x="416" y="656" width="12" height="12"/>
	<rect x="428" y="656" width="12" height="12"/>
	<rect x="560" y="656" width="12" height="12"/>
	<rect x="572" y="656" width="12" height="12"/>
	<rect x="608" y="656" width="12" height="12"/>
	<rect x="620" y="656" width="12" height="12"/>
	<rect x="632" y="656" width="12" height="12"/>
	<rect x="644" y="656" width="12" height="12"/>
	<rect x="656" y="656" width="12" height="12"/>
	<rect x="668" y="656" width="12" height="12"/>
	<rect x="680" y="656" width="12" height="12"/>
	<rect x="692" y="656" width="12" height="12"/>
	<rect x="752" y="656" width="12" height="12"/>
	<rect x="764" y="656" width="12" height="12"/>
	<rect x="224" y="668" width="12" height="12"/>
	<rect x="236" y="668" width="12" height="12"/>
	<rect x="248" y="668" width="12" height="12"/>
	<rect x="272" y="668" width="12" height="12"/>
	<rect x="284" y="668" width="12" height="12"/>
	<rect x="296" y="668" width="12" height="12"/>
	<rect x="308" y="668" width="12" height="12"/>
	<rect x="320" y="668" width="12" height="12"/>
	<rect x="332" y="668" width="12" height="12"/>
	<rect x="416" y="668" width="12" height="12"/>
	<rect x="428" y="668" width="12" height="12"/>
	<rect x="440" y="668" width="12" height="12"/>
	<rect x="548" y="668" width="12" height="12"/>
	<rect x="560" y="668" width="12" height="12"/>
	<rect x="572" y="668" width="12" height="12"/>
	<rect x="656" y="668" width="12" height="12"/>
	<rect x="668" y="668" width="12" height="12"/>
	<rect x="680" y="668" width="12" height="12"/>
	<rect x="692" y="668" width="12" height="12"/>
	<rect x="704" y="668" width="12" height="12"/>
	<rect x="716" y="668" width="12" height="12"/>
	<rect x="740" y="668" width="12" height="12"/>
	<rect x="752" y="668" width="12" height="12"/>
	<rect x="764" y="668" width="12" height="12"/>
	<rect x="236" y="680" width="12" height="12"/>
	<rect x="248" y="680" width="12" height="12"/>
	<rect x="260" y="680" width="12" height="12"/>
	<rect x="272" y="680" width="12" height="12"/>
	<rect x="284" y="680" width="12" height="12"/>
	<rect x="296" y="680" width="12" height="12"/>
	<rect x="320" y="680" width="12" height="12"/>
	<rect x="332" y="680" width="12" height="12"/>
	<rect x="344" y="680" width="12" height="12"/>
	<rect x="428" y="680" width="12" height="12"/>
	<rect x="440" y="680" width="12" height="12"/>
	<rect x="548" y="680" width="12" height="12"/>
	<rect x="560" y="680" width="12" height="12"/>
	<rect x="644" y="680" width="12" height="12"/>
	<rect x="656" y="680" width="12" height="12"/>
	<rect x="668" y="680" width="12" height="12"/>
	<rect x="692" y="680" width="12" height="12"/>
	<rect x="704" y="680" width="12" height="12"/>
	<rect x="716" y="680" width="12" height="12"/>
	<rect x="728" y="680" width="12" height="12"/>
	<rect x="740" y="680" width="12" height="12"/>
	<rect x="752" y="680" width="12" height="12"/>
	<rect x="248" y="692" width="12" height="12"/>
	<rect x="260" y="692" width="12" height="12"/>
	<rect x="272" y="692" width="12" height="12"/>
	<rect x="332" y="692" width="12" height="12"/>
	<rect x="344" y="692" width="12" height="12"/>
	<rect x="428" y="692" width="12" height="12"/>
	<rect x="440" y="692" width="12" height="12"/>
	<rect x="548" y="692" width="12" height="12"/>
	<rect x="560" y="692" width="12" height="12"/>
	<rect x="644" y="692" width="12" height="12"/>
	<rect x="656" y="692" width="12" height="12"/>
	<rect x="716" y="692" width="12" height="12"/>
	<rect x="728" y="692" width="12" height="12"/>
	<rect x="740" y="692" width="12" height="12"/>
	<rect x="248" y="704" width="12" height="12"/>
	<rect x="260" y="704" width="12" height="12"/>
	<rect x="272" y="704" width="12" height="12"/>
	<rect x="332" y="704" width="12" height="12"/>
	<rect x="344" y="704" width="12" height="12"/>
	<rect x="356" y="704" width="12" height="12"/>
	<rect x="428" y="704" width="12" height="12"/>
	<rect x="440" y="704" width="12" height="12"/>
	<rect x="548" y="704" width="12" height="12"/>
	<rect x="560" y="704" width="12" height="12"/>
	<rect x="632" y="704" width="12" height="12"/>
	<rect x="644" y="704" width="12" height="12"/>
	<rect x="656" y="704" width="12" height="12"/>
	<rect x="716" y="704" width="12" height="12"/>
	<rect x="728" y="704" width="12" height="12"/>
	<rect x="740" y="704" width="12" height="12"/>
	<rect x="260" y="716" width="12" height="12"/>
	<rect x="272" y="716" width="12" height="12"/>
	<rect x="284" y="716" width="12" height="12"/>
	<rect x="344" y="716" width="12" height="12"/>
	<rect x="356" y="716" width="12" height="12"/>
	<rect x="368" y="716" width="12" height="12"/>
	<rect x="428" y="716" width="12" height="12"/>
	<rect x="440" y="716" width="12" height="12"/>
	<rect x="548" y="716" width="12" height="12"/>
	<rect x="560" y="716" width="12" height="12"/>
	<rect x="620" y="716" width="12" height="12"/>
	<rect x="632" y="716" width="12" height="12"/>
	<rect x="644" y="716" width="12" height="12"/>
	<rect x="704" y="716" width="12" height="12"/>
	<rect x="716" y="716" width="12" height="12"/>
	<rect x="728" y="716" width="12" height="12"/>
	<rect x="272" y="728" width="12" height="12"/>
	<rect x="284" y="728" width="12" height="12"/>
	<rect x="296" y="728" width="12" height="12"/>
	<rect x="308" y="728" width="12" height="12"/>
	<rect x="356" y="728" width="12" height="12"/>
	<rect x="368" y="728" width="12" height="12"/>
	<rect x="440" y="728" width="12" height="12"/>
	<rect x="452" y="728" width="12" height="12"/>
	<rect x="536" y="728" width="12" height="12"/>
	<rect x="548" y="728" width="12" height="12"/>
	<rect x="620" y="728" width="12" height="12"/>
	<rect x="632" y="728" width="12" height="12"/>
	<rect x="680" y="728" width="12" height="12"/>
	<rect x="692" y="728" width="12" height="12"/>
	<rect x="704" y="728" width="12" height="12"/>
	<rect x="716" y="728" width="12" height="12"/>
	<rect x="284" y="740" width="12" height="12"/>
	<rect x="296" y="740" width="12" height="12"/>
	<rect x="308" y="740" width="12" height="12"/>
	<rect x="320" y="740" width="12" height="12"/>
	<rect x="356" y="740" width="12" height="12"/>
	<rect x="368" y="740" width="12" height="12"/>
	<rect x="380" y="740" width="12" height="12"/>
	<rect x="440" y="740" width="12" height="12"/>
	<rect x="452" y="740" width="12" height="12"/>
	<rect x="536" y="740" width="12" height="12"/>
	<rect x="548" y="740" width="12" height="12"/>
	<rect x="608" y="740" width="12" height="12"/>
	<rect x="620" y="740" width="12" height="12"/>
	<rect x="632" y="740" width="12" height="12"/>
	<rect x="668" y="740" width="12" height="12"/>
	<rect x="680" y="740" width="12" height="12"/>
	<rect x="692" y="740" width="12" height="12"/>
	<rect x="704" y="740" width="12" height="12"/>
	<rect x="308" y="752" width="12" height="12"/>
	<rect x="320" y="752" width="12" height="12"/>
	<rect x="332" y="752" width="12" height="12"/>
	<rect x="368" y="752" width="12" height="12"/>
	<rect x="380" y="752" width="12" height="12"/>
	<rect x="392" y="752" width="12" height="12"/>
	<rect x="440" y="752" width="12" height="12"/>
	<rect x="452" y="752" width="12" height="12"/>
	<rect x="536" y="752" width="12" height="12"/>
	<rect x="548" y="752" width="12" height="12"/>
	<rect x="596" y="752" width="12" height="12"/>
	<rect x="608" y="752" width="12" height="12"/>
	<rect x="620" y="752" width="12" height="12"/>
	<rect x="656" y="752" width="12" height="12"/>
	<rect x="668" y="752" width="12" height="12"/>
	<rect x="680" y="752" width="12" height="12"/>
	<rect x="320" y="764" width="12" height="12"/>
	<rect x="332" y="764" width="12" height="12"/>
	<rect x="344" y="764" width="12" height="12"/>
	<rect x="356" y="764" width="12" height="12"/>
	<rect x="380" y="764" width="12" height="12"/>
	<rect x="392" y="764" width="12" height="12"/>
	<rect x="404" y="764" width="12" height="12"/>
	<rect x="452" y="764" width="12" height="12"/>
	<rect x="464" y="764" width="12" height="12"/>
	<rect x="524" y="764" width="12" height="12"/>
	<rect x="536" y="764" width="12" height="12"/>
	<rect x="584" y="764" width="12" height="12"/>
	<rect x="596" y="764" width="12" height="12"/>
	<rect x="608" y="764" width="12" height="12"/>
	<rect x="632" y="764" width="12" height="12"/>
	<rect x="644" y="764" width="12" height="12"/>
	<rect x="656" y="764" width="12" height="12"/>
	<rect x="668" y="764" width="12" height="12"/>
	<rect x="344" y="776" width="12" height="12"/>
	<rect x="356" y="776" width="12" height="12"/>
	<rect x="368" y="776" width="12" height="12"/>
	<rect x="380" y="776" width="12" height="12"/>
	<rect x="392" y="776" width="12" height="12"/>
	<rect x="404" y="776" width="12" height="12"/>
	<rect x="416" y="776" width="12" height="12"/>
	<rect x="428" y="776" width="12" height="12"/>
	<rect x="452" y="776" width="12" height="12"/>
	<rect x="464" y="776" width="12" height="12"/>
	<rect x="524" y="776" width="12" height="12"/>
	<rect x="536" y="776" width="12" height="12"/>
	<rect x="560" y="776" width="12" height="12"/>
	<rect x="572" y="776" width="12" height="12"/>
	<rect x="584" y="776" width="12" height="12"/>
	<rect x="596" y="776" width="12" height="12"/>
	<rect x="608" y="776" width="12" height="12"/>
	<rect x="620" y="776" width="12" height="12"/>
	<rect x="632" y="776" width="12" height="12"/>
	<rect x="644" y="776" width="12" height="12"/>
	<rect x="368" y="788" width="12" height="12"/>
	<rect x="380" y="788" width="12" height="12"/>
	<rect x="392" y="788" width="12" height="12"/>
	<rect x="404" y="788" width="12" height="12"/>
	<rect x="416" y="788" width="12" height="12"/>
	<rect x="428" y="788" width="12" height="12"/>
	<rect x="440" y="788" width="12" height="12"/>
	<rect x="452" y="788" width="12" height="12"/>
	<rect x="464" y="788" width="12" height="12"/>
	<rect x="476" y="788" width="12" height="12"/>
	<rect x="512" y="788" width="12" height="12"/>
	<rect x="524" y="788" width="12" height="12"/>
	<rect x="536" y="788" width="12" height="12"/>
	<rect x="548" y="788" width="12" height="12"/>
	<rect x="560" y="788" width="12" height="12"/>
	<rect x="572" y="788" width="12" height="12"/>
	<rect x="584" y="788" width="12" height="12"/>
	<rect x="596" y="788" width="12" height="12"/>
	<rect x="608" y="788" width="12" height="12"/>
	<rect x="620" y="788" width="12" height="12"/>
	<rect x="392" y="800" width="12" height="12"/>
	<rect x="404" y="800" width="12" height="12"/>
	<rect x="416" y="800" width="12" height="12"/>
	<rect x="428" y="800" width="12" height="12"/>
	<rect x="440" y="800" width="12" height="12"/>
	<rect x="452" y="800" width="12" height="12"/>
	<rect x="464" y="800" width="12" height="12"/>
	<rect x="476" y="800" width="12" height="12"/>
	<rect x="488" y="800" width="12" height="12"/>
	<rect x="500" y="800" width="12" height="12"/>
	<rect x="512" y="800" width="12" height="12"/>
	<rect x="524" y="800" width="12" height="12"/>
	<rect x="536" y="800" width="12" height="12"/>
	<rect x="548" y="800" width="12" height="12"/>
	<rect x="560" y="800" width="12" height="12"/>
	<rect x="572" y="800" width="12" height="12"/>
	<rect x="584" y="800" width="12" height="12"/>
	<rect x="596" y="800" width="12" height="12"/>
	<rect x="440" y="812" width="12" height="12"/>
	<rect x="452" y="812" width="12" height="12"/>
	<rect x="464" y="812" width="12" height="12"/>
	<rect x="476" y="812" width="12" height="12"/>
	<rect x="488" y="812" width="12" height="12"/>
	<rect x="500" y="812" width="12" height="12"/>
	<rect x="512" y="812" width="12" height="12"/>
	<rect x="524" y="812" width="12" height="12"/>
	<rect x="536" y="812" width="12" height="12"/>
	<rect x="548" y="812" width="12" height="12"/>
</g>
</svg>
