<?xml version="1.0" encoding="utf-8"?>
<!-- Generator: Adobe Illustrator 27.0.0, SVG Export Plug-In . SVG Version: 6.00 Build 0)  -->
<svg version="1.1" id="Layer_1" xmlns="http://www.w3.org/2000/svg" xmlns:xlink="http://www.w3.org/1999/xlink" x="0px" y="0px"
	 viewBox="0 0 1000 1000" style="enable-background:new 0 0 1000 1000;" xml:space="preserve">
<g id="VFPAQt_00000154413316832871077150000008720061879133732770_">
	<rect x="462" y="156" width="12" height="12"/>
	<rect x="474" y="156" width="12" height="12"/>
	<rect x="486" y="156" width="12" height="12"/>
	<rect x="498" y="156" width="12" height="12"/>
	<rect x="510" y="156" width="12" height="12"/>
	<rect x="522" y="156" width="12" height="12"/>
	<rect x="534" y="156" width="12" height="12"/>
	<rect x="546" y="156" width="12" height="12"/>
	<rect x="558" y="156" width="12" height="12"/>
	<rect x="570" y="156" width="12" height="12"/>
	<rect x="582" y="156" width="12" height="12"/>
	<rect x="594" y="156" width="12" height="12"/>
	<rect x="606" y="156" width="12" height="12"/>
	<rect x="450" y="168" width="12" height="12"/>
	<rect x="462" y="168" width="12" height="12"/>
	<rect x="474" y="168" width="12" height="12"/>
	<rect x="486" y="168" width="12" height="12"/>
	<rect x="498" y="168" width="12" height="12"/>
	<rect x="510" y="168" width="12" height="12"/>
	<rect x="522" y="168" width="12" height="12"/>
	<rect x="534" y="168" width="12" height="12"/>
	<rect x="546" y="168" width="12" height="12"/>
	<rect x="558" y="168" width="12" height="12"/>
	<rect x="570" y="168" width="12" height="12"/>
	<rect x="582" y="168" width="12" height="12"/>
	<rect x="594" y="168" width="12" height="12"/>
	<rect x="606" y="168" width="12" height="12"/>
	<rect x="450" y="180" width="12" height="12"/>
	<rect x="462" y="180" width="12" height="12"/>
	<rect x="582" y="180" width="12" height="12"/>
	<rect x="594" y="180" width="12" height="12"/>
	<rect x="438" y="192" width="12" height="12"/>
	<rect x="450" y="192" width="12" height="12"/>
	<rect x="462" y="192" width="12" height="12"/>
	<rect x="582" y="192" width="12" height="12"/>
	<rect x="594" y="192" width="12" height="12"/>
	<rect x="438" y="204" width="12" height="12"/>
	<rect x="450" y="204" width="12" height="12"/>
	<rect x="582" y="204" width="12" height="12"/>
	<rect x="594" y="204" width="12" height="12"/>
	<rect x="438" y="216" width="12" height="12"/>
	<rect x="450" y="216" width="12" height="12"/>
	<rect x="570" y="216" width="12" height="12"/>
	<rect x="582" y="216" width="12" height="12"/>
	<rect x="426" y="228" width="12" height="12"/>
	<rect x="438" y="228" width="12" height="12"/>
	<rect x="450" y="228" width="12" height="12"/>
	<rect x="570" y="228" width="12" height="12"/>
	<rect x="582" y="228" width="12" height="12"/>
	<rect x="426" y="240" width="12" height="12"/>
	<rect x="438" y="240" width="12" height="12"/>
	<rect x="570" y="240" width="12" height="12"/>
	<rect x="414" y="252" width="12" height="12"/>
	<rect x="426" y="252" width="12" height="12"/>
	<rect x="558" y="252" width="12" height="12"/>
	<rect x="570" y="252" width="12" height="12"/>
	<rect x="414" y="264" width="12" height="12"/>
	<rect x="426" y="264" width="12" height="12"/>
	<rect x="558" y="264" width="12" height="12"/>
	<rect x="570" y="264" width="12" height="12"/>
	<rect x="414" y="276" width="12" height="12"/>
	<rect x="426" y="276" width="12" height="12"/>
	<rect x="546" y="276" width="12" height="12"/>
	<rect x="558" y="276" width="12" height="12"/>
	<rect x="402" y="288" width="12" height="12"/>
	<rect x="414" y="288" width="12" height="12"/>
	<rect x="546" y="288" width="12" height="12"/>
	<rect x="558" y="288" width="12" height="12"/>
	<rect x="402" y="300" width="12" height="12"/>
	<rect x="414" y="300" width="12" height="12"/>
	<rect x="534" y="300" width="12" height="12"/>
	<rect x="546" y="300" width="12" height="12"/>
	<rect x="558" y="300" width="12" height="12"/>
	<rect x="402" y="312" width="12" height="12"/>
	<rect x="414" y="312" width="12" height="12"/>
	<rect x="534" y="312" width="12" height="12"/>
	<rect x="546" y="312" width="12" height="12"/>
	<rect x="390" y="324" width="12" height="12"/>
	<rect x="402" y="324" width="12" height="12"/>
	<rect x="534" y="324" width="12" height="12"/>
	<rect x="546" y="324" width="12" height="12"/>
	<rect x="558" y="324" width="12" height="12"/>
	<rect x="570" y="324" width="12" height="12"/>
	<rect x="582" y="324" width="12" height="12"/>
	<rect x="594" y="324" width="12" height="12"/>
	<rect x="606" y="324" width="12" height="12"/>
	<rect x="618" y="324" width="12" height="12"/>
	<rect x="390" y="336" width="12" height="12"/>
	<rect x="402" y="336" width="12" height="12"/>
	<rect x="534" y="336" width="12" height="12"/>
	<rect x="546" y="336" width="12" height="12"/>
	<rect x="558" y="336" width="12" height="12"/>
	<rect x="570" y="336" width="12" height="12"/>
	<rect x="582" y="336" width="12" height="12"/>
	<rect x="594" y="336" width="12" height="12"/>
	<rect x="606" y="336" width="12" height="12"/>
	<rect x="618" y="336" width="12" height="12"/>
	<rect x="378" y="348" width="12" height="12"/>
	<rect x="390" y="348" width="12" height="12"/>
	<rect x="594" y="348" width="12" height="12"/>
	<rect x="606" y="348" width="12" height="12"/>
	<rect x="378" y="360" width="12" height="12"/>
	<rect x="390" y="360" width="12" height="12"/>
	<rect x="594" y="360" width="12" height="12"/>
	<rect x="606" y="360" width="12" height="12"/>
	<rect x="378" y="372" width="12" height="12"/>
	<rect x="390" y="372" width="12" height="12"/>
	<rect x="582" y="372" width="12" height="12"/>
	<rect x="594" y="372" width="12" height="12"/>
	<rect x="366" y="384" width="12" height="12"/>
	<rect x="378" y="384" width="12" height="12"/>
	<rect x="582" y="384" width="12" height="12"/>
	<rect x="594" y="384" width="12" height="12"/>
	<rect x="366" y="396" width="12" height="12"/>
	<rect x="378" y="396" width="12" height="12"/>
	<rect x="390" y="396" width="12" height="12"/>
	<rect x="402" y="396" width="12" height="12"/>
	<rect x="414" y="396" width="12" height="12"/>
	<rect x="426" y="396" width="12" height="12"/>
	<rect x="438" y="396" width="12" height="12"/>
	<rect x="450" y="396" width="12" height="12"/>
	<rect x="582" y="396" width="12" height="12"/>
	<rect x="594" y="396" width="12" height="12"/>
	<rect x="366" y="408" width="12" height="12"/>
	<rect x="378" y="408" width="12" height="12"/>
	<rect x="390" y="408" width="12" height="12"/>
	<rect x="402" y="408" width="12" height="12"/>
	<rect x="414" y="408" width="12" height="12"/>
	<rect x="426" y="408" width="12" height="12"/>
	<rect x="438" y="408" width="12" height="12"/>
	<rect x="450" y="408" width="12" height="12"/>
	<rect x="570" y="408" width="12" height="12"/>
	<rect x="582" y="408" width="12" height="12"/>
	<rect x="426" y="420" width="12" height="12"/>
	<rect x="438" y="420" width="12" height="12"/>
	<rect x="450" y="420" width="12" height="12"/>
	<rect x="570" y="420" width="12" height="12"/>
	<rect x="582" y="420" width="12" height="12"/>
	<rect x="426" y="432" width="12" height="12"/>
	<rect x="438" y="432" width="12" height="12"/>
	<rect x="570" y="432" width="12" height="12"/>
	<rect x="582" y="432" width="12" height="12"/>
	<rect x="426" y="444" width="12" height="12"/>
	<rect x="438" y="444" width="12" height="12"/>
	<rect x="558" y="444" width="12" height="12"/>
	<rect x="570" y="444" width="12" height="12"/>
	<rect x="414" y="456" width="12" height="12"/>
	<rect x="426" y="456" width="12" height="12"/>
	<rect x="558" y="456" width="12" height="12"/>
	<rect x="570" y="456" width="12" height="12"/>
	<rect x="414" y="468" width="12" height="12"/>
	<rect x="426" y="468" width="12" height="12"/>
	<rect x="546" y="468" width="12" height="12"/>
	<rect x="558" y="468" width="12" height="12"/>
	<rect x="402" y="480" width="12" height="12"/>
	<rect x="414" y="480" width="12" height="12"/>
	<rect x="546" y="480" width="12" height="12"/>
	<rect x="558" y="480" width="12" height="12"/>
	<rect x="402" y="492" width="12" height="12"/>
	<rect x="414" y="492" width="12" height="12"/>
	<rect x="534" y="492" width="12" height="12"/>
	<rect x="546" y="492" width="12" height="12"/>
	<rect x="558" y="492" width="12" height="12"/>
	<rect x="570" y="492" width="12" height="12"/>
	<rect x="582" y="492" width="12" height="12"/>
	<rect x="594" y="492" width="12" height="12"/>
	<rect x="606" y="492" width="12" height="12"/>
	<rect x="618" y="492" width="12" height="12"/>
	<rect x="630" y="492" width="12" height="12"/>
	<rect x="402" y="504" width="12" height="12"/>
	<rect x="414" y="504" width="12" height="12"/>
	<rect x="534" y="504" width="12" height="12"/>
	<rect x="546" y="504" width="12" height="12"/>
	<rect x="558" y="504" width="12" height="12"/>
	<rect x="570" y="504" width="12" height="12"/>
	<rect x="582" y="504" width="12" height="12"/>
	<rect x="594" y="504" width="12" height="12"/>
	<rect x="606" y="504" width="12" height="12"/>
	<rect x="618" y="504" width="12" height="12"/>
	<rect x="630" y="504" width="12" height="12"/>
	<rect x="642" y="504" width="12" height="12"/>
	<rect x="390" y="516" width="12" height="12"/>
	<rect x="402" y="516" width="12" height="12"/>
	<rect x="606" y="516" width="12" height="12"/>
	<rect x="618" y="516" width="12" height="12"/>
	<rect x="630" y="516" width="12" height="12"/>
	<rect x="390" y="528" width="12" height="12"/>
	<rect x="402" y="528" width="12" height="12"/>
	<rect x="606" y="528" width="12" height="12"/>
	<rect x="618" y="528" width="12" height="12"/>
	<rect x="378" y="540" width="12" height="12"/>
	<rect x="390" y="540" width="12" height="12"/>
	<rect x="594" y="540" width="12" height="12"/>
	<rect x="606" y="540" width="12" height="12"/>
	<rect x="378" y="552" width="12" height="12"/>
	<rect x="390" y="552" width="12" height="12"/>
	<rect x="582" y="552" width="12" height="12"/>
	<rect x="594" y="552" width="12" height="12"/>
	<rect x="606" y="552" width="12" height="12"/>
	<rect x="378" y="564" width="12" height="12"/>
	<rect x="390" y="564" width="12" height="12"/>
	<rect x="402" y="564" width="12" height="12"/>
	<rect x="414" y="564" width="12" height="12"/>
	<rect x="426" y="564" width="12" height="12"/>
	<rect x="438" y="564" width="12" height="12"/>
	<rect x="450" y="564" width="12" height="12"/>
	<rect x="462" y="564" width="12" height="12"/>
	<rect x="474" y="564" width="12" height="12"/>
	<rect x="582" y="564" width="12" height="12"/>
	<rect x="594" y="564" width="12" height="12"/>
	<rect x="378" y="576" width="12" height="12"/>
	<rect x="390" y="576" width="12" height="12"/>
	<rect x="402" y="576" width="12" height="12"/>
	<rect x="414" y="576" width="12" height="12"/>
	<rect x="426" y="576" width="12" height="12"/>
	<rect x="438" y="576" width="12" height="12"/>
	<rect x="450" y="576" width="12" height="12"/>
	<rect x="462" y="576" width="12" height="12"/>
	<rect x="474" y="576" width="12" height="12"/>
	<rect x="570" y="576" width="12" height="12"/>
	<rect x="582" y="576" width="12" height="12"/>
	<rect x="594" y="576" width="12" height="12"/>
	<rect x="462" y="588" width="12" height="12"/>
	<rect x="474" y="588" width="12" height="12"/>
	<rect x="570" y="588" width="12" height="12"/>
	<rect x="582" y="588" width="12" height="12"/>
	<rect x="462" y="600" width="12" height="12"/>
	<rect x="474" y="600" width="12" height="12"/>
	<rect x="558" y="600" width="12" height="12"/>
	<rect x="570" y="600" width="12" height="12"/>
	<rect x="462" y="612" width="12" height="12"/>
	<rect x="474" y="612" width="12" height="12"/>
	<rect x="558" y="612" width="12" height="12"/>
	<rect x="570" y="612" width="12" height="12"/>
	<rect x="450" y="624" width="12" height="12"/>
	<rect x="462" y="624" width="12" height="12"/>
	<rect x="546" y="624" width="12" height="12"/>
	<rect x="558" y="624" width="12" height="12"/>
	<rect x="450" y="636" width="12" height="12"/>
	<rect x="462" y="636" width="12" height="12"/>
	<rect x="534" y="636" width="12" height="12"/>
	<rect x="546" y="636" width="12" height="12"/>
	<rect x="438" y="648" width="12" height="12"/>
	<rect x="450" y="648" width="12" height="12"/>
	<rect x="462" y="648" width="12" height="12"/>
	<rect x="522" y="648" width="12" height="12"/>
	<rect x="534" y="648" width="12" height="12"/>
	<rect x="546" y="648" width="12" height="12"/>
	<rect x="438" y="660" width="12" height="12"/>
	<rect x="450" y="660" width="12" height="12"/>
	<rect x="522" y="660" width="12" height="12"/>
	<rect x="534" y="660" width="12" height="12"/>
	<rect x="438" y="672" width="12" height="12"/>
	<rect x="450" y="672" width="12" height="12"/>
	<rect x="510" y="672" width="12" height="12"/>
	<rect x="522" y="672" width="12" height="12"/>
	<rect x="438" y="684" width="12" height="12"/>
	<rect x="450" y="684" width="12" height="12"/>
	<rect x="510" y="684" width="12" height="12"/>
	<rect x="522" y="684" width="12" height="12"/>
	<rect x="426" y="696" width="12" height="12"/>
	<rect x="438" y="696" width="12" height="12"/>
	<rect x="450" y="696" width="12" height="12"/>
	<rect x="498" y="696" width="12" height="12"/>
	<rect x="510" y="696" width="12" height="12"/>
	<rect x="426" y="708" width="12" height="12"/>
	<rect x="438" y="708" width="12" height="12"/>
	<rect x="486" y="708" width="12" height="12"/>
	<rect x="498" y="708" width="12" height="12"/>
	<rect x="426" y="720" width="12" height="12"/>
	<rect x="438" y="720" width="12" height="12"/>
	<rect x="486" y="720" width="12" height="12"/>
	<rect x="498" y="720" width="12" height="12"/>
	<rect x="426" y="732" width="12" height="12"/>
	<rect x="474" y="732" width="12" height="12"/>
	<rect x="486" y="732" width="12" height="12"/>
	<rect x="414" y="744" width="12" height="12"/>
	<rect x="426" y="744" width="12" height="12"/>
	<rect x="462" y="744" width="12" height="12"/>
	<rect x="474" y="744" width="12" height="12"/>
	<rect x="486" y="744" width="12" height="12"/>
	<rect x="414" y="756" width="12" height="12"/>
	<rect x="426" y="756" width="12" height="12"/>
	<rect x="462" y="756" width="12" height="12"/>
	<rect x="474" y="756" width="12" height="12"/>
	<rect x="414" y="768" width="12" height="12"/>
	<rect x="426" y="768" width="12" height="12"/>
	<rect x="450" y="768" width="12" height="12"/>
	<rect x="462" y="768" width="12" height="12"/>
	<rect x="474" y="768" width="12" height="12"/>
	<rect x="414" y="780" width="12" height="12"/>
	<rect x="438" y="780" width="12" height="12"/>
	<rect x="450" y="780" width="12" height="12"/>
	<rect x="462" y="780" width="12" height="12"/>
	<rect x="402" y="792" width="12" height="12"/>
	<rect x="414" y="792" width="12" height="12"/>
	<rect x="438" y="792" width="12" height="12"/>
	<rect x="450" y="792" width="12" height="12"/>
	<rect x="402" y="804" width="12" height="12"/>
	<rect x="414" y="804" width="12" height="12"/>
	<rect x="426" y="804" width="12" height="12"/>
	<rect x="438" y="804" width="12" height="12"/>
	<rect x="450" y="804" width="12" height="12"/>
	<rect x="402" y="816" width="12" height="12"/>
	<rect x="414" y="816" width="12" height="12"/>
	<rect x="426" y="816" width="12" height="12"/>
	<rect x="438" y="816" width="12" height="12"/>
	<rect x="390" y="828" width="12" height="12"/>
	<rect x="402" y="828" width="12" height="12"/>
	<rect x="414" y="828" width="12" height="12"/>
	<rect x="426" y="828" width="12" height="12"/>
	<rect x="390" y="840" width="12" height="12"/>
	<rect x="402" y="840" width="12" height="12"/>
	<rect x="414" y="840" width="12" height="12"/>
	<rect x="390" y="852" width="12" height="12"/>
	<rect x="402" y="852" width="12" height="12"/>
	<rect x="414" y="852" width="12" height="12"/>
	<rect x="390" y="864" width="12" height="12"/>
	<rect x="402" y="864" width="12" height="12"/>
	<rect x="378" y="876" width="12" height="12"/>
	<rect x="390" y="876" width="12" height="12"/>
	<rect x="402" y="876" width="12" height="12"/>
	<rect x="378" y="888" width="12" height="12"/>
	<rect x="390" y="888" width="12" height="12"/>
</g>
</svg>
