<?xml version="1.0" encoding="utf-8"?>
<!-- Generator: Adobe Illustrator 27.0.0, SVG Export Plug-In . SVG Version: 6.00 Build 0)  -->
<svg version="1.1" id="Layer_1" xmlns="http://www.w3.org/2000/svg" xmlns:xlink="http://www.w3.org/1999/xlink" x="0px" y="0px"
	 viewBox="0 0 1000 1000" style="enable-background:new 0 0 1000 1000;" xml:space="preserve">
<g id="XMLID_419_">
	<rect x="315.0471" y="183.5435" width="14.4" height="14.4"/>
	<rect x="329.4471" y="183.5435" width="14.4" height="14.4"/>
	<rect x="343.8471" y="183.5435" width="14.4" height="14.4"/>
	<rect x="358.2471" y="183.5435" width="14.4" height="14.4"/>
	<rect x="372.6471" y="183.5435" width="14.4" height="14.4"/>
	<rect x="387.0471" y="183.5435" width="14.4" height="14.4"/>
	<rect x="401.4471" y="183.5435" width="14.4" height="14.4"/>
	<rect x="415.8471" y="183.5435" width="14.4" height="14.4"/>
	<rect x="430.2471" y="183.5435" width="14.4" height="14.4"/>
	<rect x="444.6471" y="183.5435" width="14.4" height="14.4"/>
	<rect x="459.0471" y="183.5435" width="14.4" height="14.4"/>
	<rect x="473.4471" y="183.5435" width="14.4" height="14.4"/>
	<rect x="487.8471" y="183.5435" width="14.4" height="14.4"/>
	<rect x="502.2471" y="183.5435" width="14.4" height="14.4"/>
	<rect x="516.6471" y="183.5435" width="14.4" height="14.4"/>
	<rect x="531.0471" y="183.5435" width="14.4" height="14.4"/>
	<rect x="545.4471" y="183.5435" width="14.4" height="14.4"/>
	<rect x="559.8471" y="183.5435" width="14.4" height="14.4"/>
	<rect x="574.2471" y="183.5435" width="14.4" height="14.4"/>
	<rect x="588.6471" y="183.5435" width="14.4" height="14.4"/>
	<rect x="603.0471" y="183.5435" width="14.4" height="14.4"/>
	<rect x="617.4471" y="183.5435" width="14.4" height="14.4"/>
	<rect x="631.8471" y="183.5435" width="14.4" height="14.4"/>
	<rect x="646.2471" y="183.5435" width="14.4" height="14.4"/>
	<rect x="660.6471" y="183.5435" width="14.4" height="14.4"/>
	<rect x="675.0471" y="183.5435" width="14.4" height="14.4"/>
	<rect x="315.0471" y="197.9435" width="14.4" height="14.4"/>
	<rect x="329.4471" y="197.9435" width="14.4" height="14.4"/>
	<rect x="343.8471" y="197.9435" width="14.4" height="14.4"/>
	<rect x="358.2471" y="197.9435" width="14.4" height="14.4"/>
	<rect x="372.6471" y="197.9435" width="14.4" height="14.4"/>
	<rect x="660.6471" y="197.9435" width="14.4" height="14.4"/>
	<rect x="675.0471" y="197.9435" width="14.4" height="14.4"/>
	<rect x="300.6471" y="212.3435" width="14.4" height="14.4"/>
	<rect x="315.0471" y="212.3435" width="14.4" height="14.4"/>
	<rect x="372.6471" y="212.3435" width="14.4" height="14.4"/>
	<rect x="387.0471" y="212.3435" width="14.4" height="14.4"/>
	<rect x="401.4471" y="212.3435" width="14.4" height="14.4"/>
	<rect x="415.8471" y="212.3435" width="14.4" height="14.4"/>
	<rect x="430.2471" y="212.3435" width="14.4" height="14.4"/>
	<rect x="660.6471" y="212.3435" width="14.4" height="14.4"/>
	<rect x="675.0471" y="212.3435" width="14.4" height="14.4"/>
	<rect x="689.4471" y="212.3435" width="14.4" height="14.4"/>
	<rect x="300.6471" y="226.7435" width="14.4" height="14.4"/>
	<rect x="315.0471" y="226.7435" width="14.4" height="14.4"/>
	<rect x="430.2471" y="226.7435" width="14.4" height="14.4"/>
	<rect x="444.6471" y="226.7435" width="14.4" height="14.4"/>
	<rect x="459.0471" y="226.7435" width="14.4" height="14.4"/>
	<rect x="473.4471" y="226.7435" width="14.4" height="14.4"/>
	<rect x="646.2471" y="226.7435" width="14.4" height="14.4"/>
	<rect x="660.6471" y="226.7435" width="14.4" height="14.4"/>
	<rect x="689.4471" y="226.7435" width="14.4" height="14.4"/>
	<rect x="703.8471" y="226.7435" width="14.4" height="14.4"/>
	<rect x="286.2471" y="241.1435" width="14.4" height="14.4"/>
	<rect x="300.6471" y="241.1435" width="14.4" height="14.4"/>
	<rect x="315.0471" y="241.1435" width="14.4" height="14.4"/>
	<rect x="473.4471" y="241.1435" width="14.4" height="14.4"/>
	<rect x="487.8471" y="241.1435" width="14.4" height="14.4"/>
	<rect x="502.2471" y="241.1435" width="14.4" height="14.4"/>
	<rect x="516.6471" y="241.1435" width="14.4" height="14.4"/>
	<rect x="531.0471" y="241.1435" width="14.4" height="14.4"/>
	<rect x="631.8471" y="241.1435" width="14.4" height="14.4"/>
	<rect x="646.2471" y="241.1435" width="14.4" height="14.4"/>
	<rect x="703.8471" y="241.1435" width="14.4" height="14.4"/>
	<rect x="271.8471" y="255.5435" width="14.4" height="14.4"/>
	<rect x="286.2471" y="255.5435" width="14.4" height="14.4"/>
	<rect x="300.6471" y="255.5435" width="14.4" height="14.4"/>
	<rect x="531.0471" y="255.5435" width="14.4" height="14.4"/>
	<rect x="545.4471" y="255.5435" width="14.4" height="14.4"/>
	<rect x="559.8471" y="255.5435" width="14.4" height="14.4"/>
	<rect x="574.2471" y="255.5435" width="14.4" height="14.4"/>
	<rect x="631.8471" y="255.5435" width="14.4" height="14.4"/>
	<rect x="703.8471" y="255.5435" width="14.4" height="14.4"/>
	<rect x="718.2471" y="255.5435" width="14.4" height="14.4"/>
	<rect x="271.8471" y="269.9435" width="14.4" height="14.4"/>
	<rect x="300.6471" y="269.9435" width="14.4" height="14.4"/>
	<rect x="574.2471" y="269.9435" width="14.4" height="14.4"/>
	<rect x="588.6471" y="269.9435" width="14.4" height="14.4"/>
	<rect x="603.0471" y="269.9435" width="14.4" height="14.4"/>
	<rect x="617.4471" y="269.9435" width="14.4" height="14.4"/>
	<rect x="631.8471" y="269.9435" width="14.4" height="14.4"/>
	<rect x="718.2471" y="269.9435" width="14.4" height="14.4"/>
	<rect x="257.4471" y="284.3435" width="14.4" height="14.4"/>
	<rect x="271.8471" y="284.3435" width="14.4" height="14.4"/>
	<rect x="300.6471" y="284.3435" width="14.4" height="14.4"/>
	<rect x="603.0471" y="284.3435" width="14.4" height="14.4"/>
	<rect x="617.4471" y="284.3435" width="14.4" height="14.4"/>
	<rect x="631.8471" y="284.3435" width="14.4" height="14.4"/>
	<rect x="718.2471" y="284.3435" width="14.4" height="14.4"/>
	<rect x="732.6471" y="284.3435" width="14.4" height="14.4"/>
	<rect x="257.4471" y="298.7435" width="14.4" height="14.4"/>
	<rect x="286.2471" y="298.7435" width="14.4" height="14.4"/>
	<rect x="300.6471" y="298.7435" width="14.4" height="14.4"/>
	<rect x="574.2471" y="298.7435" width="14.4" height="14.4"/>
	<rect x="588.6471" y="298.7435" width="14.4" height="14.4"/>
	<rect x="603.0471" y="298.7435" width="14.4" height="14.4"/>
	<rect x="617.4471" y="298.7435" width="14.4" height="14.4"/>
	<rect x="631.8471" y="298.7435" width="14.4" height="14.4"/>
	<rect x="646.2471" y="298.7435" width="14.4" height="14.4"/>
	<rect x="732.6471" y="298.7435" width="14.4" height="14.4"/>
	<rect x="747.0471" y="298.7435" width="14.4" height="14.4"/>
	<rect x="243.0471" y="313.1435" width="14.4" height="14.4"/>
	<rect x="257.4471" y="313.1435" width="14.4" height="14.4"/>
	<rect x="286.2471" y="313.1435" width="14.4" height="14.4"/>
	<rect x="545.4471" y="313.1435" width="14.4" height="14.4"/>
	<rect x="559.8471" y="313.1435" width="14.4" height="14.4"/>
	<rect x="574.2471" y="313.1435" width="14.4" height="14.4"/>
	<rect x="617.4471" y="313.1435" width="14.4" height="14.4"/>
	<rect x="646.2471" y="313.1435" width="14.4" height="14.4"/>
	<rect x="660.6471" y="313.1435" width="14.4" height="14.4"/>
	<rect x="747.0471" y="313.1435" width="14.4" height="14.4"/>
	<rect x="243.0471" y="327.5435" width="14.4" height="14.4"/>
	<rect x="286.2471" y="327.5435" width="14.4" height="14.4"/>
	<rect x="516.6471" y="327.5435" width="14.4" height="14.4"/>
	<rect x="531.0471" y="327.5435" width="14.4" height="14.4"/>
	<rect x="545.4471" y="327.5435" width="14.4" height="14.4"/>
	<rect x="617.4471" y="327.5435" width="14.4" height="14.4"/>
	<rect x="660.6471" y="327.5435" width="14.4" height="14.4"/>
	<rect x="675.0471" y="327.5435" width="14.4" height="14.4"/>
	<rect x="689.4471" y="327.5435" width="14.4" height="14.4"/>
	<rect x="747.0471" y="327.5435" width="14.4" height="14.4"/>
	<rect x="761.4471" y="327.5435" width="14.4" height="14.4"/>
	<rect x="228.6471" y="341.9435" width="14.4" height="14.4"/>
	<rect x="243.0471" y="341.9435" width="14.4" height="14.4"/>
	<rect x="286.2471" y="341.9435" width="14.4" height="14.4"/>
	<rect x="502.2471" y="341.9435" width="14.4" height="14.4"/>
	<rect x="516.6471" y="341.9435" width="14.4" height="14.4"/>
	<rect x="617.4471" y="341.9435" width="14.4" height="14.4"/>
	<rect x="689.4471" y="341.9435" width="14.4" height="14.4"/>
	<rect x="703.8471" y="341.9435" width="14.4" height="14.4"/>
	<rect x="761.4471" y="341.9435" width="14.4" height="14.4"/>
	<rect x="214.2471" y="356.3435" width="14.4" height="14.4"/>
	<rect x="228.6471" y="356.3435" width="14.4" height="14.4"/>
	<rect x="271.8471" y="356.3435" width="14.4" height="14.4"/>
	<rect x="286.2471" y="356.3435" width="14.4" height="14.4"/>
	<rect x="473.4471" y="356.3435" width="14.4" height="14.4"/>
	<rect x="487.8471" y="356.3435" width="14.4" height="14.4"/>
	<rect x="502.2471" y="356.3435" width="14.4" height="14.4"/>
	<rect x="617.4471" y="356.3435" width="14.4" height="14.4"/>
	<rect x="703.8471" y="356.3435" width="14.4" height="14.4"/>
	<rect x="718.2471" y="356.3435" width="14.4" height="14.4"/>
	<rect x="761.4471" y="356.3435" width="14.4" height="14.4"/>
	<rect x="775.8471" y="356.3435" width="14.4" height="14.4"/>
	<rect x="214.2471" y="370.7435" width="14.4" height="14.4"/>
	<rect x="271.8471" y="370.7435" width="14.4" height="14.4"/>
	<rect x="444.6471" y="370.7435" width="14.4" height="14.4"/>
	<rect x="459.0471" y="370.7435" width="14.4" height="14.4"/>
	<rect x="473.4471" y="370.7435" width="14.4" height="14.4"/>
	<rect x="617.4471" y="370.7435" width="14.4" height="14.4"/>
	<rect x="718.2471" y="370.7435" width="14.4" height="14.4"/>
	<rect x="732.6471" y="370.7435" width="14.4" height="14.4"/>
	<rect x="775.8471" y="370.7435" width="14.4" height="14.4"/>
	<rect x="199.8471" y="385.1435" width="14.4" height="14.4"/>
	<rect x="214.2471" y="385.1435" width="14.4" height="14.4"/>
	<rect x="271.8471" y="385.1435" width="14.4" height="14.4"/>
	<rect x="415.8471" y="385.1435" width="14.4" height="14.4"/>
	<rect x="430.2471" y="385.1435" width="14.4" height="14.4"/>
	<rect x="444.6471" y="385.1435" width="14.4" height="14.4"/>
	<rect x="617.4471" y="385.1435" width="14.4" height="14.4"/>
	<rect x="732.6471" y="385.1435" width="14.4" height="14.4"/>
	<rect x="747.0471" y="385.1435" width="14.4" height="14.4"/>
	<rect x="775.8471" y="385.1435" width="14.4" height="14.4"/>
	<rect x="790.2471" y="385.1435" width="14.4" height="14.4"/>
	<rect x="199.8471" y="399.5435" width="14.4" height="14.4"/>
	<rect x="271.8471" y="399.5435" width="14.4" height="14.4"/>
	<rect x="401.4471" y="399.5435" width="14.4" height="14.4"/>
	<rect x="415.8471" y="399.5435" width="14.4" height="14.4"/>
	<rect x="617.4471" y="399.5435" width="14.4" height="14.4"/>
	<rect x="747.0471" y="399.5435" width="14.4" height="14.4"/>
	<rect x="761.4471" y="399.5435" width="14.4" height="14.4"/>
	<rect x="790.2471" y="399.5435" width="14.4" height="14.4"/>
	<rect x="804.6471" y="399.5435" width="14.4" height="14.4"/>
	<rect x="185.4471" y="413.9435" width="14.4" height="14.4"/>
	<rect x="199.8471" y="413.9435" width="14.4" height="14.4"/>
	<rect x="257.4471" y="413.9435" width="14.4" height="14.4"/>
	<rect x="271.8471" y="413.9435" width="14.4" height="14.4"/>
	<rect x="372.6471" y="413.9435" width="14.4" height="14.4"/>
	<rect x="387.0471" y="413.9435" width="14.4" height="14.4"/>
	<rect x="401.4471" y="413.9435" width="14.4" height="14.4"/>
	<rect x="617.4471" y="413.9435" width="14.4" height="14.4"/>
	<rect x="761.4471" y="413.9435" width="14.4" height="14.4"/>
	<rect x="775.8471" y="413.9435" width="14.4" height="14.4"/>
	<rect x="804.6471" y="413.9435" width="14.4" height="14.4"/>
	<rect x="171.0471" y="428.3435" width="14.4" height="14.4"/>
	<rect x="185.4471" y="428.3435" width="14.4" height="14.4"/>
	<rect x="257.4471" y="428.3435" width="14.4" height="14.4"/>
	<rect x="343.8471" y="428.3435" width="14.4" height="14.4"/>
	<rect x="358.2471" y="428.3435" width="14.4" height="14.4"/>
	<rect x="372.6471" y="428.3435" width="14.4" height="14.4"/>
	<rect x="617.4471" y="428.3435" width="14.4" height="14.4"/>
	<rect x="775.8471" y="428.3435" width="14.4" height="14.4"/>
	<rect x="790.2471" y="428.3435" width="14.4" height="14.4"/>
	<rect x="804.6471" y="428.3435" width="14.4" height="14.4"/>
	<rect x="819.0471" y="428.3435" width="14.4" height="14.4"/>
	<rect x="171.0471" y="442.7435" width="14.4" height="14.4"/>
	<rect x="257.4471" y="442.7435" width="14.4" height="14.4"/>
	<rect x="315.0471" y="442.7435" width="14.4" height="14.4"/>
	<rect x="329.4471" y="442.7435" width="14.4" height="14.4"/>
	<rect x="343.8471" y="442.7435" width="14.4" height="14.4"/>
	<rect x="617.4471" y="442.7435" width="14.4" height="14.4"/>
	<rect x="790.2471" y="442.7435" width="14.4" height="14.4"/>
	<rect x="804.6471" y="442.7435" width="14.4" height="14.4"/>
	<rect x="819.0471" y="442.7435" width="14.4" height="14.4"/>
	<rect x="156.6471" y="457.1435" width="14.4" height="14.4"/>
	<rect x="171.0471" y="457.1435" width="14.4" height="14.4"/>
	<rect x="257.4471" y="457.1435" width="14.4" height="14.4"/>
	<rect x="300.6471" y="457.1435" width="14.4" height="14.4"/>
	<rect x="315.0471" y="457.1435" width="14.4" height="14.4"/>
	<rect x="617.4471" y="457.1435" width="14.4" height="14.4"/>
	<rect x="804.6471" y="457.1435" width="14.4" height="14.4"/>
	<rect x="819.0471" y="457.1435" width="14.4" height="14.4"/>
	<rect x="833.4471" y="457.1435" width="14.4" height="14.4"/>
	<rect x="156.6471" y="471.5435" width="14.4" height="14.4"/>
	<rect x="257.4471" y="471.5435" width="14.4" height="14.4"/>
	<rect x="271.8471" y="471.5435" width="14.4" height="14.4"/>
	<rect x="286.2471" y="471.5435" width="14.4" height="14.4"/>
	<rect x="300.6471" y="471.5435" width="14.4" height="14.4"/>
	<rect x="617.4471" y="471.5435" width="14.4" height="14.4"/>
	<rect x="819.0471" y="471.5435" width="14.4" height="14.4"/>
	<rect x="833.4471" y="471.5435" width="14.4" height="14.4"/>
	<rect x="847.8471" y="471.5435" width="14.4" height="14.4"/>
	<rect x="142.2471" y="485.9435" width="14.4" height="14.4"/>
	<rect x="156.6471" y="485.9435" width="14.4" height="14.4"/>
	<rect x="171.0471" y="485.9435" width="14.4" height="14.4"/>
	<rect x="185.4471" y="485.9435" width="14.4" height="14.4"/>
	<rect x="199.8471" y="485.9435" width="14.4" height="14.4"/>
	<rect x="214.2471" y="485.9435" width="14.4" height="14.4"/>
	<rect x="228.6471" y="485.9435" width="14.4" height="14.4"/>
	<rect x="243.0471" y="485.9435" width="14.4" height="14.4"/>
	<rect x="257.4471" y="485.9435" width="14.4" height="14.4"/>
	<rect x="271.8471" y="485.9435" width="14.4" height="14.4"/>
	<rect x="617.4471" y="485.9435" width="14.4" height="14.4"/>
	<rect x="833.4471" y="485.9435" width="14.4" height="14.4"/>
	<rect x="847.8471" y="485.9435" width="14.4" height="14.4"/>
	<rect x="142.2471" y="500.3435" width="14.4" height="14.4"/>
	<rect x="156.6471" y="500.3435" width="14.4" height="14.4"/>
	<rect x="243.0471" y="500.3435" width="14.4" height="14.4"/>
	<rect x="257.4471" y="500.3435" width="14.4" height="14.4"/>
	<rect x="271.8471" y="500.3435" width="14.4" height="14.4"/>
	<rect x="617.4471" y="500.3435" width="14.4" height="14.4"/>
	<rect x="833.4471" y="500.3435" width="14.4" height="14.4"/>
	<rect x="847.8471" y="500.3435" width="14.4" height="14.4"/>
	<rect x="156.6471" y="514.7435" width="14.4" height="14.4"/>
	<rect x="257.4471" y="514.7435" width="14.4" height="14.4"/>
	<rect x="271.8471" y="514.7435" width="14.4" height="14.4"/>
	<rect x="286.2471" y="514.7435" width="14.4" height="14.4"/>
	<rect x="300.6471" y="514.7435" width="14.4" height="14.4"/>
	<rect x="617.4471" y="514.7435" width="14.4" height="14.4"/>
	<rect x="819.0471" y="514.7435" width="14.4" height="14.4"/>
	<rect x="833.4471" y="514.7435" width="14.4" height="14.4"/>
	<rect x="156.6471" y="529.1436" width="14.4" height="14.4"/>
	<rect x="171.0471" y="529.1436" width="14.4" height="14.4"/>
	<rect x="257.4471" y="529.1436" width="14.4" height="14.4"/>
	<rect x="300.6471" y="529.1436" width="14.4" height="14.4"/>
	<rect x="315.0471" y="529.1436" width="14.4" height="14.4"/>
	<rect x="329.4471" y="529.1436" width="14.4" height="14.4"/>
	<rect x="617.4471" y="529.1436" width="14.4" height="14.4"/>
	<rect x="804.6471" y="529.1436" width="14.4" height="14.4"/>
	<rect x="819.0471" y="529.1436" width="14.4" height="14.4"/>
	<rect x="833.4471" y="529.1436" width="14.4" height="14.4"/>
	<rect x="171.0471" y="543.5435" width="14.4" height="14.4"/>
	<rect x="185.4471" y="543.5435" width="14.4" height="14.4"/>
	<rect x="257.4471" y="543.5435" width="14.4" height="14.4"/>
	<rect x="329.4471" y="543.5435" width="14.4" height="14.4"/>
	<rect x="343.8471" y="543.5435" width="14.4" height="14.4"/>
	<rect x="617.4471" y="543.5435" width="14.4" height="14.4"/>
	<rect x="790.2471" y="543.5435" width="14.4" height="14.4"/>
	<rect x="804.6471" y="543.5435" width="14.4" height="14.4"/>
	<rect x="819.0471" y="543.5435" width="14.4" height="14.4"/>
	<rect x="185.4471" y="557.9435" width="14.4" height="14.4"/>
	<rect x="257.4471" y="557.9435" width="14.4" height="14.4"/>
	<rect x="271.8471" y="557.9435" width="14.4" height="14.4"/>
	<rect x="343.8471" y="557.9435" width="14.4" height="14.4"/>
	<rect x="358.2471" y="557.9435" width="14.4" height="14.4"/>
	<rect x="372.6471" y="557.9435" width="14.4" height="14.4"/>
	<rect x="617.4471" y="557.9435" width="14.4" height="14.4"/>
	<rect x="775.8471" y="557.9435" width="14.4" height="14.4"/>
	<rect x="790.2471" y="557.9435" width="14.4" height="14.4"/>
	<rect x="804.6471" y="557.9435" width="14.4" height="14.4"/>
	<rect x="819.0471" y="557.9435" width="14.4" height="14.4"/>
	<rect x="185.4471" y="572.3435" width="14.4" height="14.4"/>
	<rect x="199.8471" y="572.3435" width="14.4" height="14.4"/>
	<rect x="271.8471" y="572.3435" width="14.4" height="14.4"/>
	<rect x="372.6471" y="572.3435" width="14.4" height="14.4"/>
	<rect x="387.0471" y="572.3435" width="14.4" height="14.4"/>
	<rect x="401.4471" y="572.3435" width="14.4" height="14.4"/>
	<rect x="617.4471" y="572.3435" width="14.4" height="14.4"/>
	<rect x="761.4471" y="572.3435" width="14.4" height="14.4"/>
	<rect x="775.8471" y="572.3435" width="14.4" height="14.4"/>
	<rect x="804.6471" y="572.3435" width="14.4" height="14.4"/>
	<rect x="199.8471" y="586.7435" width="14.4" height="14.4"/>
	<rect x="271.8471" y="586.7435" width="14.4" height="14.4"/>
	<rect x="401.4471" y="586.7435" width="14.4" height="14.4"/>
	<rect x="415.8471" y="586.7435" width="14.4" height="14.4"/>
	<rect x="617.4471" y="586.7435" width="14.4" height="14.4"/>
	<rect x="747.0471" y="586.7435" width="14.4" height="14.4"/>
	<rect x="761.4471" y="586.7435" width="14.4" height="14.4"/>
	<rect x="790.2471" y="586.7435" width="14.4" height="14.4"/>
	<rect x="804.6471" y="586.7435" width="14.4" height="14.4"/>
	<rect x="199.8471" y="601.1436" width="14.4" height="14.4"/>
	<rect x="214.2471" y="601.1436" width="14.4" height="14.4"/>
	<rect x="271.8471" y="601.1436" width="14.4" height="14.4"/>
	<rect x="415.8471" y="601.1436" width="14.4" height="14.4"/>
	<rect x="430.2471" y="601.1436" width="14.4" height="14.4"/>
	<rect x="444.6471" y="601.1436" width="14.4" height="14.4"/>
	<rect x="617.4471" y="601.1436" width="14.4" height="14.4"/>
	<rect x="732.6471" y="601.1436" width="14.4" height="14.4"/>
	<rect x="747.0471" y="601.1436" width="14.4" height="14.4"/>
	<rect x="775.8471" y="601.1436" width="14.4" height="14.4"/>
	<rect x="790.2471" y="601.1436" width="14.4" height="14.4"/>
	<rect x="214.2471" y="615.5435" width="14.4" height="14.4"/>
	<rect x="271.8471" y="615.5435" width="14.4" height="14.4"/>
	<rect x="444.6471" y="615.5435" width="14.4" height="14.4"/>
	<rect x="459.0471" y="615.5435" width="14.4" height="14.4"/>
	<rect x="473.4471" y="615.5435" width="14.4" height="14.4"/>
	<rect x="617.4471" y="615.5435" width="14.4" height="14.4"/>
	<rect x="718.2471" y="615.5435" width="14.4" height="14.4"/>
	<rect x="732.6471" y="615.5435" width="14.4" height="14.4"/>
	<rect x="775.8471" y="615.5435" width="14.4" height="14.4"/>
	<rect x="214.2471" y="629.9435" width="14.4" height="14.4"/>
	<rect x="228.6471" y="629.9435" width="14.4" height="14.4"/>
	<rect x="271.8471" y="629.9435" width="14.4" height="14.4"/>
	<rect x="286.2471" y="629.9435" width="14.4" height="14.4"/>
	<rect x="473.4471" y="629.9435" width="14.4" height="14.4"/>
	<rect x="487.8471" y="629.9435" width="14.4" height="14.4"/>
	<rect x="502.2471" y="629.9435" width="14.4" height="14.4"/>
	<rect x="617.4471" y="629.9435" width="14.4" height="14.4"/>
	<rect x="703.8471" y="629.9435" width="14.4" height="14.4"/>
	<rect x="718.2471" y="629.9435" width="14.4" height="14.4"/>
	<rect x="761.4471" y="629.9435" width="14.4" height="14.4"/>
	<rect x="775.8471" y="629.9435" width="14.4" height="14.4"/>
	<rect x="228.6471" y="644.3435" width="14.4" height="14.4"/>
	<rect x="243.0471" y="644.3435" width="14.4" height="14.4"/>
	<rect x="286.2471" y="644.3435" width="14.4" height="14.4"/>
	<rect x="502.2471" y="644.3435" width="14.4" height="14.4"/>
	<rect x="516.6471" y="644.3435" width="14.4" height="14.4"/>
	<rect x="617.4471" y="644.3435" width="14.4" height="14.4"/>
	<rect x="675.0471" y="644.3435" width="14.4" height="14.4"/>
	<rect x="689.4471" y="644.3435" width="14.4" height="14.4"/>
	<rect x="703.8471" y="644.3435" width="14.4" height="14.4"/>
	<rect x="761.4471" y="644.3435" width="14.4" height="14.4"/>
	<rect x="243.0471" y="658.7435" width="14.4" height="14.4"/>
	<rect x="286.2471" y="658.7435" width="14.4" height="14.4"/>
	<rect x="516.6471" y="658.7435" width="14.4" height="14.4"/>
	<rect x="531.0471" y="658.7435" width="14.4" height="14.4"/>
	<rect x="545.4471" y="658.7435" width="14.4" height="14.4"/>
	<rect x="617.4471" y="658.7435" width="14.4" height="14.4"/>
	<rect x="660.6471" y="658.7435" width="14.4" height="14.4"/>
	<rect x="675.0471" y="658.7435" width="14.4" height="14.4"/>
	<rect x="747.0471" y="658.7435" width="14.4" height="14.4"/>
	<rect x="761.4471" y="658.7435" width="14.4" height="14.4"/>
	<rect x="243.0471" y="673.1436" width="14.4" height="14.4"/>
	<rect x="257.4471" y="673.1436" width="14.4" height="14.4"/>
	<rect x="286.2471" y="673.1436" width="14.4" height="14.4"/>
	<rect x="545.4471" y="673.1436" width="14.4" height="14.4"/>
	<rect x="559.8471" y="673.1436" width="14.4" height="14.4"/>
	<rect x="574.2471" y="673.1436" width="14.4" height="14.4"/>
	<rect x="617.4471" y="673.1436" width="14.4" height="14.4"/>
	<rect x="646.2471" y="673.1436" width="14.4" height="14.4"/>
	<rect x="660.6471" y="673.1436" width="14.4" height="14.4"/>
	<rect x="747.0471" y="673.1436" width="14.4" height="14.4"/>
	<rect x="257.4471" y="687.5435" width="14.4" height="14.4"/>
	<rect x="286.2471" y="687.5435" width="14.4" height="14.4"/>
	<rect x="300.6471" y="687.5435" width="14.4" height="14.4"/>
	<rect x="574.2471" y="687.5435" width="14.4" height="14.4"/>
	<rect x="588.6471" y="687.5435" width="14.4" height="14.4"/>
	<rect x="603.0471" y="687.5435" width="14.4" height="14.4"/>
	<rect x="617.4471" y="687.5435" width="14.4" height="14.4"/>
	<rect x="631.8471" y="687.5435" width="14.4" height="14.4"/>
	<rect x="646.2471" y="687.5435" width="14.4" height="14.4"/>
	<rect x="732.6471" y="687.5435" width="14.4" height="14.4"/>
	<rect x="747.0471" y="687.5435" width="14.4" height="14.4"/>
	<rect x="257.4471" y="701.9435" width="14.4" height="14.4"/>
	<rect x="271.8471" y="701.9435" width="14.4" height="14.4"/>
	<rect x="300.6471" y="701.9435" width="14.4" height="14.4"/>
	<rect x="603.0471" y="701.9435" width="14.4" height="14.4"/>
	<rect x="617.4471" y="701.9435" width="14.4" height="14.4"/>
	<rect x="631.8471" y="701.9435" width="14.4" height="14.4"/>
	<rect x="718.2471" y="701.9435" width="14.4" height="14.4"/>
	<rect x="732.6471" y="701.9435" width="14.4" height="14.4"/>
	<rect x="271.8471" y="716.3435" width="14.4" height="14.4"/>
	<rect x="300.6471" y="716.3435" width="14.4" height="14.4"/>
	<rect x="574.2471" y="716.3435" width="14.4" height="14.4"/>
	<rect x="588.6471" y="716.3435" width="14.4" height="14.4"/>
	<rect x="603.0471" y="716.3435" width="14.4" height="14.4"/>
	<rect x="617.4471" y="716.3435" width="14.4" height="14.4"/>
	<rect x="631.8471" y="716.3435" width="14.4" height="14.4"/>
	<rect x="718.2471" y="716.3435" width="14.4" height="14.4"/>
	<rect x="271.8471" y="730.7435" width="14.4" height="14.4"/>
	<rect x="286.2471" y="730.7435" width="14.4" height="14.4"/>
	<rect x="300.6471" y="730.7435" width="14.4" height="14.4"/>
	<rect x="516.6471" y="730.7435" width="14.4" height="14.4"/>
	<rect x="531.0471" y="730.7435" width="14.4" height="14.4"/>
	<rect x="545.4471" y="730.7435" width="14.4" height="14.4"/>
	<rect x="559.8471" y="730.7435" width="14.4" height="14.4"/>
	<rect x="574.2471" y="730.7435" width="14.4" height="14.4"/>
	<rect x="631.8471" y="730.7435" width="14.4" height="14.4"/>
	<rect x="703.8471" y="730.7435" width="14.4" height="14.4"/>
	<rect x="718.2471" y="730.7435" width="14.4" height="14.4"/>
	<rect x="286.2471" y="745.1436" width="14.4" height="14.4"/>
	<rect x="300.6471" y="745.1436" width="14.4" height="14.4"/>
	<rect x="315.0471" y="745.1436" width="14.4" height="14.4"/>
	<rect x="473.4471" y="745.1436" width="14.4" height="14.4"/>
	<rect x="487.8471" y="745.1436" width="14.4" height="14.4"/>
	<rect x="502.2471" y="745.1436" width="14.4" height="14.4"/>
	<rect x="516.6471" y="745.1436" width="14.4" height="14.4"/>
	<rect x="631.8471" y="745.1436" width="14.4" height="14.4"/>
	<rect x="646.2471" y="745.1436" width="14.4" height="14.4"/>
	<rect x="703.8471" y="745.1436" width="14.4" height="14.4"/>
	<rect x="300.6471" y="759.5435" width="14.4" height="14.4"/>
	<rect x="315.0471" y="759.5435" width="14.4" height="14.4"/>
	<rect x="430.2471" y="759.5435" width="14.4" height="14.4"/>
	<rect x="444.6471" y="759.5435" width="14.4" height="14.4"/>
	<rect x="459.0471" y="759.5435" width="14.4" height="14.4"/>
	<rect x="473.4471" y="759.5435" width="14.4" height="14.4"/>
	<rect x="646.2471" y="759.5435" width="14.4" height="14.4"/>
	<rect x="660.6471" y="759.5435" width="14.4" height="14.4"/>
	<rect x="689.4471" y="759.5435" width="14.4" height="14.4"/>
	<rect x="703.8471" y="759.5435" width="14.4" height="14.4"/>
	<rect x="300.6471" y="773.9435" width="14.4" height="14.4"/>
	<rect x="315.0471" y="773.9435" width="14.4" height="14.4"/>
	<rect x="372.6471" y="773.9435" width="14.4" height="14.4"/>
	<rect x="387.0471" y="773.9435" width="14.4" height="14.4"/>
	<rect x="401.4471" y="773.9435" width="14.4" height="14.4"/>
	<rect x="415.8471" y="773.9435" width="14.4" height="14.4"/>
	<rect x="430.2471" y="773.9435" width="14.4" height="14.4"/>
	<rect x="660.6471" y="773.9435" width="14.4" height="14.4"/>
	<rect x="689.4471" y="773.9435" width="14.4" height="14.4"/>
	<rect x="315.0471" y="788.3435" width="14.4" height="14.4"/>
	<rect x="329.4471" y="788.3435" width="14.4" height="14.4"/>
	<rect x="343.8471" y="788.3435" width="14.4" height="14.4"/>
	<rect x="358.2471" y="788.3435" width="14.4" height="14.4"/>
	<rect x="372.6471" y="788.3435" width="14.4" height="14.4"/>
	<rect x="660.6471" y="788.3435" width="14.4" height="14.4"/>
	<rect x="675.0471" y="788.3435" width="14.4" height="14.4"/>
	<rect x="689.4471" y="788.3435" width="14.4" height="14.4"/>
	<rect x="315.0471" y="802.7435" width="14.4" height="14.4"/>
	<rect x="329.4471" y="802.7435" width="14.4" height="14.4"/>
	<rect x="343.8471" y="802.7435" width="14.4" height="14.4"/>
	<rect x="358.2471" y="802.7435" width="14.4" height="14.4"/>
	<rect x="372.6471" y="802.7435" width="14.4" height="14.4"/>
	<rect x="387.0471" y="802.7435" width="14.4" height="14.4"/>
	<rect x="401.4471" y="802.7435" width="14.4" height="14.4"/>
	<rect x="415.8471" y="802.7435" width="14.4" height="14.4"/>
	<rect x="430.2471" y="802.7435" width="14.4" height="14.4"/>
	<rect x="444.6471" y="802.7435" width="14.4" height="14.4"/>
	<rect x="459.0471" y="802.7435" width="14.4" height="14.4"/>
	<rect x="473.4471" y="802.7435" width="14.4" height="14.4"/>
	<rect x="487.8471" y="802.7435" width="14.4" height="14.4"/>
	<rect x="502.2471" y="802.7435" width="14.4" height="14.4"/>
	<rect x="516.6471" y="802.7435" width="14.4" height="14.4"/>
	<rect x="531.0471" y="802.7435" width="14.4" height="14.4"/>
	<rect x="545.4471" y="802.7435" width="14.4" height="14.4"/>
	<rect x="559.8471" y="802.7435" width="14.4" height="14.4"/>
	<rect x="574.2471" y="802.7435" width="14.4" height="14.4"/>
	<rect x="588.6471" y="802.7435" width="14.4" height="14.4"/>
	<rect x="603.0471" y="802.7435" width="14.4" height="14.4"/>
	<rect x="617.4471" y="802.7435" width="14.4" height="14.4"/>
	<rect x="631.8471" y="802.7435" width="14.4" height="14.4"/>
	<rect x="646.2471" y="802.7435" width="14.4" height="14.4"/>
	<rect x="660.6471" y="802.7435" width="14.4" height="14.4"/>
	<rect x="675.0471" y="802.7435" width="14.4" height="14.4"/>
</g>
</svg>
