<?xml version="1.0" encoding="utf-8"?>
<!-- Generator: Adobe Illustrator 27.0.0, SVG Export Plug-In . SVG Version: 6.00 Build 0)  -->
<svg version="1.1" id="Layer_1" xmlns="http://www.w3.org/2000/svg" xmlns:xlink="http://www.w3.org/1999/xlink" x="0px" y="0px"
	 viewBox="0 0 1000 1000" style="enable-background:new 0 0 1000 1000;" xml:space="preserve">
<g>
	<rect x="404.4334" y="159" width="14.4" height="14.4"/>
	<rect x="418.8334" y="159" width="14.4" height="14.4"/>
	<rect x="433.2334" y="159" width="14.4" height="14.4"/>
	<rect x="447.6334" y="159" width="14.4" height="14.4"/>
	<rect x="462.0334" y="159" width="14.4" height="14.4"/>
	<rect x="476.4334" y="159" width="14.4" height="14.4"/>
	<rect x="490.8334" y="159" width="14.4" height="14.4"/>
	<rect x="505.2334" y="159" width="14.4" height="14.4"/>
	<rect x="519.6334" y="159" width="14.4" height="14.4"/>
	<rect x="534.0334" y="159" width="14.4" height="14.4"/>
	<rect x="548.4334" y="159" width="14.4" height="14.4"/>
	<rect x="562.8334" y="159" width="14.4" height="14.4"/>
	<rect x="577.2334" y="159" width="14.4" height="14.4"/>
	<rect x="361.2334" y="173.4" width="14.4" height="14.4"/>
	<rect x="375.6334" y="173.4" width="14.4" height="14.4"/>
	<rect x="390.0334" y="173.4" width="14.4" height="14.4"/>
	<rect x="404.4334" y="173.4" width="14.4" height="14.4"/>
	<rect x="418.8334" y="173.4" width="14.4" height="14.4"/>
	<rect x="433.2334" y="173.4" width="14.4" height="14.4"/>
	<rect x="447.6334" y="173.4" width="14.4" height="14.4"/>
	<rect x="462.0334" y="173.4" width="14.4" height="14.4"/>
	<rect x="476.4334" y="173.4" width="14.4" height="14.4"/>
	<rect x="490.8334" y="173.4" width="14.4" height="14.4"/>
	<rect x="505.2334" y="173.4" width="14.4" height="14.4"/>
	<rect x="519.6334" y="173.4" width="14.4" height="14.4"/>
	<rect x="534.0334" y="173.4" width="14.4" height="14.4"/>
	<rect x="548.4334" y="173.4" width="14.4" height="14.4"/>
	<rect x="562.8334" y="173.4" width="14.4" height="14.4"/>
	<rect x="577.2334" y="173.4" width="14.4" height="14.4"/>
	<rect x="591.6334" y="173.4" width="14.4" height="14.4"/>
	<rect x="606.0334" y="173.4" width="14.4" height="14.4"/>
	<rect x="620.4334" y="173.4" width="14.4" height="14.4"/>
	<rect x="332.4334" y="187.8" width="14.4" height="14.4"/>
	<rect x="346.8334" y="187.8" width="14.4" height="14.4"/>
	<rect x="361.2334" y="187.8" width="14.4" height="14.4"/>
	<rect x="375.6334" y="187.8" width="14.4" height="14.4"/>
	<rect x="390.0334" y="187.8" width="14.4" height="14.4"/>
	<rect x="404.4334" y="187.8" width="14.4" height="14.4"/>
	<rect x="577.2334" y="187.8" width="14.4" height="14.4"/>
	<rect x="591.6334" y="187.8" width="14.4" height="14.4"/>
	<rect x="606.0334" y="187.8" width="14.4" height="14.4"/>
	<rect x="620.4334" y="187.8" width="14.4" height="14.4"/>
	<rect x="634.8334" y="187.8" width="14.4" height="14.4"/>
	<rect x="649.2334" y="187.8" width="14.4" height="14.4"/>
	<rect x="303.6334" y="202.2" width="14.4" height="14.4"/>
	<rect x="318.0334" y="202.2" width="14.4" height="14.4"/>
	<rect x="332.4334" y="202.2" width="14.4" height="14.4"/>
	<rect x="346.8334" y="202.2" width="14.4" height="14.4"/>
	<rect x="361.2334" y="202.2" width="14.4" height="14.4"/>
	<rect x="620.4334" y="202.2" width="14.4" height="14.4"/>
	<rect x="634.8334" y="202.2" width="14.4" height="14.4"/>
	<rect x="649.2334" y="202.2" width="14.4" height="14.4"/>
	<rect x="663.6334" y="202.2" width="14.4" height="14.4"/>
	<rect x="678.0334" y="202.2" width="14.4" height="14.4"/>
	<rect x="289.2334" y="216.6" width="14.4" height="14.4"/>
	<rect x="303.6334" y="216.6" width="14.4" height="14.4"/>
	<rect x="318.0334" y="216.6" width="14.4" height="14.4"/>
	<rect x="332.4334" y="216.6" width="14.4" height="14.4"/>
	<rect x="649.2334" y="216.6" width="14.4" height="14.4"/>
	<rect x="663.6334" y="216.6" width="14.4" height="14.4"/>
	<rect x="678.0334" y="216.6" width="14.4" height="14.4"/>
	<rect x="692.4334" y="216.6" width="14.4" height="14.4"/>
	<rect x="274.8334" y="231" width="14.4" height="14.4"/>
	<rect x="289.2334" y="231" width="14.4" height="14.4"/>
	<rect x="303.6334" y="231" width="14.4" height="14.4"/>
	<rect x="318.0334" y="231" width="14.4" height="14.4"/>
	<rect x="663.6334" y="231" width="14.4" height="14.4"/>
	<rect x="678.0334" y="231" width="14.4" height="14.4"/>
	<rect x="692.4334" y="231" width="14.4" height="14.4"/>
	<rect x="706.8334" y="231" width="14.4" height="14.4"/>
	<rect x="260.4334" y="245.4" width="14.4" height="14.4"/>
	<rect x="274.8334" y="245.4" width="14.4" height="14.4"/>
	<rect x="289.2334" y="245.4" width="14.4" height="14.4"/>
	<rect x="692.4334" y="245.4" width="14.4" height="14.4"/>
	<rect x="706.8334" y="245.4" width="14.4" height="14.4"/>
	<rect x="721.2334" y="245.4" width="14.4" height="14.4"/>
	<rect x="735.6334" y="245.4" width="14.4" height="14.4"/>
	<rect x="246.0334" y="259.8" width="14.4" height="14.4"/>
	<rect x="260.4334" y="259.8" width="14.4" height="14.4"/>
	<rect x="274.8334" y="259.8" width="14.4" height="14.4"/>
	<rect x="706.8334" y="259.8" width="14.4" height="14.4"/>
	<rect x="721.2334" y="259.8" width="14.4" height="14.4"/>
	<rect x="735.6334" y="259.8" width="14.4" height="14.4"/>
	<rect x="231.6334" y="274.2" width="14.4" height="14.4"/>
	<rect x="246.0334" y="274.2" width="14.4" height="14.4"/>
	<rect x="260.4334" y="274.2" width="14.4" height="14.4"/>
	<rect x="721.2334" y="274.2" width="14.4" height="14.4"/>
	<rect x="735.6334" y="274.2" width="14.4" height="14.4"/>
	<rect x="750.0334" y="274.2" width="14.4" height="14.4"/>
	<rect x="217.2334" y="288.6" width="14.4" height="14.4"/>
	<rect x="231.6334" y="288.6" width="14.4" height="14.4"/>
	<rect x="246.0334" y="288.6" width="14.4" height="14.4"/>
	<rect x="735.6334" y="288.6" width="14.4" height="14.4"/>
	<rect x="750.0334" y="288.6" width="14.4" height="14.4"/>
	<rect x="764.4334" y="288.6" width="14.4" height="14.4"/>
	<rect x="217.2334" y="303" width="14.4" height="14.4"/>
	<rect x="231.6334" y="303" width="14.4" height="14.4"/>
	<rect x="750.0334" y="303" width="14.4" height="14.4"/>
	<rect x="764.4334" y="303" width="14.4" height="14.4"/>
	<rect x="778.8334" y="303" width="14.4" height="14.4"/>
	<rect x="202.8334" y="317.4" width="14.4" height="14.4"/>
	<rect x="217.2334" y="317.4" width="14.4" height="14.4"/>
	<rect x="231.6334" y="317.4" width="14.4" height="14.4"/>
	<rect x="764.4334" y="317.4" width="14.4" height="14.4"/>
	<rect x="778.8334" y="317.4" width="14.4" height="14.4"/>
	<rect x="188.4334" y="331.8" width="14.4" height="14.4"/>
	<rect x="202.8334" y="331.8" width="14.4" height="14.4"/>
	<rect x="217.2334" y="331.8" width="14.4" height="14.4"/>
	<rect x="764.4334" y="331.8" width="14.4" height="14.4"/>
	<rect x="778.8334" y="331.8" width="14.4" height="14.4"/>
	<rect x="793.2334" y="331.8" width="14.4" height="14.4"/>
	<rect x="188.4334" y="346.2" width="14.4" height="14.4"/>
	<rect x="202.8334" y="346.2" width="14.4" height="14.4"/>
	<rect x="778.8334" y="346.2" width="14.4" height="14.4"/>
	<rect x="793.2334" y="346.2" width="14.4" height="14.4"/>
	<rect x="174.0334" y="360.6" width="14.4" height="14.4"/>
	<rect x="188.4334" y="360.6" width="14.4" height="14.4"/>
	<rect x="202.8334" y="360.6" width="14.4" height="14.4"/>
	<rect x="778.8334" y="360.6" width="14.4" height="14.4"/>
	<rect x="793.2334" y="360.6" width="14.4" height="14.4"/>
	<rect x="807.6334" y="360.6" width="14.4" height="14.4"/>
	<rect x="174.0334" y="375" width="14.4" height="14.4"/>
	<rect x="188.4334" y="375" width="14.4" height="14.4"/>
	<rect x="202.8334" y="375" width="14.4" height="14.4"/>
	<rect x="793.2334" y="375" width="14.4" height="14.4"/>
	<rect x="807.6334" y="375" width="14.4" height="14.4"/>
	<rect x="174.0334" y="389.4" width="14.4" height="14.4"/>
	<rect x="188.4334" y="389.4" width="14.4" height="14.4"/>
	<rect x="793.2334" y="389.4" width="14.4" height="14.4"/>
	<rect x="807.6334" y="389.4" width="14.4" height="14.4"/>
	<rect x="822.0334" y="389.4" width="14.4" height="14.4"/>
	<rect x="159.6334" y="403.8" width="14.4" height="14.4"/>
	<rect x="174.0334" y="403.8" width="14.4" height="14.4"/>
	<rect x="188.4334" y="403.8" width="14.4" height="14.4"/>
	<rect x="793.2334" y="403.8" width="14.4" height="14.4"/>
	<rect x="807.6334" y="403.8" width="14.4" height="14.4"/>
	<rect x="822.0334" y="403.8" width="14.4" height="14.4"/>
	<rect x="159.6334" y="418.2" width="14.4" height="14.4"/>
	<rect x="174.0334" y="418.2" width="14.4" height="14.4"/>
	<rect x="188.4334" y="418.2" width="14.4" height="14.4"/>
	<rect x="807.6334" y="418.2" width="14.4" height="14.4"/>
	<rect x="822.0334" y="418.2" width="14.4" height="14.4"/>
	<rect x="159.6334" y="432.6" width="14.4" height="14.4"/>
	<rect x="174.0334" y="432.6" width="14.4" height="14.4"/>
	<rect x="807.6334" y="432.6" width="14.4" height="14.4"/>
	<rect x="822.0334" y="432.6" width="14.4" height="14.4"/>
	<rect x="159.6334" y="447" width="14.4" height="14.4"/>
	<rect x="174.0334" y="447" width="14.4" height="14.4"/>
	<rect x="807.6334" y="447" width="14.4" height="14.4"/>
	<rect x="822.0334" y="447" width="14.4" height="14.4"/>
	<rect x="159.6334" y="461.4" width="14.4" height="14.4"/>
	<rect x="174.0334" y="461.4" width="14.4" height="14.4"/>
	<rect x="807.6334" y="461.4" width="14.4" height="14.4"/>
	<rect x="822.0334" y="461.4" width="14.4" height="14.4"/>
	<rect x="159.6334" y="475.8" width="14.4" height="14.4"/>
	<rect x="174.0334" y="475.8" width="14.4" height="14.4"/>
	<rect x="807.6334" y="475.8" width="14.4" height="14.4"/>
	<rect x="822.0334" y="475.8" width="14.4" height="14.4"/>
	<rect x="159.6334" y="490.2" width="14.4" height="14.4"/>
	<rect x="174.0334" y="490.2" width="14.4" height="14.4"/>
	<rect x="822.0334" y="490.2" width="14.4" height="14.4"/>
	<rect x="836.4334" y="490.2" width="14.4" height="14.4"/>
	<rect x="159.6334" y="504.6" width="14.4" height="14.4"/>
	<rect x="174.0334" y="504.6" width="14.4" height="14.4"/>
	<rect x="807.6334" y="504.6" width="14.4" height="14.4"/>
	<rect x="822.0334" y="504.6" width="14.4" height="14.4"/>
	<rect x="836.4334" y="504.6" width="14.4" height="14.4"/>
	<rect x="159.6334" y="519" width="14.4" height="14.4"/>
	<rect x="174.0334" y="519" width="14.4" height="14.4"/>
	<rect x="807.6334" y="519" width="14.4" height="14.4"/>
	<rect x="822.0334" y="519" width="14.4" height="14.4"/>
	<rect x="836.4334" y="519" width="14.4" height="14.4"/>
	<rect x="159.6334" y="533.4" width="14.4" height="14.4"/>
	<rect x="174.0334" y="533.4" width="14.4" height="14.4"/>
	<rect x="807.6334" y="533.4" width="14.4" height="14.4"/>
	<rect x="822.0334" y="533.4" width="14.4" height="14.4"/>
	<rect x="159.6334" y="547.8" width="14.4" height="14.4"/>
	<rect x="174.0334" y="547.8" width="14.4" height="14.4"/>
	<rect x="807.6334" y="547.8" width="14.4" height="14.4"/>
	<rect x="822.0334" y="547.8" width="14.4" height="14.4"/>
	<rect x="159.6334" y="562.2" width="14.4" height="14.4"/>
	<rect x="174.0334" y="562.2" width="14.4" height="14.4"/>
	<rect x="807.6334" y="562.2" width="14.4" height="14.4"/>
	<rect x="822.0334" y="562.2" width="14.4" height="14.4"/>
	<rect x="159.6334" y="576.6" width="14.4" height="14.4"/>
	<rect x="174.0334" y="576.6" width="14.4" height="14.4"/>
	<rect x="188.4334" y="576.6" width="14.4" height="14.4"/>
	<rect x="807.6334" y="576.6" width="14.4" height="14.4"/>
	<rect x="822.0334" y="576.6" width="14.4" height="14.4"/>
	<rect x="174.0334" y="591" width="14.4" height="14.4"/>
	<rect x="188.4334" y="591" width="14.4" height="14.4"/>
	<rect x="793.2334" y="591" width="14.4" height="14.4"/>
	<rect x="807.6334" y="591" width="14.4" height="14.4"/>
	<rect x="822.0334" y="591" width="14.4" height="14.4"/>
	<rect x="174.0334" y="605.4" width="14.4" height="14.4"/>
	<rect x="188.4334" y="605.4" width="14.4" height="14.4"/>
	<rect x="793.2334" y="605.4" width="14.4" height="14.4"/>
	<rect x="807.6334" y="605.4" width="14.4" height="14.4"/>
	<rect x="174.0334" y="619.8" width="14.4" height="14.4"/>
	<rect x="188.4334" y="619.8" width="14.4" height="14.4"/>
	<rect x="202.8334" y="619.8" width="14.4" height="14.4"/>
	<rect x="778.8334" y="619.8" width="14.4" height="14.4"/>
	<rect x="793.2334" y="619.8" width="14.4" height="14.4"/>
	<rect x="807.6334" y="619.8" width="14.4" height="14.4"/>
	<rect x="188.4334" y="634.2" width="14.4" height="14.4"/>
	<rect x="202.8334" y="634.2" width="14.4" height="14.4"/>
	<rect x="778.8334" y="634.2" width="14.4" height="14.4"/>
	<rect x="793.2334" y="634.2" width="14.4" height="14.4"/>
	<rect x="807.6334" y="634.2" width="14.4" height="14.4"/>
	<rect x="188.4334" y="648.6" width="14.4" height="14.4"/>
	<rect x="202.8334" y="648.6" width="14.4" height="14.4"/>
	<rect x="217.2334" y="648.6" width="14.4" height="14.4"/>
	<rect x="764.4334" y="648.6" width="14.4" height="14.4"/>
	<rect x="778.8334" y="648.6" width="14.4" height="14.4"/>
	<rect x="793.2334" y="648.6" width="14.4" height="14.4"/>
	<rect x="202.8334" y="663" width="14.4" height="14.4"/>
	<rect x="217.2334" y="663" width="14.4" height="14.4"/>
	<rect x="764.4334" y="663" width="14.4" height="14.4"/>
	<rect x="778.8334" y="663" width="14.4" height="14.4"/>
	<rect x="793.2334" y="663" width="14.4" height="14.4"/>
	<rect x="202.8334" y="677.4" width="14.4" height="14.4"/>
	<rect x="217.2334" y="677.4" width="14.4" height="14.4"/>
	<rect x="231.6334" y="677.4" width="14.4" height="14.4"/>
	<rect x="750.0334" y="677.4" width="14.4" height="14.4"/>
	<rect x="764.4334" y="677.4" width="14.4" height="14.4"/>
	<rect x="778.8334" y="677.4" width="14.4" height="14.4"/>
	<rect x="217.2334" y="691.8" width="14.4" height="14.4"/>
	<rect x="231.6334" y="691.8" width="14.4" height="14.4"/>
	<rect x="246.0334" y="691.8" width="14.4" height="14.4"/>
	<rect x="735.6334" y="691.8" width="14.4" height="14.4"/>
	<rect x="750.0334" y="691.8" width="14.4" height="14.4"/>
	<rect x="764.4334" y="691.8" width="14.4" height="14.4"/>
	<rect x="231.6334" y="706.2" width="14.4" height="14.4"/>
	<rect x="246.0334" y="706.2" width="14.4" height="14.4"/>
	<rect x="260.4334" y="706.2" width="14.4" height="14.4"/>
	<rect x="721.2334" y="706.2" width="14.4" height="14.4"/>
	<rect x="735.6334" y="706.2" width="14.4" height="14.4"/>
	<rect x="750.0334" y="706.2" width="14.4" height="14.4"/>
	<rect x="764.4334" y="706.2" width="14.4" height="14.4"/>
	<rect x="231.6334" y="720.6" width="14.4" height="14.4"/>
	<rect x="246.0334" y="720.6" width="14.4" height="14.4"/>
	<rect x="260.4334" y="720.6" width="14.4" height="14.4"/>
	<rect x="274.8334" y="720.6" width="14.4" height="14.4"/>
	<rect x="706.8334" y="720.6" width="14.4" height="14.4"/>
	<rect x="721.2334" y="720.6" width="14.4" height="14.4"/>
	<rect x="735.6334" y="720.6" width="14.4" height="14.4"/>
	<rect x="750.0334" y="720.6" width="14.4" height="14.4"/>
	<rect x="246.0334" y="735" width="14.4" height="14.4"/>
	<rect x="260.4334" y="735" width="14.4" height="14.4"/>
	<rect x="274.8334" y="735" width="14.4" height="14.4"/>
	<rect x="289.2334" y="735" width="14.4" height="14.4"/>
	<rect x="692.4334" y="735" width="14.4" height="14.4"/>
	<rect x="706.8334" y="735" width="14.4" height="14.4"/>
	<rect x="721.2334" y="735" width="14.4" height="14.4"/>
	<rect x="735.6334" y="735" width="14.4" height="14.4"/>
	<rect x="260.4334" y="749.4" width="14.4" height="14.4"/>
	<rect x="274.8334" y="749.4" width="14.4" height="14.4"/>
	<rect x="289.2334" y="749.4" width="14.4" height="14.4"/>
	<rect x="303.6334" y="749.4" width="14.4" height="14.4"/>
	<rect x="678.0334" y="749.4" width="14.4" height="14.4"/>
	<rect x="692.4334" y="749.4" width="14.4" height="14.4"/>
	<rect x="706.8334" y="749.4" width="14.4" height="14.4"/>
	<rect x="721.2334" y="749.4" width="14.4" height="14.4"/>
	<rect x="289.2334" y="763.8" width="14.4" height="14.4"/>
	<rect x="303.6334" y="763.8" width="14.4" height="14.4"/>
	<rect x="318.0334" y="763.8" width="14.4" height="14.4"/>
	<rect x="332.4334" y="763.8" width="14.4" height="14.4"/>
	<rect x="649.2334" y="763.8" width="14.4" height="14.4"/>
	<rect x="663.6334" y="763.8" width="14.4" height="14.4"/>
	<rect x="678.0334" y="763.8" width="14.4" height="14.4"/>
	<rect x="692.4334" y="763.8" width="14.4" height="14.4"/>
	<rect x="706.8334" y="763.8" width="14.4" height="14.4"/>
	<rect x="303.6334" y="778.2" width="14.4" height="14.4"/>
	<rect x="318.0334" y="778.2" width="14.4" height="14.4"/>
	<rect x="332.4334" y="778.2" width="14.4" height="14.4"/>
	<rect x="346.8334" y="778.2" width="14.4" height="14.4"/>
	<rect x="361.2334" y="778.2" width="14.4" height="14.4"/>
	<rect x="634.8334" y="778.2" width="14.4" height="14.4"/>
	<rect x="649.2334" y="778.2" width="14.4" height="14.4"/>
	<rect x="663.6334" y="778.2" width="14.4" height="14.4"/>
	<rect x="678.0334" y="778.2" width="14.4" height="14.4"/>
	<rect x="332.4334" y="792.6" width="14.4" height="14.4"/>
	<rect x="346.8334" y="792.6" width="14.4" height="14.4"/>
	<rect x="361.2334" y="792.6" width="14.4" height="14.4"/>
	<rect x="375.6334" y="792.6" width="14.4" height="14.4"/>
	<rect x="390.0334" y="792.6" width="14.4" height="14.4"/>
	<rect x="591.6334" y="792.6" width="14.4" height="14.4"/>
	<rect x="606.0334" y="792.6" width="14.4" height="14.4"/>
	<rect x="620.4334" y="792.6" width="14.4" height="14.4"/>
	<rect x="634.8334" y="792.6" width="14.4" height="14.4"/>
	<rect x="649.2334" y="792.6" width="14.4" height="14.4"/>
	<rect x="663.6334" y="792.6" width="14.4" height="14.4"/>
	<rect x="346.8334" y="807" width="14.4" height="14.4"/>
	<rect x="361.2334" y="807" width="14.4" height="14.4"/>
	<rect x="375.6334" y="807" width="14.4" height="14.4"/>
	<rect x="390.0334" y="807" width="14.4" height="14.4"/>
	<rect x="404.4334" y="807" width="14.4" height="14.4"/>
	<rect x="418.8334" y="807" width="14.4" height="14.4"/>
	<rect x="433.2334" y="807" width="14.4" height="14.4"/>
	<rect x="447.6334" y="807" width="14.4" height="14.4"/>
	<rect x="462.0334" y="807" width="14.4" height="14.4"/>
	<rect x="519.6334" y="807" width="14.4" height="14.4"/>
	<rect x="534.0334" y="807" width="14.4" height="14.4"/>
	<rect x="548.4334" y="807" width="14.4" height="14.4"/>
	<rect x="562.8334" y="807" width="14.4" height="14.4"/>
	<rect x="577.2334" y="807" width="14.4" height="14.4"/>
	<rect x="591.6334" y="807" width="14.4" height="14.4"/>
	<rect x="606.0334" y="807" width="14.4" height="14.4"/>
	<rect x="620.4334" y="807" width="14.4" height="14.4"/>
	<rect x="634.8334" y="807" width="14.4" height="14.4"/>
	<rect x="390.0334" y="821.4" width="14.4" height="14.4"/>
	<rect x="404.4334" y="821.4" width="14.4" height="14.4"/>
	<rect x="418.8334" y="821.4" width="14.4" height="14.4"/>
	<rect x="433.2334" y="821.4" width="14.4" height="14.4"/>
	<rect x="447.6334" y="821.4" width="14.4" height="14.4"/>
	<rect x="462.0334" y="821.4" width="14.4" height="14.4"/>
	<rect x="476.4334" y="821.4" width="14.4" height="14.4"/>
	<rect x="490.8334" y="821.4" width="14.4" height="14.4"/>
	<rect x="505.2334" y="821.4" width="14.4" height="14.4"/>
	<rect x="519.6334" y="821.4" width="14.4" height="14.4"/>
	<rect x="534.0334" y="821.4" width="14.4" height="14.4"/>
	<rect x="548.4334" y="821.4" width="14.4" height="14.4"/>
	<rect x="562.8334" y="821.4" width="14.4" height="14.4"/>
	<rect x="577.2334" y="821.4" width="14.4" height="14.4"/>
	<rect x="591.6334" y="821.4" width="14.4" height="14.4"/>
	<rect x="462.0334" y="835.8" width="14.4" height="14.4"/>
	<rect x="476.4334" y="835.8" width="14.4" height="14.4"/>
	<rect x="490.8334" y="835.8" width="14.4" height="14.4"/>
	<rect x="505.2334" y="835.8" width="14.4" height="14.4"/>
	<rect x="519.6334" y="835.8" width="14.4" height="14.4"/>
</g>
<g>
	<rect x="253.1013" y="503.116" width="14.4" height="14.4"/>
	<rect x="267.5013" y="503.116" width="14.4" height="14.4"/>
	<rect x="281.9013" y="503.116" width="14.4" height="14.4"/>
	<rect x="296.3013" y="503.116" width="14.4" height="14.4"/>
	<rect x="310.7013" y="503.116" width="14.4" height="14.4"/>
	<rect x="685.1013" y="503.116" width="14.4" height="14.4"/>
	<rect x="699.5013" y="503.116" width="14.4" height="14.4"/>
	<rect x="713.9013" y="503.116" width="14.4" height="14.4"/>
	<rect x="728.3013" y="503.116" width="14.4" height="14.4"/>
	<rect x="253.1013" y="517.516" width="14.4" height="14.4"/>
	<rect x="267.5013" y="517.516" width="14.4" height="14.4"/>
	<rect x="281.9013" y="517.516" width="14.4" height="14.4"/>
	<rect x="296.3013" y="517.516" width="14.4" height="14.4"/>
	<rect x="685.1013" y="517.516" width="14.4" height="14.4"/>
	<rect x="699.5013" y="517.516" width="14.4" height="14.4"/>
	<rect x="713.9013" y="517.516" width="14.4" height="14.4"/>
	<rect x="728.3013" y="517.516" width="14.4" height="14.4"/>
	<rect x="742.7013" y="517.516" width="14.4" height="14.4"/>
	<rect x="267.5013" y="531.916" width="14.4" height="14.4"/>
	<rect x="281.9013" y="531.916" width="14.4" height="14.4"/>
	<rect x="296.3013" y="531.916" width="14.4" height="14.4"/>
	<rect x="699.5013" y="531.916" width="14.4" height="14.4"/>
	<rect x="713.9013" y="531.916" width="14.4" height="14.4"/>
	<rect x="267.5013" y="546.316" width="14.4" height="14.4"/>
	<rect x="281.9013" y="546.316" width="14.4" height="14.4"/>
	<rect x="296.3013" y="546.316" width="14.4" height="14.4"/>
	<rect x="699.5013" y="546.316" width="14.4" height="14.4"/>
	<rect x="713.9013" y="546.316" width="14.4" height="14.4"/>
	<rect x="267.5013" y="560.716" width="14.4" height="14.4"/>
	<rect x="281.9013" y="560.716" width="14.4" height="14.4"/>
	<rect x="296.3013" y="560.716" width="14.4" height="14.4"/>
	<rect x="685.1013" y="560.716" width="14.4" height="14.4"/>
	<rect x="699.5013" y="560.716" width="14.4" height="14.4"/>
	<rect x="713.9013" y="560.716" width="14.4" height="14.4"/>
	<rect x="281.9013" y="575.116" width="14.4" height="14.4"/>
	<rect x="296.3013" y="575.116" width="14.4" height="14.4"/>
	<rect x="685.1013" y="575.116" width="14.4" height="14.4"/>
	<rect x="699.5013" y="575.116" width="14.4" height="14.4"/>
	<rect x="713.9013" y="575.116" width="14.4" height="14.4"/>
	<rect x="281.9013" y="589.516" width="14.4" height="14.4"/>
	<rect x="296.3013" y="589.516" width="14.4" height="14.4"/>
	<rect x="310.7013" y="589.516" width="14.4" height="14.4"/>
	<rect x="670.7013" y="589.516" width="14.4" height="14.4"/>
	<rect x="685.1013" y="589.516" width="14.4" height="14.4"/>
	<rect x="699.5013" y="589.516" width="14.4" height="14.4"/>
	<rect x="281.9013" y="603.916" width="14.4" height="14.4"/>
	<rect x="296.3013" y="603.916" width="14.4" height="14.4"/>
	<rect x="310.7013" y="603.916" width="14.4" height="14.4"/>
	<rect x="325.1013" y="603.916" width="14.4" height="14.4"/>
	<rect x="670.7013" y="603.916" width="14.4" height="14.4"/>
	<rect x="685.1013" y="603.916" width="14.4" height="14.4"/>
	<rect x="699.5013" y="603.916" width="14.4" height="14.4"/>
	<rect x="296.3013" y="618.316" width="14.4" height="14.4"/>
	<rect x="310.7013" y="618.316" width="14.4" height="14.4"/>
	<rect x="325.1013" y="618.316" width="14.4" height="14.4"/>
	<rect x="656.3013" y="618.316" width="14.4" height="14.4"/>
	<rect x="670.7013" y="618.316" width="14.4" height="14.4"/>
	<rect x="685.1013" y="618.316" width="14.4" height="14.4"/>
	<rect x="310.7013" y="632.716" width="14.4" height="14.4"/>
	<rect x="325.1013" y="632.716" width="14.4" height="14.4"/>
	<rect x="339.5013" y="632.716" width="14.4" height="14.4"/>
	<rect x="641.9013" y="632.716" width="14.4" height="14.4"/>
	<rect x="656.3013" y="632.716" width="14.4" height="14.4"/>
	<rect x="670.7013" y="632.716" width="14.4" height="14.4"/>
	<rect x="685.1013" y="632.716" width="14.4" height="14.4"/>
	<rect x="325.1013" y="647.116" width="14.4" height="14.4"/>
	<rect x="339.5013" y="647.116" width="14.4" height="14.4"/>
	<rect x="353.9013" y="647.116" width="14.4" height="14.4"/>
	<rect x="368.3013" y="647.116" width="14.4" height="14.4"/>
	<rect x="627.5013" y="647.116" width="14.4" height="14.4"/>
	<rect x="641.9013" y="647.116" width="14.4" height="14.4"/>
	<rect x="656.3013" y="647.116" width="14.4" height="14.4"/>
	<rect x="670.7013" y="647.116" width="14.4" height="14.4"/>
	<rect x="325.1013" y="661.516" width="14.4" height="14.4"/>
	<rect x="339.5013" y="661.516" width="14.4" height="14.4"/>
	<rect x="353.9013" y="661.516" width="14.4" height="14.4"/>
	<rect x="368.3013" y="661.516" width="14.4" height="14.4"/>
	<rect x="382.7013" y="661.516" width="14.4" height="14.4"/>
	<rect x="598.7013" y="661.516" width="14.4" height="14.4"/>
	<rect x="613.1013" y="661.516" width="14.4" height="14.4"/>
	<rect x="627.5013" y="661.516" width="14.4" height="14.4"/>
	<rect x="641.9013" y="661.516" width="14.4" height="14.4"/>
	<rect x="656.3013" y="661.516" width="14.4" height="14.4"/>
	<rect x="353.9013" y="675.916" width="14.4" height="14.4"/>
	<rect x="368.3013" y="675.916" width="14.4" height="14.4"/>
	<rect x="382.7013" y="675.916" width="14.4" height="14.4"/>
	<rect x="397.1013" y="675.916" width="14.4" height="14.4"/>
	<rect x="411.5013" y="675.916" width="14.4" height="14.4"/>
	<rect x="569.9013" y="675.916" width="14.4" height="14.4"/>
	<rect x="584.3013" y="675.916" width="14.4" height="14.4"/>
	<rect x="598.7013" y="675.916" width="14.4" height="14.4"/>
	<rect x="613.1013" y="675.916" width="14.4" height="14.4"/>
	<rect x="627.5013" y="675.916" width="14.4" height="14.4"/>
	<rect x="641.9013" y="675.916" width="14.4" height="14.4"/>
	<rect x="368.3013" y="690.316" width="14.4" height="14.4"/>
	<rect x="382.7013" y="690.316" width="14.4" height="14.4"/>
	<rect x="397.1013" y="690.316" width="14.4" height="14.4"/>
	<rect x="411.5013" y="690.316" width="14.4" height="14.4"/>
	<rect x="425.9013" y="690.316" width="14.4" height="14.4"/>
	<rect x="440.3013" y="690.316" width="14.4" height="14.4"/>
	<rect x="454.7013" y="690.316" width="14.4" height="14.4"/>
	<rect x="469.1013" y="690.316" width="14.4" height="14.4"/>
	<rect x="512.3013" y="690.316" width="14.4" height="14.4"/>
	<rect x="526.7013" y="690.316" width="14.4" height="14.4"/>
	<rect x="541.1013" y="690.316" width="14.4" height="14.4"/>
	<rect x="555.5013" y="690.316" width="14.4" height="14.4"/>
	<rect x="569.9013" y="690.316" width="14.4" height="14.4"/>
	<rect x="584.3013" y="690.316" width="14.4" height="14.4"/>
	<rect x="598.7013" y="690.316" width="14.4" height="14.4"/>
	<rect x="613.1013" y="690.316" width="14.4" height="14.4"/>
	<rect x="397.1013" y="704.716" width="14.4" height="14.4"/>
	<rect x="411.5013" y="704.716" width="14.4" height="14.4"/>
	<rect x="425.9013" y="704.716" width="14.4" height="14.4"/>
	<rect x="440.3013" y="704.716" width="14.4" height="14.4"/>
	<rect x="454.7013" y="704.716" width="14.4" height="14.4"/>
	<rect x="469.1013" y="704.716" width="14.4" height="14.4"/>
	<rect x="483.5013" y="704.716" width="14.4" height="14.4"/>
	<rect x="497.9013" y="704.716" width="14.4" height="14.4"/>
	<rect x="512.3013" y="704.716" width="14.4" height="14.4"/>
	<rect x="526.7013" y="704.716" width="14.4" height="14.4"/>
	<rect x="541.1013" y="704.716" width="14.4" height="14.4"/>
	<rect x="555.5013" y="704.716" width="14.4" height="14.4"/>
	<rect x="569.9013" y="704.716" width="14.4" height="14.4"/>
	<rect x="584.3013" y="704.716" width="14.4" height="14.4"/>
	<rect x="440.3013" y="719.116" width="14.4" height="14.4"/>
	<rect x="454.7013" y="719.116" width="14.4" height="14.4"/>
	<rect x="469.1013" y="719.116" width="14.4" height="14.4"/>
	<rect x="483.5013" y="719.116" width="14.4" height="14.4"/>
	<rect x="497.9013" y="719.116" width="14.4" height="14.4"/>
	<rect x="512.3013" y="719.116" width="14.4" height="14.4"/>
	<rect x="526.7013" y="719.116" width="14.4" height="14.4"/>
	<rect x="541.1013" y="719.116" width="14.4" height="14.4"/>
</g>
<g>
	<rect x="399.319" y="287.5087" width="14.4" height="14.4"/>
	<rect x="413.7191" y="287.5087" width="14.4" height="14.4"/>
	<rect x="428.119" y="287.5087" width="14.4" height="14.4"/>
	<rect x="384.919" y="301.9087" width="14.4" height="14.4"/>
	<rect x="399.319" y="301.9087" width="14.4" height="14.4"/>
	<rect x="413.7191" y="301.9087" width="14.4" height="14.4"/>
	<rect x="428.119" y="301.9087" width="14.4" height="14.4"/>
	<rect x="442.519" y="301.9087" width="14.4" height="14.4"/>
	<rect x="384.919" y="316.3087" width="14.4" height="14.4"/>
	<rect x="399.319" y="316.3087" width="14.4" height="14.4"/>
	<rect x="413.7191" y="316.3087" width="14.4" height="14.4"/>
	<rect x="428.119" y="316.3087" width="14.4" height="14.4"/>
	<rect x="442.519" y="316.3087" width="14.4" height="14.4"/>
	<rect x="384.919" y="330.7086" width="14.4" height="14.4"/>
	<rect x="399.319" y="330.7086" width="14.4" height="14.4"/>
	<rect x="413.7191" y="330.7086" width="14.4" height="14.4"/>
	<rect x="428.119" y="330.7086" width="14.4" height="14.4"/>
	<rect x="442.519" y="330.7086" width="14.4" height="14.4"/>
	<rect x="384.919" y="345.1087" width="14.4" height="14.4"/>
	<rect x="399.319" y="345.1087" width="14.4" height="14.4"/>
	<rect x="413.7191" y="345.1087" width="14.4" height="14.4"/>
	<rect x="428.119" y="345.1087" width="14.4" height="14.4"/>
	<rect x="442.519" y="345.1087" width="14.4" height="14.4"/>
	<rect x="384.919" y="359.5087" width="14.4" height="14.4"/>
	<rect x="399.319" y="359.5087" width="14.4" height="14.4"/>
	<rect x="413.7191" y="359.5087" width="14.4" height="14.4"/>
	<rect x="428.119" y="359.5087" width="14.4" height="14.4"/>
	<rect x="442.519" y="359.5087" width="14.4" height="14.4"/>
	<rect x="384.919" y="373.9087" width="14.4" height="14.4"/>
	<rect x="399.319" y="373.9087" width="14.4" height="14.4"/>
	<rect x="413.7191" y="373.9087" width="14.4" height="14.4"/>
	<rect x="428.119" y="373.9087" width="14.4" height="14.4"/>
	<rect x="442.519" y="373.9087" width="14.4" height="14.4"/>
	<rect x="384.919" y="388.3087" width="14.4" height="14.4"/>
	<rect x="399.319" y="388.3087" width="14.4" height="14.4"/>
	<rect x="413.7191" y="388.3087" width="14.4" height="14.4"/>
	<rect x="428.119" y="388.3087" width="14.4" height="14.4"/>
	<rect x="442.519" y="388.3087" width="14.4" height="14.4"/>
	<rect x="384.919" y="402.7086" width="14.4" height="14.4"/>
	<rect x="399.319" y="402.7086" width="14.4" height="14.4"/>
	<rect x="413.7191" y="402.7086" width="14.4" height="14.4"/>
	<rect x="428.119" y="402.7086" width="14.4" height="14.4"/>
	<rect x="442.519" y="402.7086" width="14.4" height="14.4"/>
	<rect x="384.919" y="417.1087" width="14.4" height="14.4"/>
	<rect x="399.319" y="417.1087" width="14.4" height="14.4"/>
	<rect x="413.7191" y="417.1087" width="14.4" height="14.4"/>
	<rect x="428.119" y="417.1087" width="14.4" height="14.4"/>
	<rect x="442.519" y="417.1087" width="14.4" height="14.4"/>
	<rect x="384.919" y="431.5087" width="14.4" height="14.4"/>
	<rect x="399.319" y="431.5087" width="14.4" height="14.4"/>
	<rect x="413.7191" y="431.5087" width="14.4" height="14.4"/>
	<rect x="428.119" y="431.5087" width="14.4" height="14.4"/>
	<rect x="442.519" y="431.5087" width="14.4" height="14.4"/>
	<rect x="384.919" y="445.9087" width="14.4" height="14.4"/>
	<rect x="399.319" y="445.9087" width="14.4" height="14.4"/>
	<rect x="413.7191" y="445.9087" width="14.4" height="14.4"/>
	<rect x="428.119" y="445.9087" width="14.4" height="14.4"/>
	<rect x="399.319" y="460.3087" width="14.4" height="14.4"/>
	<rect x="413.7191" y="460.3087" width="14.4" height="14.4"/>
	<rect x="428.119" y="460.3087" width="14.4" height="14.4"/>
</g>
<g>
	<rect x="567.8187" y="287.5098" width="14.4" height="14.4"/>
	<rect x="582.2187" y="287.5098" width="14.4" height="14.4"/>
	<rect x="596.6187" y="287.5098" width="14.4" height="14.4"/>
	<rect x="553.4186" y="301.9098" width="14.4" height="14.4"/>
	<rect x="567.8187" y="301.9098" width="14.4" height="14.4"/>
	<rect x="582.2187" y="301.9098" width="14.4" height="14.4"/>
	<rect x="596.6187" y="301.9098" width="14.4" height="14.4"/>
	<rect x="611.0187" y="301.9098" width="14.4" height="14.4"/>
	<rect x="553.4186" y="316.3098" width="14.4" height="14.4"/>
	<rect x="567.8187" y="316.3098" width="14.4" height="14.4"/>
	<rect x="582.2187" y="316.3098" width="14.4" height="14.4"/>
	<rect x="596.6187" y="316.3098" width="14.4" height="14.4"/>
	<rect x="611.0187" y="316.3098" width="14.4" height="14.4"/>
	<rect x="553.4186" y="330.7098" width="14.4" height="14.4"/>
	<rect x="567.8187" y="330.7098" width="14.4" height="14.4"/>
	<rect x="582.2187" y="330.7098" width="14.4" height="14.4"/>
	<rect x="596.6187" y="330.7098" width="14.4" height="14.4"/>
	<rect x="611.0187" y="330.7098" width="14.4" height="14.4"/>
	<rect x="553.4186" y="345.1098" width="14.4" height="14.4"/>
	<rect x="567.8187" y="345.1098" width="14.4" height="14.4"/>
	<rect x="582.2187" y="345.1098" width="14.4" height="14.4"/>
	<rect x="596.6187" y="345.1098" width="14.4" height="14.4"/>
	<rect x="611.0187" y="345.1098" width="14.4" height="14.4"/>
	<rect x="553.4186" y="359.5098" width="14.4" height="14.4"/>
	<rect x="567.8187" y="359.5098" width="14.4" height="14.4"/>
	<rect x="582.2187" y="359.5098" width="14.4" height="14.4"/>
	<rect x="596.6187" y="359.5098" width="14.4" height="14.4"/>
	<rect x="611.0187" y="359.5098" width="14.4" height="14.4"/>
	<rect x="553.4186" y="373.9098" width="14.4" height="14.4"/>
	<rect x="567.8187" y="373.9098" width="14.4" height="14.4"/>
	<rect x="582.2187" y="373.9098" width="14.4" height="14.4"/>
	<rect x="596.6187" y="373.9098" width="14.4" height="14.4"/>
	<rect x="611.0187" y="373.9098" width="14.4" height="14.4"/>
	<rect x="553.4186" y="388.3098" width="14.4" height="14.4"/>
	<rect x="567.8187" y="388.3098" width="14.4" height="14.4"/>
	<rect x="582.2187" y="388.3098" width="14.4" height="14.4"/>
	<rect x="596.6187" y="388.3098" width="14.4" height="14.4"/>
	<rect x="611.0187" y="388.3098" width="14.4" height="14.4"/>
	<rect x="553.4186" y="402.7098" width="14.4" height="14.4"/>
	<rect x="567.8187" y="402.7098" width="14.4" height="14.4"/>
	<rect x="582.2187" y="402.7098" width="14.4" height="14.4"/>
	<rect x="596.6187" y="402.7098" width="14.4" height="14.4"/>
	<rect x="611.0187" y="402.7098" width="14.4" height="14.4"/>
	<rect x="553.4186" y="417.1098" width="14.4" height="14.4"/>
	<rect x="567.8187" y="417.1098" width="14.4" height="14.4"/>
	<rect x="582.2187" y="417.1098" width="14.4" height="14.4"/>
	<rect x="596.6187" y="417.1098" width="14.4" height="14.4"/>
	<rect x="611.0187" y="417.1098" width="14.4" height="14.4"/>
	<rect x="553.4186" y="431.5098" width="14.4" height="14.4"/>
	<rect x="567.8187" y="431.5098" width="14.4" height="14.4"/>
	<rect x="582.2187" y="431.5098" width="14.4" height="14.4"/>
	<rect x="596.6187" y="431.5098" width="14.4" height="14.4"/>
	<rect x="611.0187" y="431.5098" width="14.4" height="14.4"/>
	<rect x="553.4186" y="445.9098" width="14.4" height="14.4"/>
	<rect x="567.8187" y="445.9098" width="14.4" height="14.4"/>
	<rect x="582.2187" y="445.9098" width="14.4" height="14.4"/>
	<rect x="596.6187" y="445.9098" width="14.4" height="14.4"/>
	<rect x="567.8187" y="460.3098" width="14.4" height="14.4"/>
	<rect x="582.2187" y="460.3098" width="14.4" height="14.4"/>
	<rect x="596.6187" y="460.3098" width="14.4" height="14.4"/>
</g>
</svg>
